<mxfile host="app.diagrams.net" modified="2023-11-07T14:46:38.701Z" agent="Mozilla/5.0 (Windows NT 10.0; Win64; x64; rv:109.0) Gecko/20100101 Firefox/119.0" etag="jgoy8-lO7Zmc0I2IPMNv" version="22.0.8" type="device">
  <diagram name="Страница — 1" id="nlic02gEIzSQ0bEMPXxR">
    <mxGraphModel dx="2620" dy="1737" grid="1" gridSize="10" guides="1" tooltips="1" connect="1" arrows="1" fold="1" page="1" pageScale="1" pageWidth="827" pageHeight="1169" math="0" shadow="0">
      <root>
        <mxCell id="0" />
        <mxCell id="1" parent="0" />
        <mxCell id="QaJkn2_FKrZJyJ2E_iRm-2" value="" style="shape=image;verticalLabelPosition=bottom;labelBackgroundColor=default;verticalAlign=top;aspect=fixed;imageAspect=0;image=data:image/png,iVBORw0KGgoAAAANSUhEUgAAAnoAAAGwCAYAAAA+MchDAAAgAElEQVR4Xu3dC5xPdf7H8c8MGeOyFV0k/yG2C2nbsLkUpU0IIQwRdpe0bRupdNst0tKWW9h2a8p2UWJcthZhddmSSxK1JCmU3YgaKtfJmPmf75k5P+f3m9/MnN/tXF+/x8Nf5vc938vzc+ax7//3nPP7pWVl/V+R8EIAAQQQQAABBBDwhcCXX+4MrSONoOeLmrIIBBBAAAEEEEBAFyDocSIggAACCCCAAAI+FSDo+bSwLAsBBBBAAAEEECDocQ4ggAACCCCAAAI+FSDo+bSwLAsBBBBAAAEEECDocQ4ggAACCCCAAAI+FSDo+bSwLAsBBBBAAAEEECDopfgc+GDbTtn+VDfp89hHKR4pud33zvlAJnU8XerXz4q54z8s2inDLpK4jo15MA5AAAEEEEAAgTIFPB30Jv97i/Q6p1rY4q7TgombIlUqgp4q2sacVtJ13K7itd82V768q6XsnD9Y2t7xVvHP6o6WL1cPkbGax4w4fgEIenGgcQgCCCCAQMoFJk6cJH369JE1a1ZL3759UzreT37yE9m4cZM21hpp1aqVXHRRU/nhhx9SOmayO3cs6OXn50tGRkaZ6zl6NF+qVi37fZHh2ocA3iXL72klQ2cXB57ON/1aljz9bLKNXNffCi3oZX29WOq3vEWfW866ndKm6gGpWe0Lqd+wi/6zRIJaosezo+e6U4YJIYAAAr4QUKHFHLY2bfpYmja9MGVrU+OZr2xF/jtZA6vgqgJstNddd90pc+fOjXuopAU9c3D78cdjUqXKSfqkzIEt8r+/+26/nHHGGVJYWKj9KdKPUW3U3wcOHJCTTz5Zyg6Ef9CC3s3yeOssmVKysWVW6DJ+qfx1QJMTPzr+tRaCLtV2ukZqO10j5YXrsuSBkq2/PyzaUXKp8Rzt/S6yffXfpFLoyMPSuv4FoobQA0ydpbIhs4NcUqOS5C2/R5oNfVnGL90sAxrXCB2xY/49cuUdL+v/VsDfLLtDWgybJ3X7/U1WP9pFjucfFMmooY+Rf/AHGXdhU6mn+j7vPTmc0VJCe5THD2pzNq2hZITbcj8TbQNPO/nODY2x/J4npMOjt4ZOyEXbtV+Gw+9I/aY3am3qysfb14g25dDrnfF9ZOBT7+n/XqfN8Wtth7DxsDVSWfv3DM1085jwS7efaG2qHd4o9RtrQbJ3jnw5qZMs+/q4dKxjdBrhZLp0u1SbS2PT2Mf3vSUNLxlcPJeWWj1yR5pK95W2htZR53yPNq+STB/3Cc+BCCCAAALeFGjVqrW+m7Z588dhC1iyZIl07tw5JYuyK+ilZPIlnSYl6O3f/52ceuopkpe3Tw9tp59+mhw6dEgKCgr0sKbeVz+vXbuW/nPVTvu6NT3UqZcKdVWqVJHq1avJvn375KSTqkh6epocOXJEPz4zMzOqwXtagFA548vVz0q7fqNNbTpqAetp2Tyjj3Qeq8JMXdn+5Rop2PiUnNd1nHykhZaanz4vDa95QD9mu/bvgvcmynnZ02SF1mdWwcdS/7zik0aFoFolbY2dqsOfviSNr7mveLyOU+TLnF4yIztL1FB1+83QwlwHMS4hm4OevhP32UtS/+riY9V7G57Ikh6PlYRILRy9pPVzv5pyS+3Sa+4QWTw8S373asTyL35EvvznABmsXZb9twzR+hmthdEsWa31t+zOLNEypd63cXl32qqd0v3s/FAw7JezVh7tWCc0R7XG07UhzOHPvCOoO0tJUFZTKQl6O1+9VdoOX6gmq403V/JLDEvt6DVqJLJtW4nXNM2rR8ncRbZqY2cYAdK0zMkrdkivrILQnJ/Rdi071PpUC74dUvn7QN8IIIAAAi4VGDlypEyZMqXU7FK1y6YGmjMnV7s8nB0aM/LfyaJSIXbkyNujdjdlyuP6Zep4X0kNet9//70W7o7rgU6FO7UzV716dT3IqaCnQptq8/33P+iXZVXQU4Fv167d+mVcFRbVcSrg1axZQwt4KvjlSZ06dcpc30OzV8ivWtfX39/11nhp/asntdS0WL7UngYwb7eOf32nDDj3gPazC6XjtNWS072O9t9qB0/bGVx9szygBaUXSsLXxpws7f634iGLQ8s3WtvmJf8d/pDB3a/skFsvqVRqa9ccuIwdPStBL3KL2DwXM4Iq3HsTs+Sv57wrz/eqoo1/qeRu3Sktd6oguVu/rH2ntiYt8xV/z50Wcusbi5KLtZ8tlHfGZslA7QY+Pejlv6eF2z6hIYygV7xrp0LiBSeGLwl6Rv/qDX3sDG3Hr36X0k6NOshrzz4qP613mmSU7OwVH9tbm8fkUDg1r0+F70rmOUepabwnPcchgAACCHhPoEmTC6V161YyY0b4nedPP/2M3HTT0KQvSI134YVNwi6bqkusH3+8udSuYtIHT2KHSQl65vmoIKcCnd2vW2eulbvb1ZGJWoCYHiUUhO8ytdcCxvP65VuZsEMGna/tVumXC8O//PfEGsoOeka/keuNFvTq9pui7fb1OnHp1ricHAqU4SGyeFfuROg0j/G69t652u7ghoYDpMm64t3Iix9eLv8c1EAGz9+jhb+zi4NsyZqMsGn0Ye5bD3rfLJX6LYaVCnrGD3K0ncZxxVd6Qzt65qCn7hPseHoUp5ba7mPuANm16m/S+oZH1Er1S+7moJej1awkV4fGN5+Y5nXH8xSw3eci4yGAAAIIpEZg6dKletBT96wZD0qoy7aRl3OTMXpZ/zuk+k72/xbVq1dPevc+sdlinv+8eXPlf//7X9xLSnrQi3smCR9YHN70gPWtdjn1+V5hT5zO13acWlTWdpxKHlb4l3Y58qebnxK56Gb5/IVuck3JDXsK5KtXb5I2w5eVmlG0hwyunKx21LLKLHr4PXo5snr8z4vvFYx4Reu7vKDX75n18miHAq2XOvKSFljv1+83LDZYnifS4diJhzX0ncQDxv16WrOS+xRztHve1IO75QU9dTLnvLdD29VTJ3ZxcDQu3Z4YV/TL4afkLZf6zYaE7eiVeigkYjdQrfGzl7rJ1cULCL30OX/1itRvMzzhM4MOEEAAAQT8I6B22oYMGSL/+tcyWbZsmajwd8cdd6Yk7Ck1FSjVvYHG316T9G7QU7t2Q86TDf9ZLx/uPCr9u7bXLgseD4WR4vv3CmT2sy/Iqb+4Tjo2PU0WayHwd+papp51Fsjq29WDDtX0+9uM5zmM+9c2LXtZJs3+j/QYfKO0yZ+hP0wR/WnS4vv/KhV8K5MevEvk3HbS+/pB0u5nDfVxwoKe9jEoq9VTFMar4LBMH36VTFy8K2rf5QU945Kz6sr8/1lsUvcfaj9Tl3Wzp5estZ8WMB/tJN9uWioL398vA399g1Q27SZWFPRUL/ql1G+0INdiSCjoiRT71u+QLa3r1ZD5w7LkDi0fhzmVfPTLhjkPy7Of1ZMpfxykPYRSKXRZuThEVhLl/f7+U6V/n+ZyXsPm2r2OJ+Y8atJsaddjsAxsky+NTLuOXvtlY74IIIAAAt4USNW9eXZoeDfo1b1I5rzwtPzi3LpabDguuzYtl15dhoUCm8J7TLt/r692/17B4W/l4Zu7ynPvhD+eqy8+4t40ddxF2Q/J7D8NkhraDWU/5H0pDw/uK7kbo4exkiglz7++QK7U5qINJuvfeF56DlOXKcOD3mrtw5PP+G6TzFy4Vn/v8m6D5NzTKutBLdYdPaPvyPkXP0FcKfSwg3ES1W33a1n01ANSu1pl7Z5ELTj1uzt0flkJesbDIRtz+kjXT7UHQLSnbutfNULWL5oktTOOy3N3dJLRrxQ/cBG5lge1OgzR6nBYs+zarK0s0dzvL7l/ULW/L+c1GdqxqRY+82X1vPHS7+7ij8ipe1G2zJ89TurWyJDDP3wrLzw8WB7J3WjH7wVjIIAAAggg4AsB7wY9r/GXXLIMv65f/DCC+V43TywrysMYnpg3k0QAAQQQQCBgAgQ92wp+ixbq7pMNz90nPUa/JBe1HSDPPfeInJamfRhjw8ttm0VSBiLoJYWRThBAAAEEEEi1AEEv1cKm/vXLp3+7X2prlyILDv8gb+ROkmGjPfhNHgQ9G88ahkIAAQQQQCB+AYJe/HYciQACCCCAAAIIuFqAoOfq8jA5BBBAAAEEEEAgfgGCXvx2HIkAAggggAACCLhagKDn6vIwOQQQQAABBBBAIH4Bgl78dhyJAAIIIIAAAgi4WoCg5+ryMDkEEEAAAQQQQCB+AYJe/HYciQACCCCAAAIIuFogLOg1b35Jkatny+QQQAABBBBAAAEELAusW7c+1DaNoGfZjYYIIIAAAggggIDrBQh6ri8RE0QAAQQQQAABBOITIOjF58ZRCCCAAAIIIICA6wUIeq4vERNEAAEEEEAAAQTiEyDoxefGUQgggAACCCCAgOsFCHquLxETRAABBBBAAAEE4hMg6MXnxlEIIIAAAggggIDrBQh6ri8RE0QAAQQQQAABBOITIOjF58ZRCCCAAAIIIICA6wUIeq4vERNEAAEEEEAAAQTiEyDoxefGUQgggAACCCCAgOsFCHquLxETRAABBBBAAAEE4hMg6MXnxlEIIIAAAggggIDrBQh6ri8RE0QAAQQQQAABBOITIOjF58ZRCCCAAAIIIICA6wUIeq4vERNEAAEEEEAAAQTiEyDoxefGUQgggAACCCCAgOsFCHquLxETRAABBBBAAAEE4hMg6MXnxlEIIIAAAggggIDrBQh6ri8RE0QAAQQQQAABBOITIOjF58ZRCCCAAAIIIICA6wUIeq4vERNEAAEEEEAAAQTiEyDoxefGUQgggAACCCCAgOsFCHquLxETRAABBBBAAAEE4hMg6MXnxlEIIIAAAggggIDrBQh6ri8RE0QAAQQQQAABBOITcDzoqQkUFhbKpZe2iG8FUY7q2rWbjBnzkLRo0Ux/11ik8e9kDaT6feutt2TUqDuT1SX9IIAAAggggAACSRNwNOj1799f7rjjLn0xyQxhkUEvGVp/+csTcvLJp8jAgQOS0R19IIAAAggggAACKRdwNOitWrVG/vvfndKo0U9l5cp3ZcSI4aEFq4mp8JebO1caNmwkW7ZskRtv7F/q/bffXiHVq1eXOXNmy4QJj+nvR9vRy8vLk44dO+jvn3nmmfL3vz+n/33gwAG5886Rsn79ehkw4EYZOvQmqVmzpuzZs0e6dOmstx816m7p27dfaGxjF0/NcebMF2Tq1Mf199q1u0LGjRsvmZmZ2i7i+/Lb395car4vvjhLLrjggrD+VSPV/4gRt0uVKlXkf//7n9x++3D54osvUn4CMAACCCCAAAII+FfA0aCnBldhavDgX0t2dnbYrp4xMRWq8vOPSqdOnWXv3r1y7bWd9GoY78+e/bL8/OeX6OHp2Wf/Lk888ZcKg546tqCgQObNmyvt218VCnQrVqyUt9/+tyxdulQmT54i6enp+pwuv7ytPP74VPnss8/0/vPyvpVPPvlEn4MR9IzdSRVIP/xwg/Trd0PYJWljvioAfv7552Hvt2lzmUybNl0Pqxs3btQDX+fOHf171rEyBBBAAAEEELBFwLGg96c/jdPDm/k+ukGDBsrmzR+HgpwKU8al0gkTJmmhrH1Y+zFjRsuiRQv19mvXrgsFs/J29HJynpFmzZpVeKlYha2BAweFjWeejxE2jaCnIA8ePChXXtlOn4/aLVy8eIkeItXuoHp/+/btWqDtrb+vgqTaAVTrN0LiAw/8UZYsec2WwjMIAggggAACCPhfwLGgZx7YYN69e7d069YlFPTMDzpEC2/m+/pmznxJGjdurAen8oLesmXLpXbt2lGDnjEntdt37Ngx/RKsOYhWFPQiH8ww7/hFPrgRGVwXLXpN6tSpo6/dfBna/6cgK0QAAQQQQACBVAk4EvSM3S51mdJ4/eQnNaV+/QZhwcocnIYMGSq33PK7sPfNQe/VVxfK2WefHXfQMx+v5hTPjl60IDh58kSZNWuWvqNnXk9k0DMc1L2DP/vZz7R7E3Plscf+nKq60y8CCCCAAAIIBEDAkaA3Z06u/gBG5JO2ajJ/+9tfZcaMZ0p9JIp6cEM9qGDeYdu69VPtsucNoR3Abds+1x5qyC53R+/uu+/V7wccNmyo/gCGejVpcqFMmfJ42E6ful8vckfP/ECHOs68Yxe5pmiXmssKeg0aNAh78EL1q+am5sgLAQQQQAABBBCIV8CRoKcGXbNmtfz+97eGzVvdZ6de6jP1VBu1Q6YuxxovczhT73/99dehy52qjRECK3rq1nhS1+hX3eun7q+bOHFSaKycnKe0oHVzqM8///lRufrq4qd2jZ27yKdujfsEjU5UH+qPEQrLCnrG7qEZI5kfNxPvycFxCCCAAAIIIOBtAUeCnhUyNbHXX18u9957T9TmxsevWOmLNggggAACCCCAQBAFXB30yvvWCYJeEE9X1owAAggggAACsQgQ9GLRoi0CCCCAAAIIIOAhAdcGPQ8ZMlUEEEAAAQQQQMCVAgQ9V5aFSSGAAAIIIIAAAokLEPQSN6QHBBBAAAEEEEDAlQIEPVeWhUkhgAACCCCAAAKJCxD0EjekBwQQQAABBBBAwJUCBD1XloVJIYAAAggggAACiQsQ9BI3pAcEEEAAAQQQQMCVAgQ9V5aFSSGAAAIIIIAAAokLEPQSN6QHBBBAAAEEEEDAlQIEPVeWhUkhgAACCCCAAAKJCxD0EjekBwQQQAABBBBAwJUCBD1XloVJIYAAAggggAACiQsQ9BI3pAcEEEAAAQQQQMCVAgQ9V5aFSSGAAAIIIIAAAokLEPQSN6QHBBBAAAEEEEDAlQIEPVeWhUkhgAACCCCAAAKJCxD0EjekBwQQQAABBBBAwJUCrgx6RUVFrsSya1JpaWl2DcU4CCCAAAIIIOBjAVcEPXOwa9z4AsnKqic1atSQoAWeY8cK5JtvvpGtWz+Xb7/9Vj/tgmbg4981loYAAggggIDtAo4HPRXyMjKqSrdunW1fvNsH3L59h6xf/yGBz+2FYn4IIIAAAgi4VMCxoGfs4jVr9nNp2PAcl/K4Y1rz5v2DsOeOUjALBBBAAAEEPCXgSNAzQl6bNq2kbt2zPAXm1GQJe07JMy4CCCCAAALeFbA96Bkhr0GD+tKiRTPvyjkwc8KeA+gMiQACCCCAgIcFHAl6Kuz16XO9h9mcmTr37DnjzqgIIIAAAgh4VcDWoGfs5l100YVy/vnnedXM0XnPnbtAfxKXp3EdLQODI4AAAggg4AkB24Meu3mJnRdvvfWO5OXl6Z0Q9hKz5GgEEEAAAQT8LmBb0DN28wh6iZ1SX321W1atWs2uXmKMHI0AAggggEAgBGwNeirkqT/Z2b0CgZuKRaoPVX7llX8S9FKBS58IIIAAAgj4TICg58GCGvfpcfnWg8VjyggggAACCNgoQNCzETtZQ+XmLpD09OLvw+U+vWSp0g8CCCCAAAL+E7A96BUWFknfvly6TeRUys2drwW9dIJeIogciwACCCCAQAAECHoeLLIKesZHrLCj58ECMmUEEEAAAQRsEiDo2QSdzGEIesnUpC8EEEAAAQT8K0DQs1jbWrVqy80332qxdXizrVu3yPz5uXEdG+0ggl7SKOkIAQQQQAABXwsQ9CyW9777HrTYsuxm06ZNkkOHDiXcD0EvYUI6QAABBBBAIBACBD2LZU5G0FNDTZ8+WQ4ePGhx1OjNCHoJ8XEwAggggAACgREg6FksdbKCnhrukUfGWhyVoJcQFAcjgAACCCAQcAGCXgwnwODBQ6Ru3bNjOCJ6048+2iCvvbYw7n7Y0YubjgMRQAABBBAIlABBL8Xlvv32UZKZmVlqlER29Qh6KS4a3SOAAAIIIOATAYKeDYWMdtmXoGcDPEMggAACCCAQcAGCng0nAEHPBmSGQAABBBBAAIFSAgQ9G04Kgp4NyAyBAAIIIIAAAgQ9J84Bgp4T6oyJAAIIIIAAAoHd0fv970dKzZo19TNg8uRHJT8/P2VnA0EvZbR0jAACCCCAAALlCAQy6GVn3yCNGp0bxjJ16iQ5fDjxb62IZk3Q43cQAQQQQAABBJwQCGTQK+vDj6dOnaiFvcNJrwNBL+mkdIgAAggggAACFgQCGfRuuukWOe2006PypCLsEfQsnIk0QQABBBBAAIGkCwQy6CnF8r7S7PHHJ8iRI0eShk3QSxolHSGAAAIIIIBADAKBDXoVhb0pUx6To0ePxkBZdlOCXlIY6QQBBBBAAAEEYhQIdNCzK+wR9GI8K2mOAAIIIIAAAkkRCHzQsyPsEfSScq7SCQIIIIAAAgjEKEDQKwEr7569RD9nj6AX41lJcwQQQAABBBBIigBBz8SYqrBH0EvKuUonCCCAAAIIIBCjAEEvAiwVYY+gF+NZSXMEEEAAAQQQSIoAQS8KY7LDHkEvKecqnSCAAAIIIIBAjAIEvTLAygt7Eyc+IseOHbNMTdCzTEVDBBBAAAEEEEiigOeC3qhR90vlypWTSBBfV9OmTZJDh6x9Ny5BLz5jjkIAAQQQQACBxAQ8FfQuv/wKadv2isRWnMSjH3lkrKXeCHqWmGiEAAIIIIAAAkkW8FTQ69t3gDRs2CjJBPF3R9CL344jEUAAAQQQQCD1Ap4KeieffLL87ncjUq9iYYS9e/fIjBlPWWgZ/Xt1rYbEaAPk5s6XtLS00B9Lk6ARAggggAACCAROwFNBT1UnMzNTbrhhoJx5Zh3HirV//3558snplsfn0q1lKhoigAACCCCAQBIFPBf0krj2Mru6+OJL5Npru0V9/+uvd8uzzz4d0zQIejFx0RgBBBBAAAEEkiRA0IuATHbIU90T9JJ0ttINAggggAACCMQkQNAzcTVv/gu55prOSdvJMzoi6MV0TtIYAQQQQAABBJIkQNArgUxVyGNHL0lnKt0ggAACCCCAQMwCBD2NrGXL1nLVVR2i4n3zzV555pknY4Y1H8COXkJ8HIwAAggggAACcQoEPuilOuSxoxfnmclhCCCAAAIIIJCwQKCDnh0hj6CX8DlKBwgggAACCCAQp0Bgg566VKuCXrRXMi7Xcuk2zjOSwxBAAAEEEEAgaQKBDHr16v2fDBz4a1tCHjt6STtX6QgBBBBAAAEEYhQIZNCL9nCEcsvL+1Zycv4aI2HFzXkYo2IjWiCAAAIIIIBA8gUIeiWmqQp57Ogl/6SlRwQQQAABBBCwJhDIoHfaaafLTTfdEhJKZcgj6Fk7EWmFAAIIIIAAAskXCGTQMxjVhyRv3rxJjhw5knxZU49cuk0pL50jgAACCCCAQBkCgQ56dp0VBD27pBkHAQQQQAABBMwCBD0bzgeCng3IDIEAAggggAACpQQIejacFAQ9G5AZAgEEEEAAAQQIenafA02aNJXu3a8vNewjj4yNeyq5ufMlLS0t9CfujjgQAQQQQAABBHwtwI5ejOXNyqqvHZFW4VGVKqVLu3btpW7ds0u1LSgokAkTxlfYR1kNCHpx03EgAggggAACgRIg6Fksd5s2beWKK9pbbF1+s6lTJ8nhw4fi7ougFzcdByKAAAIIIBAoAYKexXKX9W0aFg8PNdu7d4/MmPFUrIeFtSfoJcTHwQgggAACCARGgKBnsdTJCHoHDx6U6dMnWxyx7GYEvYQJ6QABBBBAAIFACBD0LJb5t7+9TU499VSLrUs3W7Hi3/Luu+/Efbz5QIJeUhjpBAEEEEAAAd8LEPRiKHGjRj+Vli3b6E+7Vvwqkry8PPnww/Xy9de7K24eQwuCXgxYNEUAAQQQQCDAAgQ9DxafoOfBojFlBBBAAAEEHBAg6DmAnuiQBL1EBTkeAQQQQACBYAgQ9DxYZ4KeB4vGlBFAAAEEEHBAgKDnAHqiQxL0EhXkeAQQQAABBIIhQNDzWJ2Liopk7twFfAWax+rGdBFAAAEEEHBCgKDnhHoCYx44cECWLPkXQS8BQw5FAAEEEEAgKAIEPY9VetOmzbJ58yeSnp6uz9zaR714bJFMFwEEEEAAAQSSImB70FOXHrt1u1YyMzOTsoCgdTJnzjwt3KVrQa/4s/wIekE7A1gvAggggAAC1gUcCXrVq1eXLl06WZ8lLUMCKuip3TwV8Ah5nBgIIIAAAgggUJ6ArUFPTaSwsEiKigrl+ut7yEknVaY6MQi88soi+fHHfO7Pi8GMpggggAACCARZwLagp5DVZVv1xwh7/fr1CbJ9TGvftm27qGIZO3ns6MXER2MEEEAAAQQCKeBI0DMCn/qbsFfxeffVV7tlxYp3S12y5dJtxXa0QAABBBBAIMgCtgc9886esbvXu3dPLuOWcRa+//4Honbzinfw1L15xQ9gEPKC/GvL2hFAAAEEELAmYGvQM0JeZNhTga9GjRryy19eydO4JXXbsuVT2bDho1KXagl51k5sWiGAAAIIIICA6Ld9Ga+05s0vKbIDRQW7aGGv+McnplDSzI4puWIMtVsXKob+j+Kdu8hdPHbzXFEuJoEAAggggIDrBRwJetF29k4Ev/Cw53rBFEzQCHLm3Tvzz1IwJF0igAACCCCAgA8FHAt6kWGv+N8nQl7QdvPUykvv6IV/IDI7eT78DWRJCCCAAAIIpFDA0aBnDnvGGo3Luilcsye6Noc6Ap4nSsYkEUAAAQQQcJ2A40HPLELICz8/CHiu+31hQggggAACCHhKwFVBz1NyTBYBBBBAAAEEEHC5AEHP5QVieggggAACCCCAQLwCBL145TgOAQQQQAABBBBwuQBBz+UFYnoIIIAAAggggEC8AgS9eOU4DgEEEEAAAQQQcLkAQc/lBWJ6CCCAAAIIIIBAvAIEvXjlOA4BBBBAAAEEEHC5AEHP5QVieggggAACCCCAQLwCBD0Lcm+/vUKuuKKthZY0QQABBBBAAAEE3CMQmKA3YsTtsm3bNlm0aKF79JkJAggggAACCCCQQoFAB71mzZrJX//6pBQWFkrPnt1lz549cvXVHWT8+EckPT1dZ2/RopkoJFH+1WkAAB70SURBVOPvOXNmS9++/WTLli1y4439U1gaukYAAQQQQAABBBITCHTQW7t2nVx6aQtd0BzmVKhTr1dfXSjdu3cLe69Ll856IJwwYZKMGnVnYvocjQACCCCAAAIIpFAg0EHPHNZmznxJBg4cICr8DR48UC6/vK3Uq1dPRo9+MGoI5FJwCs9KukYAAQQQQACBpAgEOujNmvWy9O9/gw65bNly6dixgzz55FN6uFO7dsYr2m4fQS8p5x+dIIAAAggggEAKBQIV9M4880zZt2+fzjlx4gR57bWlsnTpEsnIyJD27a+Sa6/tJGPGPCRdu3bT2/znP/+R3/zmV+zopfAEpGsEEEAAAQQQSJ1AYIKeFcImTS6UHj16aA9jjNOb5+Q8I8OGDbVyKG0QQAABBBBAAAHXCRD0Ikry+utvart6o+WMM86Qe++9L/Swhusqx4QQQAABBBBAAIEKBAh6nCIIIIAAAggggIBPBQh6Pi0sy0IAAQQQQAABBAh6nAMIIIAAAggggIBPBQh6Pi0sy0IAAQQQQAABBAh6nAMIIIAAAggggIBPBQh6Pi0sy0IAAQQQQAABBAh6nAMIIIAAAggggIBPBQh6Pi0sy0IAAQQQQAABBAh6nAMIIIAAAggggIBPBQh6Pi0sy0IAAQQQQAABBAh6nAMIIIAAAggggIBPBQh6Pi0sy0IAAQQQQAABBAh6nAMIIIAAAggggIBPBQh6Pi0sy0IAAQQQQAABBAh6nAMIIIAAAggggIBPBQh6Pi0sy0IAAQQQQAABBAh6nAMIIIAAAggggIBPBQh6Pi0sy0IAAQQQQAABBAh6nAMIIIAAAggggIBPBQh6Pi0sy0IAAQQQQAABBAh6nAMIIIAAAggggIBPBQh6Pi0sy0IAAQQQQAABBAh6nAMIIIAAAggggIBPBQh6Pi0sy0IAAQQQQAABBAh6nAMIIIAAAggggIBPBQh6Pi0sy0IAAQQQQAABBAh6nAMIIIAAAggggIBPBQh6Pi0sy0IAAQQQQAABBAh6nAMIIIAAAggggIBPBQh6Pi0sy0IAAQQQQAABBAh6nAMIIIAAAggggIBPBQh6Pi0sy0IAAQQQQAABBAh6nAMIIIAAAggggIBPBQh6Pi0sy0IAAQQQQAABBAh6nAMIIIAAAggggIBPBQh6Pi0sy0IAAQQQQAABBAh6nAMIIIAAAggggIBPBQh6Pi0sy0IAAQQQQAABBAh6nAMIIIAAAggggIBPBQh6Pi0sy0IAAQQQQAABBAh6nAMIIIAAAggggIBPBQh6Pi0sy0IAAQQQQAABBAh6nAMIIIAAAggggIBPBQh6Pi0sy0IAAQQQQAABBAh6nAMIIIAAAggggIBPBQh6Pi0sy0IAAQQQQAABBAh6nAMIIIAAAggggIBPBQh6Pi0sy0IAAQQQQAABBAh65ZwDCqdFi2aeO0vUvPPy8qRjxw4xzz2RY2MejAMQQAABBBBAIKUCjgW9tWvXSXp6etji3Baqkh302rS5TKZNmx4WHl99daGcffbZYT+bPHmKtGt3RdwhM5GwlsixKT1T6RwBBBBAAAEEYhZwJOg99NBY6dKla1iQ6dWrt8yfPy/mBXjtAAX+7LN/lyee+Is+dfXvgwcPyvvvvy+jRt2p/0yF4MOHD8uVV7aLa3mJhLVEjo1rshyEAAIIIIAAAikTcCToTZgwSdq3b1/mjtWiRa9JnTp1Qovetu1z6ds3W/70p3HSqVPnsOPMwWTQoMEyfPiI0HHfffedXH31VaFANXPmCzJw4CD93126dJY9e/bImjVrpXLlyqFjhg0bKuvXrw8dY+wyPvfcC9K0aVM5cOCA1KxZU39/3759cs01V+thbenSJfrcjNfOnTvl+ut7lCqcavvVV19J9+7dQmO8/vpybZ4dQutSbRYsmC/jx4+TZs2aSU7OM2H9GHM3gqKas9FGzddscuaZZ8rixUvkrbfe0oPkzJkvyfnnnx+2mxrpZL7saz5B1Hhz5+bKo4/+WZ+PEdiNyX300YcyZMhvSs25sLBQLr20RcpOYjpGAAEEEEAAgegCjgQ9I6Cov5966kl5+ukcU9C6WYYNuzkUxIygM2bMaFm0aKEeYh577M+Sm5sbCkrDh98mq1at1N9755235Y47RobeM9oaC502baq88MLz+vsqHKn+jTA3a9bLct5554cFLuM9dfzkyRNl1qxZYoQn83uqP+Pf5V16/ctfnpBWrVrrbe+//w9aGOylr1WFMXN/5v82B68VK1ZKZmZmWFs1dmT4M45R8/7kk0+0gDtAX7MKeo0bN5beva+XL774Qnr06Cl//OMDWkA+YWger0GDBno79Zox4+9y8cU/DxvbCJDm0ytyV1D9e+XKd2XEiOH8HiKAAAIIIICAjQKOBT21xiVLlsnpp5+uL/fee+8RtbO1bNlyqV27dqldu+3bt0t2dm8t0K2Ro0ePyFVXtRfzzmDHjp1k3LjxpY4zQo5a6I8//iht2rQK8UYGkq5du8mYMQ/FFfSM3T3VeWQ/5no2aXKhFjRn6mOotWzdulV+9atBekhVQfL88y8Iu6ytfm6EXNVP//79tSB7V9gcFy9eJKNHP1hqXcpx7969cu21nULvGUHPfD+kGsMIbJEm1113nYwceWdoF1N1pI4dMeJ2fXc02n2VkXOOVlMbz3GGQgABBBBAILACjgY9Q928S1VW0DN2mYYMGSq33PI7PWCoyRuXC41wFVlJc9CLfBI18rKkcWy0nTVj98+4dGtcTlbHVBQYI+dkhDoV2IydtDfffEu7LHxQD75qDOOJWdXWHKaihVF1SXrq1MfDgp55TPPxZQW9aE7G7uOUKZPlpZdeDAvWFQW9aL9RbnvYJrC/9SwcAQQQQCAwAq4IeubwFnk51QhS5kuExo6ReffNaGe+hGmuYrSHDNSOmnqZd/kijzHCiQpI6mVcAi2v7/J29Ix5btq0Sb/nz+jfMFDvRz6sYdyvp96LvE9RrSta0DPfP3jkyBFp2/YyfcplBT11SVrtKJqd1H+rh0Latbu81LHRdlANE3VcTs5T+h9eCCCAAAIIIOCcgCNBT+3aVatWTTZsWC8ZGRnSvHkLMYcRNalDhw7JwoX/lG7drpPq1auH7WotXLhYTjnllLB71RShsTP43HPPyv79+7UHHnrol3uNcBW5o2fc/7dr1y7tvr9Htadcr5TrruseenDAvJtmfAyKUarvv/9efvnL9lH7rijoGZecIx9SMIoRbQdOPeyhXuqBDxUS1eVeY13Rgp6xVuNSsRHkjKBn+Pbu3Ud/GCXaPYHGmo2HQq65pqP+EEfkvYmzZ78sWVlZcuqptfQgbIyh5vzuu+9Kz549ZfPmzWG7js6d8oyMAAIIIIBAcAQcCXrqM+LUAwC1atWSgoIC7UGERfLww2PD1NXDCeqhB/VkrNqlM7+M8BJ5b5pqY+x4qf827usrK+ipn6uHDdQuopqLCj9qF0pdpjSOMYeadevel88//1x/Lzu7byj0xHrp1niYI9q9darvyEuc6kniG28cqI/74osztc/imxriKGtHzxxqjYdDlOPEiZP1hzHUx7uoS+D5+fn6gxnKOZqTUYctW7Zoc+iv7/iZ5/fKK/+UevXq6UFdBcIlS17T+7nppmHaE7hD9RCp+r711ltCD3UE59eLlSKAAAIIIOCsgCNBz9klxz662qFS4Ux9lIrxKu8etdhHsO+IaJdu7RudkRBAAAEEEEDATgGCngXtBx8crV/SvfvuUfLmm2/IgAE3ak+i3qF/3p76DDsvvQh6XqoWc0UAAQQQQCAxAYKeRT91+bR//wH6pUj1VKy6p8+4TGmxC1c0I+i5ogxMAgEEEEAAAVsECHq2MDMIAggggAACCCBgvwBBz35zRkQAAQQQQAABBGwRIOjZwswgCCCAAAIIIICA/QIEPfvNGREBBBBAAAEEELBFgKBnCzODIIAAAggggAAC9gsQ9Ow3Z0QEEEAAAQQQQMAWAYKeLcwMggACCCCAAAII2C9A0LPfnBERQAABBBBAAAFbBAh6tjAzCAIIIIAAAgggYL8AQc9+c0ZEAAEEEEAAAQRsESDo2cLMIAgggAACCCCAgP0CBD37zRkRAQQQQAABBBCwRYCgZwszgyCAAAIIIIAAAvYLEPTsN2dEBBBAAAEEEEDAFgGCni3MDIIAAggggAACCNgvQNCz35wREUAAAQQQQAABWwQIerYwMwgCCCCAAAIIIGC/gKuCXlFRkf0CLh4xLS3NxbNjaggggAACCCDgdgHHg54R7mrUqC5XXNFWMjMz3W5my/w+/XSrbNz4sT4Wgc8WcgZBAAEEEEDAdwKOBj0j5HXv3k1OOqmy73CTsaAPPtggO3Z8QeBLBiZ9IIAAAgggEDABx4KeEfJ69+4ZMPLYl7tr125ZtWoNYS92Oo5AAAEEEEAg0AKOBD1CXuzn3PbtO2T9+g8Je7HTcQQCCCCAAAKBFbA96HG5Nv5zbeHC1yQ/P5979uIn5EgEEEAAAQQCJWBr0DNCXvXq1aVz52sCBZ2sxc6du0APejygkSxR+kEAAQQQQMC/ArYHPRX2unbtzNO1cZ5TRtBThxP24kTkMAQQQAABBAIi4EjQ69Pn+oDwJn+ZmzZtlk8+2cKuXvJp6REBBBBAAAHfCdgW9IzLtoWFRZKdTdCL90w6cOCALF26nKAXLyDHIYAAAgggECABW4OeCnvqT3Z2rwARJ3epym/evH8Q9JLLSm8IIIAAAgj4UoCg58Gy5uYukPT04q9H4z49DxaQKSOAAAIIIGCTgO1BT1267duXHb1E6pubO18LeukEvUQQORYBBBBAAIEACBD0PFhkFfSMj1hhR8+DBWTKCCCAAAII2CRA0LMJOpnDEPSSqUlfCCCAAAII+FeAoOfB2hL0PFg0powAAggggIADAgQ9B9ATHZKgl6ggxyOAAAIIIBAMAYKeB+tM0PNg0ZgyAggggAACDggQ9BxAT3RIgl6ighyPAAIIIIBAMAQIeh6sM0HPg0VjyggggAACCDggQNBzAD3RIQl6iQpyPAIIIIAAAsEQIOh5sM4EPQ8WjSkjgAACCCDggABBzwH0RIck6CUqyPEIIIAAAggEQ4Cg58E6E/Q8WDSmjAACCCCAgAMCBD0H0BMdkqCXqCDHI4AAAgggEAwBXwa9owVFsv3747L7UJFexYYnp8spGelyatU0X1SVoOeLMrIIBBBAAAEEUi7gm6C3eMePsnLXMUtgzU6vLL3Py7DU1o2NCHpurApzQgABBBBAwH0Cng9687bmy/pvCuKSVTt9Q5tmxnWskwcR9JzUZ2wEEEAAAQS8I+DZoKcuz45973BSpB9sWU2qVvbOZV2CXlLKTicIIIAAAgj4XsCTQW/3oUKZ/uGRMovTpFYlOefkSnJW9XS9zXf5hfLBngLZ8UNhmcfc9vPMUHu3V52g5/YKMT8EEEAAAQTcIeC5oFdWyKtaKU3ubpFZ4c7c/qNFMuGD6DuBXtnZI+i545eHWSCAAAIIIOB2Ac8FvftXHiplGs9u3Bs7f5Q3/lv64Y3xl1V3e82EoOf6EjFBBBBAAAEEXCHgqaAXLeQlsgsXbXew2RnaE7nnuvuJXIKeK353mAQCCCCAAAKuF/BM0Fu/95jM++zHMNBEQp7R0ea84/LilqNh/bp9V4+g5/rfKyaIAAIIIICAKwQ8E/Qid/N6n1tFmp1xUlIQ1YMdanfPjlc8l5kj50XQs6NSjIEAAggggID3BTwR9KI9QJHsXbdol4VTVd5Ewx5BL1WVoV8EEEAAAQT8JeCJoDd9w2HZfbj468zU68YLqkqT2pXKrYT6nL2Vu4o/SFndd1fR1589vfFIuR+/kuyyJxL2CHrJrgb9IYAAAggg4E8BTwS9yN22inbzJqw7LPvzTwRDVbqqWi58sFXZT9SW97ErqSp9vGGPoJeqitAvAggggAAC/hLwXdB7ZtMR2f599PvtTs1Ik1EtqjlWwWR9NAxBz7ESMjACCCCAAAKeEvBd0KvoXruKdgNTXb1khD2CXqqrRP8IIIAAAgj4Q8BzQe+cn6TLTRdllqlfUdAb2rSqNNS+Hs3JV6Jhj6DnZPUYGwEEEEAAAe8IBC7oOb2jp06NeVvzZf03xQ+KmF9W50bQ884vGDNFAAEEEEDASQHPBT2FVV4gqmhHz2qYirUo6infXdpn8VW0W5hoyFPzIujFWh3aI4AAAgggEEwB3wU9FbjGvnc4ajUresr1jZ2lv/vW6OiyupWlauW0qP2q4974b/G3djQ8OV2GNo1+aTnyY2KMzmINnwS9YP6ysmoEEEAAAQRiFfBd0FMA0cLeqObVyv0svZW7jsniHeFfsRaJGS0ojl1zSI4eL80eGd6itataKU37yJfYnwIm6MV6mtMeAQQQQACBYAp4IuhFhrDyds3iLWNFl3yNfn/5f1Xkl1knaR/hclye2RT+HbllBcNoIe+UKmly9y9iD3lqDIJevFXmOAQQQAABBIIl4Imgp0oS64cmx1JGK6Etlv4qantW9XRRu4Pxvgh68cpxHAIIIIAAAsES8EzQe+z9w/Ldjye+7aKib7qIpYyRITLyI1is7Pb1PreKnJKRXuEun/o6tt7nZsQyvVJtCXoJ8XEwAggggAACgRHwTNCLtqt3VrU0ue2S+C5/GhWOdlk12sMRY9cc1u7FC/9aNaOPyPZlBcMu51SRy+qelPDJRdBLmJAOEEAAAQQQCISAp4LeGzt/1J5uDX8yNpGwFy2QlffQxrzPtM+/23vi8+/K+/DmyLZqx6/ZGYmHPHVWEvQC8bvJIhFAAAEEEEhYwFNBT612+odHZLf2eXWRrwdbVivz408i25Z1T16TWpXkxsZVy0VVY6s5VPRRLaqT/UeLZMIHhy21jaWSBL1YtGiLAAIIIIBAcAU8F/RUqcq6jHpqRpqoy6NNaleOWtHNeQXy4pb8qO8l+oCEnacQQc9ObcZCAAEEEEDAuwKeDHrl7ezFUwovhTy1PoJePFXmGAQQQAABBIIn4Nmgp0q1Oe+4tkNX/mfZVVTSNmdVlq4NE3sKtqIxkv0+QS/ZovSHAAIIIICAPwU8HfSMkkQ++GClVIl8YLGV/lPZhqCXSl36RgABBBBAwD8Cvgh6RjnUgxLqydzN+6J8J5nWSD0le1lddQ9fJU9XkKDn6fIxeQQQQAABBGwT8FXQs03N4YEIeg4XgOERQAABBBDwiABBzyOFMk+ToOfBojFlBBBAAAEEHBAg6DmAnuiQBL1EBTkeAQQQQACBYAgQ9DxYZ4KeB4vGlBFAAAEEEHBAgKDnAHqiQxL0EhXkeAQQQAABBIIhQNDzYJ0Jeh4sGlNGAAEEEEDAAQGCngPoiQ5J0EtUkOMRQAABBBAIhgBBz4N1Juh5sGhMGQEEEEAAAQcECHoOoCc6JEEvUUGORwABBBBAIBgCBD0P1pmg58GiMWUEEEAAAQQcECDoOYCe6JAEvUQFOR4BBBBAAIFgCBD0PFhngp4Hi8aUEUAAAQQQcECAoOcAeqJDEvQSFeR4BBBAAAEEgiFA0PNgnQl6HiwaU0YAAQQQQMABAYKeA+iJDknQS1SQ4xFAAAEEEAiGAEHPY3U+dqxA/vGPVyUtLS30x2NLYLoIIIAAAgggYJMAQc8m6GQN89VXu2XlylWSnp6ud6kCHy8EEEAAAQQQQCCagO1Br6ioSLKze1GNOAXefPNt+fbbPC3oFQc8gl6ckByGAAIIIIBAAAQcCXoXX3yRnH/+eQHgTf4S58yZp+/mGQGPoJd8Y3pEAAEEEEDALwKOBD21q9e3b2+/GNq2jm3btsu6dRv03TzjHj3bBmcgBBBAAAEEEPCcgK1BT+mokFdYWCgNG54jv/hFc8+BOTnh2bPVbt6JkMdunpPVYGwEEEAAAQTcL2Bb0DNCngp6xWGvSNq2vUzOPvss9yu5YIazZ8/Vd/G4bOuCYjAFBBBAAAEEPCJge9A7saunAl+hvqvXqFFDj3A5M82XX55baieP3TxnasGoCCCAAAIIeEnA1qAXuatn7O5lZFSVnj27ecnNlrmqe/LWrv2gZCcv/L48gp4tJWAQBBBAAAEEPC3gSNCLHvj0n0rTphdKgwZZUqNGjcB9dIj6MOS9e7+RLVs+1f7eG/ahyOaHLwh5nv6dY/IIIIAAAgjYJmB70DNC3omwVxzwjN294p8X/yyIrxMhTu3gFX9OHiEviGcCa0YAAQQQQCBxAUeCXmTYi/Zv89KKg58/X9G/2OJEyFOr5jPz/Fl7VoUAAggggECqBRwLesbC1E6eOegV/7f+f1O9dhf2XxzwjJf5Ei2Xa11YLqaEAAIIIICAywUcD3qRIc/sZYRAlxsmZXplBTkCXlJ46QQBBBBAAIFACrgi6EXKByngRTvrCHeB/F1k0QgggAACCCRdwJVBL+mrpEMEEEAAAQQQQCCAAgS9ABadJSOAAAIIIIBAMAQIesGoM6tEAAEEEEAAgQAKEPQCWHSWjAACCCCAAALBECDoBaPOrBIBBBBAAAEEAihA0Atg0VkyAggggAACCARDgKAXjDqzSgQQQAABBBAIoABBL4BFZ8kIIIAAAgggEAyBwAS9ESNul23btsmiRQtjruyaNWulVatLYz6OAxBAAAEEEEAAAScFCHpO6jM2AggggAACCCCQQoFAB70VK1bK888/J2eddZa0bt1Grr22k6if3XbbrdKu3RVSq1YtGTNmtCikFi2a6X/v25cnY8eOlcmTp8ill7ZIYWnoGgEEEEAAAQQQSEwg0EFv1qyXpX//G3TBZcuWS8eOHUKhTv3s1VcXSvfu3cKCngp86pXIpeDESsbRCCCAAAIIIICANYFAB70JEybJqFF36lIzZ74kAwcOkN69+8i9994nR44ckbZtL9PfM+/oEfSsnVi0QgABBBBAAAHnBQId9NauXRe6/GqEOWNnz1wagp7zJyozQAABBBBAAIHYBQIV9AYOHBQSUjtzDRo0kNmzc6WwsFB69uwue/bskVWr1siCBfP1dtnZffUgSNCL/cTiCAQQQAABBBBwXiAwQc8KdceOneSCCy6QqVMf15svWPAPuf76nlYOpQ0CCCCAAAIIIOA6AYJeRElefHGWHvbUPXrjx4+TJUtec13RmBACCCCAAAIIIGBFgKBnRYk2CCCAAAIIIICABwUIeh4sGlNGAAEEEEAAAQSsCBD0rCjRBgEEEEAAAQQQ8KAAQc+DRWPKCCCAAAIIIICAFQGCnhUl2iCAAAIIIIAAAh4UIOh5sGhMGQEEEEAAAQQQsCJA0LOiRBsEEEAAAQQQQMCDAgQ9DxaNKSOAAAIIIIAAAlYECHpWlGiDAAIIIIAAAgh4UICg58GiMWUEEEAAAQQQQMCKAEHPihJtEEAAAQQQQAABDwoQ9DxYNKaMAAIIIIAAAghYESDoWVGiDQIIIIAAAggg4EEBgp4Hi8aUEUAAAQQQQAABKwIEPStKtEEAAQQQQAABBDwoQNDzYNGYMgIIIIAAAgggYEWAoGdFiTYIIIAAAggggIAHBQh6HiwaU0YAAQQQQAABBKwIEPSsKNEGAQQQQAABBBDwoABBz4NFY8oIIIAAAggggIAVAYKeFSXaIIAAAggggAACHhQg6HmwaEwZAQQQQAABBBCwIkDQs6JEGwQQQAABBBBAwIMCBD0PFo0pI4AAAggggAACVgQIelaUaIMAAggggAACCHhQgKDnwaIxZQQQQAABBBBAwIoAQc+KEm0QQAABBBBAAAEPChD0PFg0powAAggggAACCFgRIOhZUaINAggggAACCCDgQQGCngeLxpQRQAABBBBAAAErAgQ9K0q0QQABBBBAAAEEPChA0PNg0ZgyAggggAACCCBgRYCgZ0WJNggggAACCCCAgAcFCHoeLBpTRgABBBBAAAEErAgQ9Kwo0QYBBBBAAAEEEPCgAEHPg0VjyggggAACCCCAgBUBgp4VJdoggAACCCCAAAIeFCDoebBoTBkBBBBAAAEEELAiQNCzokQbBBBAAAEEEEDAgwIEPQ8WjSkjgAACCCCAAAJWBAh6VpRogwACCCCAAAIIeFCAoOfBojFlBBBAAAEEEEDAigBBz4oSbRBAAAEEEEAAAQ8KEPQ8WDSmjAACCCCAAAIIWBEg6FlRog0CCCCAAAIIIOBBAYKeB4vGlBFAAAEEEEAAASsCBD0rSrRBAAEEEEAAAQQ8KEDQ82DRmDICCCCAAAIIIGBFgKBnRYk2CCCAAAIIIICABwUIeh4sGlNGAAEEEEAAAQSsCBD0rCjRBgEEEEAAAQQQ8KAAQc+DRWPKCCCAAAIIIICAFQGCnhUl2iCAAAIIIIAAAh4UIOh5sGhMGQEEEEAAAQQQsCJA0LOiRBsEEEAAAQQQQMCDAgQ9DxaNKSOAAAIIIIAAAlYECHpWlGiDAAIIIIAAAgh4UICg58GiMWUEEEAAAQQQQMCKAEHPihJtEEAAAQQQQAABDwoQ9DxYNKaMAAIIIIAAAghYESDoWVGiDQIIIIAAAggg4EEBgp4Hi8aUEUAAAQQQQAABKwJhQa9Ie1k5iDYIIIAAAggggAAC3hJII+h5q2DMFgEEEEAAAQQQsCrw/7tyvbN6LJlIAAAAAElFTkSuQmCC;" vertex="1" parent="1">
          <mxGeometry x="-10" y="160" width="337.55" height="230" as="geometry" />
        </mxCell>
        <mxCell id="QaJkn2_FKrZJyJ2E_iRm-3" value="" style="shape=image;verticalLabelPosition=bottom;labelBackgroundColor=default;verticalAlign=top;aspect=fixed;imageAspect=0;image=data:image/png,iVBORw0KGgoAAAANSUhEUgAAAngAAAGtCAYAAACFjAk7AAAgAElEQVR4Xu3de4DVc/7H8VcXXSRyqchubq0QISOSJKqJRFG5prVsUtYtQrRFrlmtXNPan0srSqFNGKWLqNSYKKlIqzbZWtRWVHT5fc6ZOdOZ6czM98yc7/fz+Z7zPP/8NPP5fj7vz+P9nZ3X73POmVNpp3mIBwIIIIAAAggggEDaCFQi4KVNL9kIAggggAACCCAQFSDgcSMggAACCCCAAAJpJhANeIcc0jDNtsV2EEAAAQQQQACBzBUg4GVu79k5AggggAACCKSpAAEvTRvLthBAAAEEEEAgcwUIeJnbe3aOAAIIIIAAAmkqQMBL08ayLQQQQAABBBDIXAFPAe/dd9/V0UcfU6rShg0bdNxxx2auJDtHAAEEEEAAAQQcEfAU8FasWOmpXN6N64mJQQgggAACCCCAgK8CpQa82MldLLgVD3qRr3fr1k1/+cuj0SJLCngjc1cqu+5/zfdPKrKZyHwLRzbUefcXfLlBR309+xlVLTJqu7nuMKnBpVox++Gi31n6og5vP9BXICZHAAEEEEAAAQTCJlBqwIsFutICXmTDxccVR/AW8BqYeeZI239Ui8NP0OqCSe65qasGPTZOY79cqVOqx4XEBsepoxZqUmxg2OSpFwEEEEAAAQQyWmDMmLGl7r9fv1u0atWqchk5E/C6jvxEj2bX1fnmVPCzBFt5y5z2Hbc1V4cceWG5NspFCCCAAAIIIIBApgg4E/B2O6Er1oEGl4zU7Ic7SNv+p9s6Z2vsQo7uMuUmZZ8IIIAAAgiko8CYMWPKOMHrF/4TvOgJnXnK9ZBDOpa82SO6aMF7w7VP9EV629T9kMP1cTp2nD0hgAACCCCAAAIVEHDmBO/pj1eq44EFb6goa0MNztDy2f9Qla0fm6dsu5U1mu8jgAACCCCAAAIZJZBUwIv/e3hz5szRxRd3j2KV9SaLq0ct0p/PqF30XbYNbjbvir1Z43s21C3TzSR/ek0rbj1FObefql6vlv3067CZK3VRw93fmZtR3WOzCCCAAAIIIBBaAetvsrj11n567bXXSgSMBLzFi79Qhw7mNXIJH8ebEDjRfGeb5s+ZIlU/Qiee+Dvzjtn/6JDDmxde8dZi8zTtntLWNV/p3bcXqeHpzXVinQU6JKtXNERuWv2VPvpgpuqd1FEn/q6+/jPpFp3SZ1xoG0vhCCCAAAIIIICAHwKeTvDKWtjbHzhuoJGTXlf2sQ1MzvtZ08c/qp79/7bb1J3vHKn7r2qnvapX0c8bvtfkZwbqhqcnqbv5+sAr2mjvvapr66YNev6eS/Xg2IVllcb3EUAAAQQQQACBjBMoNeDNmjVbBx98cKkopZ/cZZwnG0YAAQQQQAABBKwLePqoMutVUgACCCCAAAIIIICAZwECnmcqBiKAAAIIIIAAAuEQIOCFo09UiQACCCCAAAIIeBYg4HmmYiACCCCAAAIIIBAOAQJeOPpElQgggAACCCCAgGcBAp5nKgYigAACCCCAAALhECDghaNPVIkAAggggAACCHgWIOB5pmIgAggggAACCCAQDgECXjj6RJUIIIAAAggggIBngWjAy8pq5vkCBiKAAAIIIIAAAgi4LUDAc7s/VIcAAggggAACCCQtQMBLmowLEEAAAQQQQAABtwUIeG73h+oQQAABBBBAAIGkBQh4SZNxAQIIIIAAAggg4LYAAc/t/lAdAggggAACCCCQtAABL2kyLkAAAQQQQAABBNwWIOC53R+qQwABBBBAAAEEkhYg4CVNxgUIIIAAAggggIDbAgQ8t/tDdQgggAACCCCAQNICBLykybgAAQQQQAABBBBwW4CA53Z/qA4BBBBAAAEEEEhagICXNBkXIIAAAggggAACbgsQ8NzuD9UhgAACCCCAAAJJCxDwkibjAgQQQAABBBBAwG0BAp7b/aE6BBBAAAEEEEAgaQECXtJkXIAAAggggAACCLgtQMBzuz9UhwACCCCAAAIIJC1AwEuajAsQQAABBBBAAAG3BQh4bveH6hBAAAEEEEAAgaQFCHhJk3EBAggggAACCCDgtgABz+3+UB0CCCCAAAIIIJC0AAEvaTIuQAABBBBAAAEE3BYg4LndH6pDAAEEEEAAAQSSFiDgJU3GBQgggAACCCCAgNsCBDy3+0N1CCCAAAIIIIBA0gIEvKTJuAABBBBAAAEEEHBbgIDndn+oDgEEEEAAAQQQSFqAgJc0GRcggAACCCCAAAJuCxDw3O4P1SGAAAIIIIAAAkkLEPCSJuMCBBBAAAEEEEDAbQECntv9oToEEEAAAQQQQCBpAQJe0mRcgAACCCCAAAIIuC1AwHO7P1SHAAIIIIAAAggkLUDAS5qMCxBAAAEEEEAAAbcFCHhu94fqEAi5QCfl5t6jaYOb6ba3UreV3Nw8afFLyurxWOomDWCmSN2LRzVTj+HSjaPy1ONoKSurWQArswQCCGSaAAEv0zrOfhEIVMCfgOfXFgaMzVPrFYOUfdtEX5Yg4PnCyqQIIJBAgIDHbYEAAj4KlB7wDj2jl0bef432q1lVq3LfVOfe9xbWUv/USzTq4Zu0X61qcfUtNidel5tTwTz9MC0/iJ33yGQNPvlLdbzjE40d1ke1qm7Tu8/crLufn51wX+dfc79u7nG2apt5f1w1Tz06X6s1ZuRV941W3w5HFV4TO2mLnySy7jBz4nbMP95Rh6Pq66c1S9S942XR6yOP+AAX+Xe0tjb7F57SEfB8vNWYGgEEiggQ8LghEEDAR4GSA179y57SpFta6Mcl0/Tep1vU/ZJzVHnHt8pq3snU08aEpUe1eHRf9Rg2W2Nm5ukI5Smr1TWFQapIwDMhSjt+0qtj/6lGZ3ZW1oE1NfbKZhr6xe5bmzB3rr587XFNmL1ZDz52l2ruWGbW7K5TTm+lpx4brh9nP6F7xyzTplUz9ek3Ra+PPjVsHqtz39EHy6RLTM0quJ6A5+NtxNQIIJC0AAEvaTIuQAAB7wIlB7wJJiwdvGm2ss7smz9d/WuVO+lajerYTMNPflS5g9vsen3ajS8r17xgLfZ6td1O8EzAu9KcrMXyXOT73076ky4Y9FGppSY6YYsFx0QXRgPe8vHK6n5/9Nudh03R3Wfsl/CELvJ9TvC83ymMRACB1AoQ8FLryWwIIFBEoOSAFx/SYpfsegoz/wRv7lN91cc81TrKnOAdXcYJXvybFRLNnR8iu2jupIGqbP5zxy8/abNqqla1ygmDY0kBLz4AlhbgCHj8KCCAgE0BAp5NfdZGIO0FSg54c81pWOUi74RtYkLdKM0Z1kzXj5YOvXC4xg1oFRVateAddf7DXYVaiU7wvAS8kbPy1KzadybQdYzOVZ4TvGQCXvF3yvIavLS/4dkgAs4IEPCcaQWFIJCOAiUHvP5jctX9CKljVlb0TQqdH3lXd7epV/hUayQMjb/lQj34wTe7wZQ34I0ycx6t5SbgdY3O+fbcPNUzx3nxT/3uMKGzeQl/fqX4yWCigLjDPIXbvOAp3FlmvchbROLn58+kpON9zp4QcE+AgOdeT6gIgTQSyA94xR+xwDPFBKw6kedLCx55I69Rr5H5b2ToP2qauh+9T5FLp5i/p3eH+Xt65Q149a9+VpOuO7lwzkmPv6mON5g3ZRT8Lbq+L3ykq46tGf1+otfilRXwrh4xU9dl1do1/4S56nhBcwJeGt3RbAWBsAgQ8MLSKepEIIMERpjX3DX7btdJWGTrT0/PU/Ot05SV3S+DJNgqAgggUD4BAl753LgKAQR8FMgxT23+8m4/dbp7WuEqka/Vzntap/V6zseVmRoBBBBIDwECXnr0kV0gkFYCzW58SSN7HFt0T5tXmr+D1zmt9slmEEAAAb8ECHh+yTIvAggggAACCCBgSYCAZwmeZRFAAAEEEEAAAb8ECHh+yTIvAggggAACCCBgSYCAZwmeZRFAAAEEEEAAAb8ECHh+yTIvAggggAACCCBgSYCAZwmeZRFAAAEEEEAAAb8ECHh+yTIvAggggAACCCBgSYCAZwmeZRFAAAEEEEAAAb8ECHh+yTIvAggggAACCCBgSYCAZwmeZRFAAAEEEEAAAb8ECHh+yTIvAggggAACCCBgSYCAZwmeZRFAAAEEEEAAAb8ECHh+yTIvAggggAACCCBgSYCAZwmeZRFAAAEEEEAAAb8ECHh+yTIvAggggAACCCBgSYCAZwmeZRFAAAEEEEAAAb8ECHh+yTIvAggggAACCCBgSYCAZwmeZRFAAAEEEEAAAb8ECHh+yTIvAggggAACCCBgSYCAZwmeZRFAAAEEEEAAAb8ECHh+yTIvAggggAACCCBgSYCAZwmeZRFAAAEEEEAAAb8ECHh+yTIvAggggAACCCBgSYCAZwmeZRFAAAEEEEAAAb8ECHh+yTIvAggggAACCCBgSYCAZwmeZRFAAAEEEEAAAb8ECHh+yTIvAggggAACCCBgSYCAZwmeZd0T+OGHH7Vjxw73CqMiBBBISqBWrVrac8+aSV3DYATSTYCAl24dZT9JC/zyy6/63//+l/R1XIAAAu4KVKpUSQccsL+7BVIZAj4LEPB8BmZ69wX++9/v3S+SChFAIGmBPfaoqjp16iR9HRcgkA4CBLx06CJ7KLcAT8uWm44LEQiFQN26B4SiTopEINUCBLxUizJfqAQ4vQtVuygWgaQFatSortq1ayd9HRcgEHYBAl7YO0j9FRIg4FWIj4sRcF6A1+I53yIK9EmAgOcTLNOGQ4CAF44+USUCFRHgadqK6HFtWAUIeGHtHHWnRICAlxJGJkHAaQECntPtoTifBAh4PsEybTgECHjh6BNVIlARAQJeRfS4NqwCBLywdo66UyJAwEsJI5Mg4LQAAc/p9lCcTwIEPJ9gmTYcAgS8cPSJKhGoiAABryJ6XBtWAQJeWDtH3SkRIOClhJFJEHBagIDndHsozicBAp5PsEwbDgECXjj6RJUIVESAgFcRPa4NqwABL6ydo+6UCBDwUsLIJAg4LUDAc7o9FOeTAAHPJ1imDYcAAS8cfaJKBCoiQMCriB7XhlWAgBfWzlF3SgQIeClhZBIEnBYg4DndHorzSYCA5xMs04ZDgIAXjj5RJQIVESDgVUSPa8MqQMALa+eoOyUCBLyUMDIJAk4LEPCcbg/F+SRAwPMJlmnDIUDAC0efqBKBiggQ8Cqix7VhFSDghbVz1J0SAQJeShiZBAGnBQh4TreH4nwSIOD5BMu04RAg4IWjT1SJQEUECHgV0ePasAoQ8MLaOepOiQABLyWMTIKA0wIEPKfbQ3E+CRDwfIJl2nAIEPDC0SeqRKAiAgS8iuhxbVgFCHhh7Rx1p0SAgJcSRiZBwGkBAp7T7aE4nwQIeD7BMm04BAh44egTVSJQEQECXkX0uDasAgS8sHaOulMiQMBLCSOTIOC0AAHP6fZQnE8CBDyfYJk2HAIEvHD0iSoRqIgAAa8ielwbVgECXlg7R90pESDgpYSRSRBwWoCA53R7KM4nAQKeT7BMGw4BAl44+kSVCFREgIBXET2uDasAAS+snaPulAgQ8FLCyCQIOC1AwHO6PRTnkwABzydYpg2HAAEvHH0qqcraB1ZWx8F7SpUqWdnIju3S2D4brazNot4FCHjerRiZPgIEvPTpJTsphwABrxxojlzS7fG9VKW6nWBXnOCH5ds1+eGfHZGhjOICBDzuiUwUIOBlYtfZc6EAAS+cN0P3p/ZS5apuhLuY4Jb/7dCb/X8KJ2iaV03AS/MGs72EAgQ8boyMFiDgha/95z1QS3vtX9nJwueN2qKvP/zVydoyuSgCXiZ3P3P3TsDL3N6zcyNAwAvfbXDJs7WdLvrVa3lNnmsNIuC51hHqCUKAgBeEMms4K0DAc7Y1CQtrc/Oeqn9UFaeLnnDHJm1et9PpGjOtOAJepnWc/UYECHjcBxktQMALV/tdP72LaG74z3a9PYg3XLh0ZxHwXOoGtQQlQMALSpp1nBQg4DnZlhKLCkPA40+nuHdPEfDc6wkV+S9AwPPfmBUcFiDgOdycgtJa9qqh3560h/uFxlXI6/DcahcBz61+UE0wAgS8YJxZxVEBAp6jjTFldRhYU3V+U9XdAkupjIDnVtsIeG71g2qCESDgBePMKo4KEPDcbEy3J8wfMa7m1t+5S0aKgJeMlv9jCXj+G7OCewIEPPd6QkUBChDwAsT2uNSFj+2lajXDG+4i2yTgeWx2QMMIeAFBs4xTAgQ8p9pBMUELEPCCFi99veq1d6rLX/Z2q6hyVEPAKweaj5cQ8HzEZWpnBQh4zraGwoIQIOAFoex9je7P1FblgD6kYt+aB0cLW7f5W08F1qy6t2rsUVsbt36vbTu2lnoNAc8TaWCDCHiBUbOQQwIEPIeaQSnBCxDwgjcvbcXifwbl4Q6LCoff/m6TEi/1Ou6mluN1UO2jEs7zybdvauzCu3b73j1t56hG1cSfnlHSNQQ8t+4rAp5b/aCaYAQIeME4s4qjAgQ8txrjZ8CLD4El7To+REZO7Aa3nV0mUKLgScArky3QAQS8QLlZzBEBAp4jjaAMOwIEPDvuJa3qV8ArHu6+WDtVi9ZM1b41G+j0Q680J3R7acqypzV52VOFpSW6ZvWGJWqw91E6pt5Z0XFbtm3SoCmn7LYdAp5b9xUBz61+UE0wAgS8YJxZxVEBAp5bjfEj4F3b/AUdvt/JhRst7ane2KAm9c/WlSc+XuY1kdfxJXoNHwHPrfuKgOdWP6gmGAECXjDOrOKoAAHPrcb4EfDiT+IGT2mhzds2lLnp3qe8qMP2zYqOe2n+Dea07/0yr4kfQMBLisv3wQQ834lZwEEBAp6DTaGk4AQIeMFZe1kp1QHv/KPvVMtDroguvX7Ld3pwelsvZcjrmzZKmoyA54k5sEEEvMCoWcghAQKeQ82glOAFCHjBm5e2YqoDXnxQG/7RRVq9cYmnDd/U8nXzbtvG0bEPzWjv+U+pxCYn4HliDmwQAS8wahZySICA51AzKCV4AQJe8Oa2Ap6X197Faos/+Vv+4zw9O/f3SUER8JLi8n0wAc93YhZwUICA52BTKCk4AQJecNZeVvLzBC+ZgBepNf7078MVozRx8UNethAdQ8DzTBXIQAJeIMws4pgAAc+xhlBOsAIEvGC9y1rNpYDXs9kThX8OJVb3yLlX6esf55a1DQJemULBDiDgBevNam4IEPDc6ANVWBIg4FmCL2HZVAa8mnvso8FnzypcKdkTvMiF8e+mjS+5rHfjcoLn1n1FwHOrH1QTjAABLxhnVnFUgIDnVmNcC3gRncjfuruj9Xu7QUX+KHLkjyMnehDw3LqvCHhu9YNqghEg4AXjzCqOChDw3GpMKgNelUp76IHsTyt0ghevkyjolfQ38gh4bt1XBDy3+kE1wQgQ8IJxZhVHBQh4bjUmlQEvsrOK/j27RDrdj3tAJx18QanBkYDn1n1FwHOrH1QTjAABLxhnVnFUgIDnVmPCEPCKB8dEf1+PgOfWfUXAc6sfVBOMAAEvGGdWcVSAgOdWY/wMeGW9MSIZiXaN+qptoz7RSyKvw4u8Hi/+QcBLRtP/sQQ8/41ZwT0BAp57PaGiAAUIeAFie1iqeMCLfxdraX+ipKSnYuP/1El5/mBxSSXHB7wv1k7Vi3l/IuB56K+tIQQ8W/Ksa1OAgGdTn7WtCxDwrLegSAHFA97ph16pTkfdHh2TKEhFvl78zQ/xfw6lZtW9Nbjt7MI1yvOnUhIJxQdPTvDcuocSVUPAc79HVJh6AQJe6k2ZMUQCBDy3mlU84EWqK+uNEve0naMaVWtHN/LJtxM0duGAIpuKv37Lto0aNOXUMjcdCY3rNn9b4riyauIp2jKJAx1AwAuUm8UcESDgOdIIyrAjQMCz417SqokC3j1tPzYBbq/CS+Lf1HBTy/E6qPZRpZ7QFT/Fiwx+yTylusg8tRp5NDDXd296v7Zs26QRH/eMfi0W4CKvrYuExljYa1LvLF1pPuEi/lH8VHDnzp0a03uTW7AZXg0BL8NvgAzdPgEvQxvPtvMFCHhu3QmJAl584Cqt2kSnd7HxWQd3Ubfj7it1s/9al7tbwCtLJ9FTvps37tCEW38q61K+H6AAAS9AbJZyRoCA50wrKMSGAAHPhnrJa5YU8BKdwsXPUlq4i40r6RMpYt9PNuCV9Hq+2c9v0Yo5v7oFm+HVEPAy/AbI0O0T8DK08WybEzwX74GSAl58SIu8g3W/PQ+OfunzNe/rw29eSmorkadk2/2ur2rusXf0uq9/mGvmGKXN2zbsNk/kTR7H1j87+vXI6/wiT9X+c/FDpb4+j9ffJdWOQAYT8AJhZhHHBAh4jjWEcoIV4AQvWO+yVisr4JV1ve3vr5i3TbOf22y7DNYvJkDA45bIRAECXiZ2nT0XChDw3LoZwhzwdmyXxvbZ6BYo1UQFCHjcCJkoQMDLxK6zZwKeo/dAWAPeti07NO5G3ljh6G1FwHO1MdTlqwABz1deJnddgBM8tzoUxoCX8+BPWvfNDrcgqaaIACd43BCZKEDAy8Sus2dO8By9B8IQ8L79bLsW/nOz1q/a6agiZRUXIOBxT2SiAAEvE7vOngl4jt4DYQh47w752YQ784I7HqERIOCFplUUmkIBAl4KMZkqfAI8RetWz8IQ8PgzKG7dM16qIeB5UWJMugkQ8NKto+wnKQECXlJcvg/uOry2qtbwfZkKLUDAqxCflYsJeFbYWdSyAAHPcgNY3q4AAc+uf6LVXT7Fe+uujdr0vXtmVFS6AAGPOyQTBQh4mdh19lwoQMBz72Zo1r2Gjjx7D+cK+2ndTk28Y5NzdVFQ2QIEvLKNGJF+AgS89OspO0pCgICXBFaAQ9v231MHHFElwBVLX+qXn3bq9VsId840JMlCCHhJgjE8LQQIeGnRRjZRXgECXnnl/L+u3u+q6Kxb9/R/oTJWmDdqi77+8FfrdVBA+QUIeOW348rwChDwwts7Kk+BAAEvBYgBTNHujj2172+rqHJV/xfbaf4Cyvpvd2j645u0dWMl/xdkBd8FCHi+E7OAgwIEPAebQknBCRDwgrNmJQRsCRDwbMmzrk0BAp5Nfda2LkDAs94CCkDAdwECnu/ELOCgAAHPwaZQUnACBLzgrFkJAVsCBDxb8qxrU4CAZ1Ofta0LEPCst4ACEPBdgIDnOzELOChAwHOwKZQUnAABLzhrVkLAlgABz5Y869oUIODZ1Gdt6wIEPOstoAAEfBcg4PlOzAIOChDwHGwKJQUnQMALzpqVELAlQMCzJc+6NgUIeDb1Wdu6AAHPegsoAAHfBQh4vhOzgIMCBDwHm0JJwQkQ8IKzZiUEbAkQ8GzJs65NAQKeTX3Wti5AwLPeAgpAwHcBAp7vxCzgoAABz8GmUFJwAgS84KxZCQFbAgQ8W/Ksa1OAgGdTn7WtCxDwrLeAAhDwXYCA5zsxCzgoQMBzsCmUFJwAAS84a1ZCwJYAAc+WPOvaFCDg2dRnbesCBDzrLaAABHwXIOD5TswCDgoQ8BxsCiUFJ0DAC86alRCwJUDAsyXPujYFCHg29VnbugABz3oLKAAB3wUIeL4Ts4CDAgQ8B5tCScEJEPCCs2YlBGwJEPBsybOuTQECnk191rYuQMCz3gIKQMB3AQKe78Qs4KAAAc/BplBScAIEvOCsWQkBWwIEPFvyrGtTgIBnU5+1rQsQ8Ky3gAIQ8F2AgOc7MQs4KEDAc7AplBScAAEvOGtWQsCWAAHPljzr2hQg4NnUZ23rAgQ86y2gAAR8FyDg+U7MAg4KEPAcbAolBSdAwAvOmpUQsCVAwLMlz7o2BQh4NvVZ27oAAc96CygAAd8FCHi+E7OAgwIEPAebQknBCRDwgrNmJQRsCRDwbMmzrk0BAp5Nfda2LkDAs94CCkDAdwECnu/ELOCgAAHPwaZQUnACBLzgrFkJAVsCBDxb8qxrU4CAZ1Ofta0LEPCst4ACEPBdgIDnOzELOChAwHOwKZQUnAABLzhrVkLAlgABz5Y869oUIODZ1Gdt6wIEPOstoAAEfBcg4PlOzAIOChDwHGwKJQUn4DXgtW59utavX6/Vq/8TXHGshAACuwlUqlRJbdqcoTFjxnvWIeB5pmJgGgkQ8NKomWwleQGvAe/4448l3CXPyxUI+CZwxhktNX78BE/zE/A8MTEozQQIeGnWULaTnIDXgMcviORcGY2A3wIXXdRZI0Y852kZfn49MTEozQQIeGnWULaTnAABLzkvRiPgigABz5VOUIerAgQ8VztDXYEIEPACYWYRBFIuQMBLOSkTppkAAS/NGsp2khMg4CXnxWgEXBEg4LnSCepwVYCA52pnqCsQgVQHvK4DhmrcA/2jtcf/dyCbYREEMkiAgJdBzWar5RIg4JWLjYvSRcD/gDdCXQ9frnHL88V6Dx2qEf37a8DQ3nqg/3saOrS9+vcfocO7DtDB4x7QzMO7qqvGmfGHm9HLC0Pi0KEDzLgHzHVDzXX9477eO3r90N6t1H/EzHRpC/tAoEwBAl6ZRAzIcAECXobfAJm+ff8DnjnNa9VbQzspP4iZgBZ7RP4dC3+RgLfcBDzpcPVutVwjZrYyY81F5tHfBLpYgOttgt4IE/Tyx79qxvQumG59NADyQCBTBAh4mdJp9lleAQJeeeW4Li0EUh3wImGu1cwRipylDR3QVf0fGFfg1EqtzFebFJzg5X/x8BIDnjrlB7nYiV/igPdANOBFgiIPBDJNgICXaR1nv8kKEPCSFWN8WgmkPOCllQ6bQcBdAQKeu72hMjcECHhu9IEqLAkQ8CzBsywCFRQg4FUQkMvTXoCAl/YtZoOlCRDwuD8QCKcAAS+cfaPq4AQIeMFZs5KDAqkOeLm5ecrKaubgTikJgfQSIOClVz/ZTeoFCHipN2XGEAkQ8ELULEpFIE6AgMftgEDpAgQ87pCMFiDgZXT72XyIBQh4IW4epQciQMALhJlFXBUg4LnaGepCoHQBAh53CIKJqCcAACAASURBVAKc4HEPIFCiAAGPmwOBcAoQ8MLZN6oOToATvOCsWclBAQKeg02hJAQ8CBDwPCAxJKMFCHgZ3X42T8DjHkAgnAIEvHD2jaqDEyDgBWfNSg4KEPAcbAolIeBBgIDnAYkhGS1AwMvo9rN5Ah73AALhFCDghbNvVB2cAAEvOGtWclCAgOdgUygJAQ8CBDwPSAzJaAECXka3n80T8LgHEAinAAEvnH2j6uAECHjBWbOSgwIEPAebQkkIeBAg4HlAYkhGCxDwMrr9bJ6Axz2AQDgFCHjh7BtVBydAwAvOmpUcFEh1wHNwi5SEQFoKEPDSsq1sKoUCBLwUYjJV+AQIeOHrGRUjEBEg4HEfIFC6AAGPOySjBbwGvHr16mrnzp0ZbcXmEXBJgIDnUjeoxUUBAp6LXaGmwAS8BryLL75IU6fOCKwuFkIAgZIFKlWqpP3331+LFy/xxFS37gGexjEIgXQSIOClUzfZS9ICXgNe/lNCF6hu3bpJr8EFCCCQWoEZMz70HO4iKxPwUuvPbOEQIOCFo09U6ZNAMgHPpxKYFgEEfBYg4PkMzPROChDwnGwLRQUlQMALSpp1ELAnQMCzZ8/K9gQIePbsWdkBAQKeA02gBAR8FiDg+QzM9E4KEPCcbAtFBSVAwAtKmnUQsCdAwLNnz8r2BAh49uxZ2QEBAp4DTaAEBHwWIOD5DMz0TgoQ8JxsC0UFJUDAC0qadRCwJ0DAs2fPyvYECHj27FnZAQECngNNoAQEfBYg4PkMzPROChDwnGwLRQUlQMALSpp1ELAnQMCzZ8/K9gQIePbsWdkBAQKeA02gBAR8FiDg+QzM9E4KEPCcbAtFBSVAwAtKmnUQsCdAwLNnz8r2BAh49uxZ2QEBrwFvr71qqWbNmg5UTAkIIBAR8PqzGxlLwOOeyUQBAl4mdp09Fwp4/SXBLwhuGgTcEvj111+1fv3/PBXFz68nJgalmQABL80aynaSEyDgJefFaARcEuDn16VuUItrAgQ81zpCPYEK8AsiUG4WQyClAvz8ppSTydJMgICXZg1lO8kJ8AsiOS9GI+CSAD+/LnWDWlwTIOC51hHqCVSAXxCBcrMYAikV4Oc3pZxMlmYCBLw0ayjbSU6AXxDJeTEaAZcE+Pl1qRvU4poAAc+1jlBPoAL8ggiUm8UQSKkAP78p5WSyNBMg4KVZQ9lOcgL8gkjOi9EIuCTAz69L3aAW1wQIeK51hHoCFeAXRKDcLIZASgX4+U0pJ5OlmQABL80aynaSE+AXRHJejEbAJQF+fl3qBrW4JkDAc60j1BOoQOp/Qdyk3Nwro3v45acf9bfbL9fzc9YEuievi43KzVOPrGZehzMOAecEUv/z69wWKQiBcgsQ8MpNx4XpIJD6XxAm4I2Ssno8FuXJMSHqHhOiZjmIRcBzsCmUlJRA6n9+k1qewQg4LUDAc7o9FOe3QOp/QRQNeLeMztP2y5ppuOpr1jtP6fX3P1b7rpdqyh+aaegX0szcXM14dYy21P+djvnvcF02tJ5y5wzQq+PeU8MTW+nDy89XVxMSuxectE034ze+e5s63T1NxwwYp5vWdFWvt7ood9KdevPV13RU+26qk/egzrvjDenGlzWsyn907KnVtGTJHN3w58XmdHFE4bi6+1VVNid4ft9izO+jQOp/fn0slqkRCFiAgBcwOMu5JZD6XxC7Al6Hy/+s+27OVlZWy6KbPu9R5bSeruzbJprANdl8v92u7x9zh2bdvUOnXTa08GvnPTJZJ7/RToNmddLcUUeo8tGnm2u66snpeXr6zGa68u08LTi3mUYXXBE5NYwGNxPw5p62UM0vfij6nb4v5GqfoVl6wATLyGOWGXcaAc+tG5JqkhJI/c9vUsszGAGnBQh4TreH4vwWSP0vCBPw/tlYr36wXMtnvqXXP15csIX6evzlv6l549+oqvnKD9MGRQOe6rfQm68MV4Ma69T9tGx9Y7536Dk3avQ9PbXlm2k6q3s/M+YmzRqySQPWdtFpozuqwdN5GmKC3aTcD0zQO0PFn2p9JCdPM7Kb6S0T8EbpcvUYnl9C4dcLKhptAt5lBDy/bzHm91Eg9T+/PhbL1AgELEDACxic5dwSSP0viKJP0cZ2+8LcPD3evJnyIl/o/FfltJyaH/AKH82UO6uPsk67pvAr9a8coZFHjNIFgz4yJ30TtVwH5z9Ve/VzGqmpOuHMempuXut3z4Q8Lb0g8QlefMC7cVSuaj246wRvugl4ZxLw3LohqSYpgdT//Ca1PIMRcFqAgOd0eyjOb4HU/4JIHPDumZCrk77L0fRlUtdOZ+h/c4dGA96ksSM1be5Xqn9CezVZ9bjO/fB0vdx+m+avXK8zOl2snOuy9JR5SnXkrDw12zhNWdnmRM+8ni937iRNuinLPG0bETLhMO61dft99qDOvS3/NXjxAU/qZMYNjL4G7zdnnK/DGtTiNXh+32DM76tA6n9+fS2XyREIVICAFyg3i7kmwC8I1zpCPQh4F+Dn17sVIzNPgICXeT1nx3EC/ILgdkAgvAL8/Ia3d1TuvwABz39jVnBYgF8QDjeH0hAoQ4CfX24RBEoWIOBxd2S0AL8gMrr9bD7kAvz8hryBlO+rAAHPV14md12AXxCud4j6EChZgJ9f7g4EOMHjHkAgoQC/ILgxEAivAD+/4e0dlfsvwAme/8as4LAAvyAcbg6lIVCGAD+/3CIIcILHPYAAJ3jcAwikmQABL80aynZSKsAJXko5mSxsAvyCCFvHqBeBXQL8/HI3IMAJHvcAApzgcQ8gkGYCBLw0ayjbSakAJ3gp5WSysAnwCyJsHaNeBDjB4x5AwIsAAc+LEmPSVoCAl7atZWNpLrBhw0Zt3brV0y7r1j3A0zgGIZBOAgS8dOome0lawGvAi0xcp84+2mOPPZJegwsQQCC1AsmEu8jKBLzU+jNbOAQIeOHoE1X6JJBMwPOpBKZFAAGfBQh4PgMzvZMCBDwn20JRQQkQ8IKSZh0E7AkQ8OzZs7I9AQKePXtWdkCAgOdAEygBAZ8FCHg+AzO9kwIEPCfbQlFBCRDwgpJmHQTsCRDw7Nmzsj0BAp49e1Z2QICA50ATKAEBnwUIeD4DM72TAgQ8J9tCUUEJEPCCkmYdBOwJEPDs2bOyPQECnj17VnZAgIDnQBMoAQGfBQh4PgMzvZMCBDwn20JRQQkQ8IKSZh0E7AkQ8OzZs7I9AQKePXtWdkCAgOdAEygBAZ8FCHg+AzO9kwIEPCfbQlFBCRDwgpJmHQTsCRDw7Nmzsj0BAp49e1Z2QMBrwGvUUvrN8Q4UTAkIIBAVmP60dwgCnncrRqaPAAEvfXrJTsoh4DXgndmnHJNzCQII+CawfrX06ZvepifgeXNiVHoJEPDSq5/sJkkBAl6SYAxHwCEBr6d4BDyHmkYpgQkQ8AKjZiEXBQh4LnaFmhDwJkDA8+bEqMwUIOBlZt/ZdYEAAY9bAYHwChDwwts7KvdfgIDnvzErOCxAwHO4OZSGQBkCBDxuEQRKFiDgcXdktAABL6Pbz+ZDLkDAC3kDKd9XAQKer7xM7roAAc/1DlEfAiULEPC4OxDgBI97AIGEAgQ8bgwEwitAwAtv76jcfwFO8Pw3ZgWHBQh4DjeH0hAoQ4CAxy2CACd43AMIcIKXZvfAUQ1bSDt3Rne15N9zfNpdA+2n1frRp9mZtmICBLyK+XF1egtwgpfe/WV3ZQhwghfeWyQa8Myjy+k3640P/6olK2fvtpnHb1+pGx5uWP5NnvqyhtQaqoHvf1b+ObjSNwECnm+0TJwGAgS8NGgiWyi/AAGv/Ha2rnzmps913WPHFi4fC3q+BDxbm2RdTwIEPE9MDMpQAQJehjaebecLEPDCdyc0rNdEd142pjDkJRvwLunxhc6stUAfLlurs0/qpIcePkxLDcNj/Vdq1nu/14bf9le3eot029/76cc2k3SPOmrQNOnF27/S9m3rNfWzSWp+4h+09J2Geurz8PmlU8UEvHTqJntJtQABL9WizBcqAQJeONp156VjihRavVotNax3jP7wyOFKNuC9ePv76vnw2fnz7X2Xnu8iXfXiUr14fXv1fLJX9Msv3v6JGXOSVCTgrTRfiz3de5de7Cn1fPH+cACmaZUEvDRtLNtKiQABLyWMTBJWAQJeODsXeZr2wdEXa+XaRUkGvK5Fglx+mJtkgltHjTSv13t94u+1tcGNurTe++o1+nECnuO3BwHP8QZRnlUBAp5Vfha3LUDAs92B5NePD3eRq1Nzgne/bvnTv/TKE4fpu/iSOMFLvkEBXkHACxCbpUInQMALXcsoOJUCBLxUatqZq6yA9/3qvMLC3hzVWft2matL6y8veA1eZ/MavIbR1+Bd3WuJzth3z+jYTetnqe+zl3CCZ6elnlcl4HmmYmAGChDwMrDpbHmXAAEvvHfDi+Yp1dhj12vjyrefw9pNVtd1PfVI7uroBPuZk7vrd3TUvTPKNx9XBSNAwAvGmVXCKUDAC2ffqDpFAgS8FEGGfJrs7ot08Owm+r9/52/kkp5LVGvmUfr78pBvLM3LJ+CleYPZXoUECHgV4uPisAsQ8MLewdTVf8Pv5+ik+g20/dcNmjr5Uv1j4cLUTc5MvggQ8HxhZdI0ESDgpUkj2Ub5BAh45XPjKgRcECDgudAFanBVgIDnameoKxABAl4gzCyCgC8CBDxfWJk0TQQIeGnSSLZRPgECXvncuAoBFwQIeC50gRpcFSDgudoZ6gpEgIAXCDOLIOCLAAHPF1YmTRMBAl6aNJJtlE+AgFc+N65CwAUBAp4LXaAGVwUIeK52hroCESDgBcLMIgj4IkDA84WVSdNEgICXJo1kG+UTIOCVz42rELAtsGO79MGz3qqoW/cAbwMZhUAaCRDw0qiZbCV5AQJe8mZcgYALAl9MltZ+5a0SAp43J0allwABL736yW6SFPAa8CLTntBZqtMgyQUYjgACKRWInNwtmeo93EUWJ+CltAVMFhIBAl5IGkWZ/ggkE/D8qYBZEUDAbwECnt/CzO+iAAHPxa5QU2ACBLzAqFkIAWsCBDxr9CxsUYCAZxGfpe0LEPDs94AKEPBbgIDntzDzuyhAwHOxK9QUmAABLzBqFkLAmgABzxo9C1sUIOBZxGdp+wIEPPs9oAIE/BYg4PktzPwuChDwXOwKNQUmQMALjJqFELAmQMCzRs/CFgUIeBbxWdq+AAHPfg+oAAG/BQh4fgszv4sCBDwXu0JNgQkQ8AKjZiEErAkQ8KzRs7BFAQKeRXyWti9AwLPfAypAwG8BAp7fwszvogABz8WuUFNgAgS8wKhZCAFrAgQ8a/QsbFGAgGcRn6XtCxDw7PeAChDwW4CA57cw87soQMBzsSvUFJgAAS8wahZCwJoAAc8aPQtbFCDgWcRnafsCBDz7PaACBPwWIOD5Lcz8LgoQ8FzsCjUFJkDAC4yahRCwJkDAs0bPwhYFCHgW8VnavgABz34PqAABvwUIeH4LM7+LAgQ8F7tCTYEJEPACo2YhBKwJEPCs0bOwRQECnkV8lrYvQMCz3wMqQMBvAQKe38LM76IAAc/FrlBTYAIEvMCoWQgBawIEPGv0LGxRgIBnEZ+l7QsQ8Oz3gAoQ8FuAgOe3MPO7KEDAc7Er1BSYAAEvMGoWQsCaAAHPGj0LWxQg4FnEZ2n7AgQ8+z2gAgT8FiDg+S3M/C4KEPBc7Ao1BSZAwAuMmoUQsCZAwLNGz8IWBQh4FvFZ2r4AAc9+D6gAAb8FCHh+CzO/iwIEPBe7Qk2BCRDwAqNmIQSsCRDwrNGzsEUBAp5FfJa2L0DAs98DKkDAT4EqVapov/329XMJ5kbASQECnpNtoaigBAh4QUmzDgJ2BPbeu7aqV69uZ3FWRcCiAAHPIj5L2xf4+efN+umnn+wXQgUIIOCLAE/P+sLKpCEQIOCFoEmU6K/A99//oJ07d/q7CLMjgEDgAvvuu6+qVq0S+LosiIALAgQ8F7pADdYF1q9fr19/3Wa9DgpAAIHUCBDuUuPILOEVIOCFt3dU7oPAxo0btXXrL5zo+WDLlAj4LRB5Q0WtWnvymju/oZk/FAIEvFC0iSIRQAABBBBAAAHvAgQ871aMRAABBBBAAAEEQiFAwAtFmygSAQQQQAABBBDwLkDA827FSAQQQAABBBBAIBQCBLxQtIkiEUAAAQQQQAAB7wIEPO9WjEQAAQQQQAABBEIhQMALRZsoEgEEEEAAAQQQ8C5AwPNuxUgEEEAAAQQQQCAUAgS8ULSJIhFAAAEEEEAAAe8CBDzvVoxEAAEEEEAAAQRCIUDAC0WbKDLdBc7ZXF2nb62W7ttkfxkkcFedjRm0W7aKgHsCBDz3ekJFGShw//raGbhrtpzOAv+qsl3P1f45nbfI3hBwWoCA53R7KC5TBAh4mdLpzNonp3iZ1W9265YAAc+tflBNhgoQ8DK08Wm+bQJemjeY7TktQMBzuj0UlykCBLxM6XRm7ZOAl1n9ZrduCRDw3OoH1WSoAAEvQxuf5tsm4KV5g9me0wIEPKfbQ3GZIlCugHfhfWpx5N2a/VBRpXafPq3JJ/Rxi66EWl0pst0Hf9bkM+4tVzlOepdrJ+W56Dqd+fS/NL3PuwkvJuCVx5RrEEiNAAEvNY7MgkCFBMoKeEcNvCE6/yE9O2jFi/m/TJcsqpcw4FWokGIXt1w2Uh816lXxKR0MeCnbW8V1ds3QtJ8aL3hUS1M5Z9JzddMJF76mT1/3ciEBz4sSYxCwIUDAs6HOmggUEygr4MWGZy97QzmNuuT/MxKajp6gmpcNVVVt0idtO+mH76RsE8pyTCg78K7H1PSqE6XN6/T5cZ21OjaJue54TdD+Q4pep5MvVdtRvVX5p9X64KRLdejrb+mQpvl/vuX7z3doTec2WmX+u/miGfqxbWstM2udMHuGlrRoLZ1zvVo91k2Vflmrecd10zoz7kxT65Lnv9PxVzVRTv+ZhWE066Np+k9XM5e5PvZoOuE1HdSknn5Z8pamnfdIYe07vvtSU1r9MTos+6N7tGZDM9X/3V76/pn++uTReWr85gyten68Wj56keLHxvb+y6Ipmn7BkOj1hw37m448/0ht/+Frrfq2XuHeFjZqreNm36ecFnebUcer9cJhqlFth1bcdLmWvLO2xDV29aQMb12nU2+dpOo9n1eNPbbpi47Z+vfXkauLr3WY2i8bqkqRb/13ZkE9+avstp8yelhFW7TgqGw1juvBDv2iyY3a5U94xcNq2eh57XHF/fp2xi86vHUDbXhtmGbfOUHtls5Q5SqRQUuj91HM7ec5r2nmFU9GLz9lZo7qHFRVK/70nA7stI4TvF23Mv+FgDMCBDxnWkEhmSxQ3oCXfeNW5bSOBJh6yp59QzQUxAJedmFoKSZrwkHC6xb9XTlNrs6fK7efcrJuL5xLne7RaU2f0qz71yp72lBtWzFP7//+NRNI3tB7je40468x42+NLtRu2UQTJDqZgDdD/7m0tZbMM18sOMHb3GmaNt/URksjXyt4NHxuovZ6tpO+iH2t6U0665ZvNdXMHwlB2bmXFdQywwQOEybNo4UJIbMbt46GrzpTu+njx9cWrjH77Zt0Zt9lmn7tW6aYgWrZ8jV9tOwqtWw8Wh8N/Kxw3ZhT5Asxq7OWTdPURm2iY0404XW5Ca8HJloj7mnxMr1NwMteZEJuk+uj88bGJ1qr1tNvqHafLkVP8IzHbvtZcEXiHi59UTmNexbuMb4H9YaN1f4vdNfiBVLW/Bn6/MTWOtX06DNjGgnkjd+cLF3XTkt7jtQJX/bKP8EzQfC0Q0abvn+mGjc8qWN+vF7rOuSo5vDsaL/2HfKijt//FQJeJv+PF3t3VoCA52xrKCyTBMob8OJfg1cYNApO8H477AUdc+4B+tftffTlhJW7OIs9XZp/3XwTPC6JI/8xelJYJAR9/IByHt6hrH3u1j53vaH3Gz2rdqPrafK4I4s8VRw51fvUBKNIuJheEMgiAa/tPSdr5/wX9P6VrxRpbQszbnZsnPlOg2IhJzZPfC2xNSIBb2Pn1gWnk/lPF36pa3Vc+/12rfH5q/pGl8SNy/9WooBXJBTfkR90Nl+5+xrxrzmLzVOitwl48a9Ti53CJlprbdvdA17Eo/h+cl46uIh5rIfFXw9XpAc6Stkzupn/h+DZwgBfvEfR+0m7Al7E99Bjd1Fufe9BbW1/Z1y/eIo2k/53ir2GS4CAF65+UW2aCvgR8GJUv312vOrOvEh5/yj4SsKA97qyJzZSTqf8p+Bij/gQdIY53Vr378pa2Ka1Go2ZrA3z/6X6s3tp4Yw/qs2z32la5MTMPGKna4nCw+qjJqrGU52KnOCd+PEMLT6ltXlSseBx6zM6ceV1mj82/9/tl71tTgnPLRLISgt4c1ZeqKOX9yq8PjLHb559U3sN7qwlcU8LJwx4y8wpZqPIKWZ+0Kwzoou23+st4JXoXVLAS7DW+t67B7waJmgW30/sRDT2Bpv8vfzT9PDQIj0sGvCkZrkz9MW4pTryk15aYA7siny/7+Nqrhs0t/augBcx2HtIlyJukX7NN/2KPg66XmcONKelvMkiTf+XiW2FWYCAF+buUXvaCPgR8Fr9Y6CW/H2KfnvXYG28JVtfmafmoo+EAa+XTpo3TVVnvqE15sV6vz27jmaec6/amlC36I8D9PO02arzwts6ssUqTW5s3nRhnjZs90oXTW5S8JTpwhna8Nch2nLsRTrs8AWa0vmZ3U7wYqeNZ5o555inQQsD3cnXqf3fTtPiP0/UgZcdonmXPGLWfV/Lbrlbe/e8U7XmDTTvFP7Mc8CLhI1I3d+NeEbbazbW3puHaO5fzFO9Sx/UssHDVKtjZy244voiezu14Ons3zw9XodWm6yvZ1VT09tbm6c7L4o+DVz8lDDRCV6J3iUEvERr6drH1LrFfH351gp9N2564f29236WF30HdSystjB92Drx/7Rpc0NtHDLEvAYv7hQ1Mpt5E0f7187Te43zn4aOBLwqX8/Rgqc+0YnDrjNB2ny99e1qe/tOfTZqvv77ymcmYL+ilY8NN4m3uarl3q0FGweo/ZDfaP6d7+rYJ/tq54y/moD3q+nPHSZkFrzGr6By3kWbNv8TxUZCKEDAC2HTKDn9BLwGvPTbOTsKVqCLeVq9tiZf9lJhwCt8Gt2HQgh4PqAyJQIeBQh4HqEYhoCfAgQ8P3WZOyJwUJsWOvKZh8y7a/PfVBE7wSPgcX8gkJ4CBLz07Cu7CpkAAS9kDaNcTwKc4HliYhACvggQ8HxhZVIEkhMg4CXnxehwCBDwwtEnqkxPAQJeevaVXYVMgIAXsoZRricBAp4nJgYh4IsAAc8XViZFIDkBAl5yXowOhwABLxx9osr0FCDgpWdf2VXIBPwKeLE/InyY+RMnW39/7q6PKyv0KeUP1fr0+bHRPwh8/mH69xWt9cWckDXK8XJPX/S2PmxyrjNVEvCcaQWFZKAAAS8Dm86W3RNIRcBrPP5tNTzoW/37nYWqdXIL/fv8S3VEsU+J2H3nwQe87MgnYpwywPcmFP37dbs+IaPSwBuiax/Ss4NWvPhukToO6dnSfO0j87WftOTXU3TS+ue1vu7Janj5RVrdo7WWrjrPfFTbNVrx8lTVaNpC67pdqhW+76T0BbLmv6HcEws+n9hyLcWXJ+A51hDKySgBAl5GtZvNuipQ4YBn/vBw+6FV9F6HR4tsMXaCFx92Yh8ev/2HrzXllHmFH6N1zNs52j4oe9enTERO8I6eoJqXDVVVbdInbTvph8gnQZx8qdqO6q3KP63WByddGv2DxdlvXqc11Tuqft1F0c+NbTrhNR3UpJ5+fH6Q5t0/vbCmluZD6vc6qIb5d/5HocVq+XXlfE0966bouOJzxS4+wcxZ38z561czNfWcu6N/sPl4TdD+Q4rVV3BBSQFvacH3Yx8ZFg8W/+kWKviosuhnsqqDCXbNlJNz6K7PaU1wMx1412NqetWJ2rlprSaf0E01zrlerR7rpkq/rNW847pF/zxJC/NHmL95abGaXtlEW8yJ24wLHi55LwmsC+fc9pO++WCzDmt3QLSSb8zHvR0U94eNT546Ufs13Fsb/jlCs28xHw9XhpcfPxsEPD9UmRMBbwIEPG9OjELAV4GKBrzIR0rtP6aL+diwomXuFvDMh8e3bDxaHw38rGBg/gnedw1uVs3RPfTp2LW7JjCBIPvGreazS4eYr9VT9uwblNPibmUvMh/n1STycV7ma7n9ooEu2wSLGSZgRMJew+cmas9nO2mJ+TD6yEea/XJxO8V9Eq6Z577oPJEPsi+s5aDz1P7vjfTeuY8VmSsReuFn1ZZQX+yalAa8k/vprGuXa+o1i80nOzyrtSMf0qdD3ylangnZZ93yrab+/rWCr5vPfs29xvjcGv13u2UTNblRJxPwZui/rVprmQnLZe1ld+vni8wZmTc+qMY+euzot6fp56vbaIVZY9+7/q7DVlytvJ8T99PPG5uA56cucyNQugABjzsEAQcEggp4tYt87FZk49ep3cLOqvyf95XTbmhRiYQfaTbfBIpL4sbln8QVhjbznUiA2TtuxJr+rZV/Cpb/iI0tHsBiQSV+rviCmvzjFR18agNVMl+MnFYtLeEj1+IDXvVPxuuXgi9UO7mDtp5/rpI5wcu+pnH06h1rF2nyaX0Ky6l1dned+nRfLT2ztVYVfL5tYViLjSpWX+zzc2OhOzosdkqoRB89lsC6/yLFPvKt0HPZG9EeRB6xgFf0M2jN6eObhynnpYOLXFvktNKnnwECnk+wTIuABwECngckhiDgt0BFA55aD1C7m9dpsvkM2PhH8RO8ys++qb0Gd4778Pj8E7zPfrhUhyy8bbcTvPgwkR8IXjcfaN+oyAfax4e2yH9HgsySFvmneYkesQB30BPjtc8DFxXWkr3sRTN/zyJhMXb9EaMnq1K/Yt+XmgAAB+dJREFUdtFTr8h1e//pIk8Bb9dnyMadlhVMmtxTtIl2UvT1izXMSdnRX12t+WNjY/+oNs9+p2nXvhX9QoulMzS7cetoAJ5tAmr0UWrAS2B90PVqM/ibwjmj9gkC3qlmrTlmrejjoOt09oPf6/1/Hk/A8/sHmfkRcEiAgOdQMyglcwUqHPAM3fEfvK8DdizVt+8vUbVDj9aCq68rDBO7TsuOV/bSB7Vs8DDV6thZC65YVPgavNMWzdDiJrs+xirymq3dA14vnTRvmqrOfENrVku/PbuOZp5zb9FQdlB383q1y7TsnidVo9WFWtenT5F37+46oaun9ktf0OLeQ1T3rsHaMTL/KeJEJ3j7DH5BJxw5R19OqaYmN3fUv48zrxX0cIKX6oDX4IlXVW/jLG3ZbHKTeePFV212neBFnrJuv+wVffPAg9oj62It6vNHtTDPmW/46xBtOfYiHXb4Ak0xAdx7wEts3dqEt3V/e0q/7NdUSwbcrVbm39/0vkNbp83WMbHX4J18ndo/cZzm3/mujh3RT5+asLeuBK/I0+s5scCZ4h9BTvBSDMp0CCQhQMBLAouhCPglkIqA51dtzItAeQUIeOWV4zoEKi5AwKu4ITMgUGEBAl6FCZnAQQECnoNNoaSMESDgZUyr2ajLAgQ8l7tDbeUVIOCVV47rEKi4AAGv4obMgECFBQh4FSZkAgcFCHgONoWSMkaAgJcxrWajLgsQ8FzuDrWVR2CbdmpQnU3luZRrEEAgBQIEvBQgMgUCFRUg4FVUkOtdExi75xZ9Vu1X18qiHgQyRoCAlzGtZqOuC1yzcU8dtr2K62VSHwKlCkRO7l7fcyvhjvsEAcsCBDzLDWB5BBBAAAEEEEAg1QIEvFSLMh8CCCCAAAIIIGBZgIBnuQEsjwACCCCAAAIIpFqAgJdqUeZDAAEEEEAAAQQsCxDwLDeA5RFAAAEEEEAAgVQLEPBSLcp8CCCAAAIIIICAZQECnuUGsDwCCCCAAAIIIJBqAQJeqkWZDwEEEEAAAQQQsCxAwLPcAJZHAAEEEEAAAQRSLUDAS7Uo8yGAAAIIIIAAApYFCHiWG8DyCGSkwHmPatQR/dRjeGz3Nynnka+VfdvElHCc98hkHXFbOxVOX8KsN47K09c9mumtuO/n5jyqrOx+nut4fe5cXdi8ecLxf7zvBV3doam0eY0uaXWOvvE8KwMRQACBigkQ8Crmx9UIIFAegTQKeN6230S5Ey5W1gV/9jacUQgggEAFBQh4FQTkcgQQKIdAKQHv7bl5mjb8Lm09oae6HThHrXqs1ayRe+q0Xs9pwNg8XVj9rWhQuuzJD6Trz9DoguU7P/Kurqz2jkbOra67el+gca1amhM8E6zmPqEHbhmk9nc8pI3PXajb3lxTWHBpJ3h9X/hIJ696Qa8uPkj33Xiaspp3UORr+/2zryb+3FrP9d5PWZ0HKSc3T9lZzRSZ68IjftDw/vfq/MF/1fwbsjT8i/yl6nd+VE8c87K6P5BXDiwuQQABBJIXIOAlb8YVCCBQUQET8HIHtykyyw/TBpmnaI/Qe8NWqP0tb0S/N8qEvR7Nmyk3d6Kysjppbu4rWrqjcfRrY02w6m6CVeyRmzvFjGkb/Wck/NU14e9r81TtkX9pp2EFmS43d5wZ09VTwMs1a2VlXRodG3nKt+nz7XT0S6aegjVjNcUHvE3m6d6/R6/Y9ZRzsxtf1u21XtDFD0yuqBrXI4AAAp4FCHieqRiIAAIpEyjpBG/GmUVem/dITp5uy26m6P+98llN6PO5HtYdOvbpTur1UtHXyuXmvmwC2eWFgSzyGjwVe41dbu5kM8Z8veBR2glekdfimZD2yNeX67bPuyl33J3Sts0aeElLvfONipzg7Xo9366AN8qs2SNuzZQZMhECCCBQigABj9sDAQSCFyjxKdrlyp3aR1ln9Y3WNDd3mppntVF9E7AGNa6vsX3aaro66b2nO2rN0kHmTRq7nm6dYE70Lig4XYsEwlUmGA4364xtWvDUaP3LNPfxhmp+8UOeAl5Obq556jUrOvbJqXl6+qxmOtyc5NV9qp2eN8Eu9og/wUsU8C6+/k8a8+QTwRuzIgIIZLQAAS+j28/mEbAkUMpr8Oqf+ge98fj1qrx1jfqYd57mv2qtg3matl/h6dt0E+YGmDA3q0j5zfT+rJGqrY3q/eQXajW6b/RdtOfc9oKGXNxU/1s1T2d3vrbIFaW/i/ZQTZo5VvWr79DoARdo2JQ1GjdjjuZMHB+d49gOF2ta2yxdFvcavEQBb8bcXLVunh8UeSCAAAJBCRDwgpJmHQQQKBTINaEobI+srAHKHXWUsno8Fi292cA31GF8F11oXpfn9ZEV95pBr9cwDgEEECiPAAGvPGpcgwACGSlw5X2jdX2Ho1TZvAZv2uj7ddvjb2ekA5tGAAH3BQh47veIChFAAAEEEEAAgaQECHhJcTEYAQQQQAABBBBwX4CA536PqBABBBBAAAEEEEhKgICXFBeDEUAAAQQQQAAB9wUIeO73iAoRQAABBBBAAIGkBAh4SXExGAEEEEAAAQQQcF+AgOd+j6gQAQQQQAABBBBISoCAlxQXgxFAAAEEEEAAAfcFCHju94gKEUAAAQQQQACBpAQIeElxMRgBBBBAAAEEEHBfgIDnfo+oEAEEEEAAAQQQSEqAgJcUF4MRQAABBBBAAAH3Bf4fAlqopWOKj5MAAAAASUVORK5CYII=;" vertex="1" parent="1">
          <mxGeometry x="480" y="160" width="338.83" height="230" as="geometry" />
        </mxCell>
        <mxCell id="QaJkn2_FKrZJyJ2E_iRm-4" value="" style="shape=image;verticalLabelPosition=bottom;labelBackgroundColor=default;verticalAlign=top;aspect=fixed;imageAspect=0;image=data:image/png,iVBORw0KGgoAAAANSUhEUgAAAmwAAAGWCAYAAADFdN/HAAAgAElEQVR4XuydB3hURReGv/RsGqGDgHSUKkV6UywoKCJiR5pYwC4dpIiAiiCgqAiC+iNFEQFRKQJSpHdUkCpdaoD0nv+cWS5GBNI2ye7mu49rNru3zLx3l7zPOWdmPG68sVQKuJEACZAACZAACZAACVyVQHJyMjw9PXOVjkfOCVsyYqKikZCUDA8PT9gCAuHt5ZGtnT976gT8Qgoj2OaToeskxscgNsEDgQH+8EhOQERULPwCg+Ar7Y2PiUKChw8C/H2RVuujwk4j2isAhfIFXX/fhBj8feYi8hctAn+v3P1AZAgUdyYBEiABEiABJyOgchUZGYmUlBTxDSAoKDjTsqXnuHDhAvLnL4Bz584iICAANpstV3qcJWHzEBLambS3ZJw/HYt2r/TC7ZWLIvrc3/jy87E4et4/26RNZe1sbCJmvlofvWYcSbe0qaxVuPVxtK15Bu9MXISokIp4e2AXzB31BnaeSUatR19Ds5ht+OindfC9jrSprL20IhavHXkbZbq8h6BrSZvKWolWiN/0JR4rWQy/wJvSlvYHinuQAAmQAAmQwH8IqKzFxMTg008/hbe3D7y8vNC1axf4+fllWNrUb8LDwzF9+gwkJCSgTJky+PDDD7BgwYIMS5v9XBeRJEGr1Ju/v7+RwPRsaQrb9aTs4sWLyJcvn4FgN1kPA8rXV6JPqrWXtpjIMLR8dRGm9bsBb4+Zg3otWuCzrnfh51NAxMVwJIvzeXj5omDBgoi5cApJfiHIHxyA6ItnEJnkhwKBXjgXdhFyBXh6+6NgoVDEihDFJHsiIT4ewfmLwjspEhciY+SKKfANyIcCIQE4evQYfIOKooAtDmEXo+ApTYpPTEZwaH54xYUjSqJoycmJ8gDyFSyMQH8fJMdGwaNZNxyd/QaK+4ai1CNDsfGrQZja9y48PWopNiWm4LdBDfDyhF1IiI1Gkmm7DwoULAS/JJGv85HwQhJi4xPRa8lp9DgxHrc8PxqxcpPyFSiIlOjziIhLEV5J0m8P5BeRu1jqbsRv+xoP3lAEK+LjEBUeJe8DXr4BKFwwH5JiI3HuQoTh5G0LRqFgf5wPO4d4c3FPhMp5bb7e6bnf3IcESIAESIAE3JKAekhUVBQ++eQTvPLKK+a5CtGUKVPw1FNPGV/JyJaUlCTRuSCMGDES7du3F/nzxJIlS/Dggw8iNDQ03afSdkVERODrr2ebNiQnJ5ljtW3ffvstJk36NF3Sdk1hi42NERHzRrwIkY+PtxEwfWgHrJ9qrBcuiEhJY/wl2hQTE2tkTffRRqnZ6hYdcQ6PD96MDx46jOAb70WkvBZaMD+KV+2MXSvft3c6cTcq5K+C0cdTUHxSVzTq8zm6f3UCE275CcUeX4WTO7+073ZwDkqUb49Xt6Wgnf9W3HRzbUx4thi+LzQGS0Y+afbZ+NmrqP/MeFyQdk3p7IP/XRiO7fP64mQEUCwY+OLFB7D/4WnoWzMCwflKmGP6tbkFkzecRqAfcPJocZxP2YpeVUToBh9F78YXUOzIYgTf9b0I10o8dIMPNpd8Boc3fmxve8oBNC5XAWurvoqUBa/hmMeNKHnuC7y2timeOzwG9SZGIfz3L/HqHRXg038TRjSBROfym0O7NS6HKedrIWXXHLQuYEN0+4/wi/Rft/gdM1CoSSeUuKsPdn83wn6tDRPhfe9b2LDvOOoU1Bci8XCjqljxVwICKG12RtxIgARIgATyHAF1EfWPcePGoVu3bsZDNLD05Zf/k9+fNlKUOpiUFiD1nzp16qB+/XoYP/4Dc+7Fi5fgttuao3Dhwmkdfvl9bZdG6PRcEmW5nJlUATx//jwOHDggnpV26dY1hU3N1NtbhS3BiJcVQfP19TGNPnv2rEiaTS7iK0AuoECBAiJv502YMFGiWIUK5RfhswtbikSxTsX64eP5q/B0o1LY9s07aPZof/wQn4Lzb96NB0f8jI9/S8EdvzyPu5aVxOF5rQRqQ5xMicPwRl64bW4Sbl41GoNmbMH/5s7EJx0K4diTuzG+2mbku7EVwn2aICV+NaYO6YoFZ6th7kev4zaRy4kC6av7PZBvQgrKjb8N7ceelH78icbyXv2lZ/B+4Gx4NOyBblOPYHz+b1Ci03CJvgUh4uxxjNySDN8Jj6DBB99gaN27MHvLV2jRdjSWT78PHkG34cdzKfCe3A4t+83FqLVxeHzPYJSaeAQp62dgQOPyeHvtQfT88Sg6+25B+TsfQM9GZfHJukPo+dMJjAyZA78mL6HL+B2Yetuv8Gi3ACn7F+LB4oXwQ+RFJEYmCjWROJHGu31seCs6BkfeqI9HRm3UgBqeGr4GX3b3xVPPjcBdA2ai/d+fofSjg+AfKnn6dH+EuCMJkAAJkAAJuA8B9ZS4uDhMm/YV7rmnpfESFbZZs2ahS5cuJiqWXmGzonVvvjkMM2fOxPbt20wG8ZtvvsGwYcOknu2ccaT0bJawNWhQ/1JG0n6UZifVpfbu3Zs1YdOTacfUMDVqdmWtmpUGtfazhM7a78r9Yy6exZmLkrL0L42/Yg5h9jO10XbyVkxpF4B358ag24d/4cOi02F75H2cSzmH0YN6YeRbXSSNWQ0H5SYcnfshft0XC0+RxSWzP0C9cX+iw9YBqD9wKuKqPIaETVMxffAwnAjxR2JKNL7s8yYWyHGzHvPCZ+ffwOHFA7DnuKRrN3+Gcm17Y8DKC+j4xzBUe/F9PDtyD0ZWmocynd8WYQtGXNR53N55KkZ3uRUlK4XDx7emEbTSe3cjcd8sVOs4DHvl3N90LII3pp3BkyN3YmrlRfB7Z7sI2wTky18GnvGx6DxjN8Y+UFwQ2dClXml8tfUYXhNh637ofZR7bhTufXY+fhoUBo8Ws5CydxHuCghG/c9XYvij1bFx2TbUu6Mqmnjciq9TduOj+/wwerk/PBPC8cL843i37AGM/u5XePl44OyOtfhq6QZ4+fulORAiPR8u7kMCJEACJEACrkbAErYGDRri2Wefw5o1qyU6Vh+33HKLPGoiJCT9gw8sYZs9+1ucOHEcsbGxpiYuODgYv//+GyZMmJCuNKYJWokvREdH4513RkktnfqUvY5NA15r166VVOmsdNXEpVnD5ogbFhN+AZ0/+R41T6/D5qPxeP+9IXj9jvyI77oVE+4+gx5D5+Kjj97G5Ofq4KXPt6LT+J2Y1L06lgzvjHsHf4nXZh3E6MZH8PzgaShZrzp+ev5VtNyagq7b+qFaz0+RFOmDxRclnbl8LCYs+Au1Kgbhxd5v42+B9PmTHpiHiVj3Xm28/fkSeCRcwKQxo9FxaTye3/MmynQdgRfeP4b3KsxGkcffRJAIW0p8NC6Wuxfha6bhzLw3UardUDw0/FdMH9AYIzpVwLBZ0pZJ2zH+gXi88sYsvDPhHcx5sR6e+kOiYr98jOIy2jMuKhI9Fp9Hl22v4Z711bDvq2dRp5A/Gkw6iI/a+WPA6yPxxKgPETfxedw67pRE2ObiNq8q+C5pF9aN7YYFCXdgYp/H0dLmgbt+iUavYtsxcMpSFIrYhy93lcL2JUPxxusvIy6wFM7vXYLvV+6BzS/tkKoj7ifPQQIkQAIkQALOSMCSNo1+1ahRA1u3bkOVKpWl7qydRMbeRGBgYLqabQWdNEKnkbUffvgBP/30k6mPCwkJMYKVkWidXjQmJlrq1/49UFNToVfW/V+rgTkibFqcX75FBzx3X13orBWbvp+IyQt3ScM90aXXYDS7uTB+WzIVY77ZgoJBPkgoWhnv9+2ETwa9hP3RIQiPiEennoPQ7KYiiA8/hFE9h6Hc88NQ6+QyfLJkG/x8ZPRFcigGDu6PG0P9cGr3L3hj9DT0GjUFqz95Da8vPoSY6W9hxfFotH9lHAK/fw69d92A5nEb8cH3q3Dr3a/jrgK7MGbOKvjaJEolAwLCw4LRb9wb2P7dOPy88RBCK9TEkJcfwscvDcbhAF8Z7RGHJ14aiDtqFMfu5V9hzFcr4XVTfUx4riX6Dh2DpIR43PpkH9QNX4N3vliMjsM+Qon9MxD24FQ8770Siw6nICD2T7w9ZALCbqiJUf0ew6Q+A+Db+El0f+wOHF/3Lc4XvQW/fjweO+N88Uq/N1CjVCj++GEaxs9eiOr39cBzDzaCT1IsvvliDNbuPi8c7ClobiRAAiRAAiSQVwmobFn1bFrSlZiYaB4ZkSwrMmYxtMrEtHZft/TKmnX89WbUSO+5ckTYtMEqbTFxCTKGU0Y6+sowVhmkAPwzN5u3j7xms48uTU6MR6TMfeYvc6fo3Gc6ovLyHG5SFxcQFIgkmQ8t0dP38nxoyUmJJuSYJPbq5e1r5lCLltGpYedryujKNRjdsS0Wn/PAm1/NxZkx9+OJscthk/NrOxLiohCf7I1AlbXLdJMQGREJb78ACWHK6FERsKiYONiCg+BjpjORtkfLnGxSr+fl42c/VtoQLvsESfs8NZ0cEylztkkb5fgYibhFypDensvD8dLRUSjZYSQCQ/PJvgHwkho/nevNJqNRknUOOOHkKX1QcfST+eq8hFO01BQmSt+8/WzmfAlx9v1S5Dr+tkDKWl79l4n9JgESIAESuC4BS5bSK0ZXniy1bGX2HI64RTkmbI5obMbPkYLE+EiEVLoH/bo/AH+xxT9++RJjvt6AgvkCM2zIGb/+v49QgavzRB/Uj1iHj35YLyNFWXOWVaY8ngRIgARIgATyAgE3FzYT1BRpi0V0bLyZ28yK7uWWJdujbrpSAmUtL3zB2EcSIAESIAEScASBPCBsjsDEc5AACZAACZAACZBA7hGgsOUee16ZBEiABEiABEiABNJFwKNkyRLpWQw0XSfjTiRAAiRAAiRAAiRAAo4n4HHTTZUobI7nyjOSAAmQAAmQAAmQgMMIeNx6a20Km8Nw8kQkQAIkQAIkQAIk4HgCHnXq1KKwOZ4rz0gCJEACJEACJEACDiNAYXMYSp6IBEiABEiABEiABLKHAIUte7jyrCRAAiRAAiRAAiTgMAIUNoeh5IlIgARIgARIgARIIHsIUNiyhyvPSgIkQAIkQAIkQAIOI0BhcxhKnogESIAESIAESIAEsocAhS17uPKsJEACJEACJEACJOAwAhQ2h6HkiUiABEiABEiABEggewhQ2LKHK89KAiRAAiRAAiRAAg4jQGFzGEqeiARIgARIgARIgASyhwCFLXu48qwkQAIkQAIkQAIk4DACFDaHoeSJSIAESIAESIAESCB7CFDYsocrz0oCJEACJEACJEACDiNAYXMYSp6IBEiABEiABEiABLKHAIUte7jyrCRAAiRAAiRAAiTgMAIUNoeh5IlIgARIgARIgARIIHsIZFnYEhLiER+fgICAAHh4ePyrlTExMYiMjEShQoX+896V3YmOjkZcXCxCQ/Nfdd+LFy/Cy8sLQUFBDiURHx+PCxcumDZ6eno69NyOOllKSgpiY2ORlJQEX19f8+BGAiRAAiRAAiSQdwhkSdhU1sqVq4C77roLY8e+j5CQkMuypbJ233334913R6F8+bIiYqHXlDaVtRdffBkdO3ZErVq3/Os8eitU1ubP/x779u1D3759/iNt4eHh8Pb2NtKYnk3blpiYCD8/P1SrVgMzZsxA1aqVze/OJm0qa8rn4YcfEdblhcNc7N+/37SVGwmQAAmQAAmQQN4gkCVhO3XqFNav34ASJUrikUcexu7du+Dj44Pz58MkshaFNm3aYMqUz0U0yhhB8vb2QkJCoomU6ZaUlCjRIj8jcyplMTHRKFiwkIl4eXp6yPvJJpqUL18+nDlzxpw7ODhY3j8PFRkPD08jgePGjcf27dvx2WeTzfsaqdPrBAYGGpELD78o+8OcS9vw0EOPiKBVweuvv2qud/r0aZQqVcpEsTQiqJsKkV5X5U6FKTk52TxCQoJhs/0TTQwLCzPn1ciftlv75u/vLwzOy1lSpB9eKFCggDmHPvS1gIBA07azZ8+a/RMTE+Radgapj1F51Os/8MADGDhwEKZPn4Znn31epLaG6bsllxp502vrlpCQYNqj51eR1U33U5nW8+u+ykyZ6+thYecMA22HcihYsKBhoJFHZawPa1+9RkpK8uU+OZvc5o2vLHtJAiRAAiSQFwlkWthUwDSitXbterz99kjUrVsPzz//jPzh98aqVb+iaNGiIiRnjJwUKVJIJCAav//+m0S0qovY7TYSo/ts3boF999/H/r164/Wre9H585PmeMvXgwXiQnBxo0bJVLXCsuX/4ItW7aIAH6GFStWG6HT7eGH22P27G+NqCxfvszso6Ko15k06VP88cfvGD/+Q7PvqlUrMWjQIKxcucr8fuDAAfTv3xfffPOtCFsJ9OjRQ34faN5btmwZOnR4Aq+++hq6dn0ahQsXNq+/+eZQzJo10/RdpWzVqtVYsuRnEar++P77BTh06BAmTvxEjv/l8uepdOlSIoc98corr5rXxo8fhxEj3hJBOocNG9ajfv0Gpo8LFvxgREy3W26pbiRK+1W9eg18+umnmDlzpjBqjdtvv83Iq4qhSqQyX7RokRHOkiVLGXEeOnSIsJpq3tOtceOGhqGmnHVr0+Y+I3nKul69ejhx4iiOHftbuFXBe++NRqNGjYxE6vbgg20RERGOhQuXyHXt57v11trm2pS2y7eZT0iABEiABEgg2whkWtgiIiLQp08/qf0qiKef7ipyFmbErEePF0QW3pSITqCJBo0ePUaiPTZERcUY2fnoow+NqHTr9rTI3hrs2vWniFthSXX2w733thY56oh16zaKlDTH8ePHsXfvfon65DdStGnTJtl/Fz744EMRtYewZs0aA2bPnn0YOXIEpk6dYqRowICBqFOnlolOaYRII4EaeTt8+Ki0sSDmzp0vx+wxsnbnnXdK5GoWVKr0fRWnzZs34+TJ0+je/TkTfRo+fIQ57umnnzHCV7t2LRPB0kjikiXLRM6WYsiQwSKOc3Dw4AGRxD8watR7IjoPmAikyuDGjVvw1lvDjGipnBYrVsRcY9asGdLmV+Razwu3t9CuXVsjqUWKFDGRMI103XzzzebculWpcjNuvPFGNGzYCHPmfCvSlGREd9iwt4zA7dy5A4sXL8bSpT+LxC1Bly6d8eOPP4hEfiqRznJo0eJ2acdbaNu2Hdq3f0hYrxf5qiOsj+Lvv0/L+W+SNPZ7qFChApo0aSwy/o7IXmMjvyq+jz76sOFute/KusVs+6TyxCRAAiRAAiSQhwlkWtiOHj0iwnHmX3Vp3bt3R9myZSSF11aEoh7uuONuEY3Zki60SYQtRgTuGXz77WxJw12Qfdpg9eqV8vxiKmFrJcLWWSRigwhUSYkYxYlsnTHCtnjxzyZC16tXT4nCdTFSqNGnsmVLi2icMjKk0beePXuJKD2Ili3vNtGfMWPeR6tW98m1VomstDBS+eOPC/HbbztF2PpdEraZEuWqK9GuTfJ+YTlvvIjXIXz44QdGmLp27YrmzZvh8cefEGEbLNHEOpeFbenS5fjhhx8kwjZA5G2pSN8hkdbuEm3sLhI3FMqpT5/e+O67eRIlm2jSlRqZeuONgabdTz75hKRzt4nQRuGxxx43/dL07733tjT7njt3zojkCy90l9RzCfn5onxcPTFt2pcivxOMpGnaV/kcOXIEN910szk2f/58IqbfS8SssklP//TTQiNa/fr1ET7t5NiPDaMVK1ahcuWbJV0bKdc5Js9vMsw0Wqf3okOHjiKDwyXKV0Vk7TGR7mEmZarXUL6MsOXhfz3YdRIgARIggRwjkClhi4uLM1GXiRMnSaqwoJGGPn364IknOpho27x58yUF+JpEwR42kSArwvbCCz3w9dezTDROozsrV64QOTkn0abCEhUbJKnR+00acs2adWaggkbITpw4aYRN05ga+Vq48CeT7jx27JgI0CQRlEqS6lsugnXQpCpLly4r53jSCJYef+zYCYkMjTWpxpdffkWkp5hEv0ZLuxpK+yfK+0dl0MEsuUaoyNUJIzUa+VPZatq0iYhJK9OnevXqGnnRKGH16lVNqvfixQuSpvxaoon5TBp07NhxIlL/MwJXpUoVUzP2/vtjL0fvpk//SqRwg/S3GCZM+ND0TSONv/66Sng2kf3KmDSlHqODLzR6pTVyf/65V6KLGyR1+41pu81mExluIexOm7SpypVGKlUI9fmPP/4oEcVAkcT5Eg2saWoD27Z9UKJl78p96iX3phd27NhhJHD//oMmRVu8eHGpQ3xUhK2SpGvflkjfQyJ3fU3kU6N1M2Z8JZG4ekYmtWawUaMGhq9Vj5hjn1heiARIgARIgATyIIFMCZtKQZs2D5gasy+++MJEgrQwffDgITLSs4NIyLMiTM1F3ObJH/m6Ek3qLzIzHl999ZWIwnaJXH0kf/TfN5I1efIUibx1k+jXHSILVUyKUKNMvXq9bqYLUSnr1q2riVgdPXpUBOOASSHqtmTJYiNHFSpUNDK2f/8+SSduMPV0Ki+aDr3zzrtM3df69evNwILRo9+TtuYz6VyNnul+PXq8KG0cYKJm+rr2S6N1Wg/XrFlzSa/WMdG22rXrmBGx778/xvRZC/i1mF/r3FRc1q9fJxITa2rjXnjhBXP9+fPnSRRrhUmtvv7663KNIJGrP4ywaa2Y8vvrrwOS9qwi/exmjvn++/kicb9evoYOaNBUb3BwiJxruZHPGjVqSOryXTPAokuXLmZE7vz5843Mtmx5D+655y5Js/Yw9YW6aQpbR5redtttps5OR/VafHRQw7Zt20Uki5rUsqaxdZqTv/76y0QDhw8fhkqVbsJzz3U3tYMqhCtW/GLax5RoHvxXg10mARIgARLIcQKZEjZtpUqb/jHXaI/+0dZBCDoKUmvFrGkztF5LpUZFSNNoGonT13T0YmBggCmI1+d6jMqTjhr18/M36UF9Tc9rvW9Fc1SM7KMtcbnwXq9tva/pQWtAhB6vr2vqVF/X9mpb9KdeQ9+32fyNZKkU6et6bhUZHSWqQqLH6kMHGeh5Nbqo57BExeq3tkevoSlCbaNeVzc9h55LOVg1dbqfclMm+lN/12tceUzqa6Q+Vs+rozXtUb6LZtCEcho9epSMgG1v5E2jg1rfpv3SNllzuel19Hftj/7U+6jstc3af+3PZ59NMf3s3LmTGSlrMbO4W32irOX495UXJAESIAESyKMEMi1seZSX03VbRVCF77XXXjcjb7Xmbdy4sUYAVcIyKlUqhu3bP2xkb+7c70SybU7XZzaIBEiABEiABPIaAQqbG9xxlTYrMqgpS50nTqNnGZU1C4VKmy5aQVlzgw8Hu0ACJEACJOAWBChsbnEb2QkSIAESIAESIAF3JkBhc+e7y76RAAmQAAmQAAm4BQEKm1vcRnaCBEiABEiABEjAnQlQ2Nz57rJvJEACJEACJEACbkGAwuYWt5GdIAESIAESIAEScGcCFDZ3vrvsGwmQAAmQAAmQgFsQoLC5xW1kJ0iABEiABEiABNyZAIXNne8u+0YCJEACJEACJOAWBChsbnEb2QkSIAESIAESIAF3JkBhc+e7y76RAAmQAAmQAAm4BQGHCpsuHq4PXWjcVTYPD12sPfPLOGWln8rJzkx5uQYzXe5KH1lZ+iorzHgsCZAACZAACeRFAg4RNl3LMjY2DgULFpBHQfj6+rgIyxRERkbhxImTZrFzX1/fTK+/mZEOq6jp4uz6s3jxYggJCZbrembkFLmyr64vmpCQiLCw8zhz5ozhpQvPcyMBEiABEiABEsheAlkWtri4OBGOEDRv3sQImwbX9A+7swfZtI26aTtTUpLxxx+7sWXLNiMgXl5e2UZdJU3ltnr1qqhZs8Zl4XEVZtb9DQ8Px5o1G3Dy5En4+fnliOhm203hiUmABEiABEjAyQlkSdhiY2NRtmxZ3HHHbYiPj0NSUrKTd/fazdNoUUREBObP/8HslB3SpulPjay1atUSRYsWFWbxLpU+Tk1PU6Iqahs3bsbOnb/L85yJTrrsB4wNJwESIAESIIEsEMi0sGkaNDAwEA8/3A7R0dFZaILzHKrRNU33zZ+/ADabzeFRo6ioKNx5ZwuUKVPayJo7bAEBNixevBTHjh03KVJuJEACJEACJEACjieQaWHT2q+HH34QQUFBpnDeXTZ/f38sW/YLjhw55tBavMTERBQoEIrWrVu5jazpPdcBCBo1/PbbuSYqqZE3biRAAiRAAiRAAo4lkClhS0zU6FqAia7FxMQ4tkW5fDYdMXrmTBgWLVoMHx8fhwmIpo+bNWtsUsgqb+60qeQuWfKzGbyhzLiRAAmQAAmQAAk4lkCmhE3TeRUrVkCjRg3cKlpkoVVpmzZtpsOETSOQ0dExeOKJR0za0JWmPUnPx01Tybt2/YlNmzab/jHKlh5q3IcESIAESIAE0k8g08JWrVoV1K5dy6TD3G0LCAjA5MlTHSYfdmGLRpcuHd0qfWzddxW2AwcOYvXqNWYgAoXN3b4R7A8JkAAJkEBuE8iUsOlUHjothfsKm02E7XMTYXPEaFGNqOmAg65dO7r0SNprfVhTC5umR7WujRsJkAAJkAAJkIDjCGRY2DRapCnRGjWq5Qlhs2b1zwpyFTYdpPH00xS2rHDksSRAAiRAAiSQVwlkUtgSTIStTh13TYnaMGnS52aUqKOELSIiCt26ubewrVq1RqZDYYQtr/5jwn6TAAmQAAlkH4EMC5tGi+Li4vOMsDlizUxlRmHLvg8xz0wCJEACJEAC7k6AwnaVO6yTwVoRNgpb2l8Bq4aNEba0WXEPEiABEiABEsgMAacXNm+pX9cadi1j1+l5E3Ngjl5XETZPgeJ1iY0siYok+V+yPkm1KTeZpQQ6na2+pe/rfo7cKGyOpMlzkQAJkAAJkMB/CTitsNm8VdI88GdYIi7Gp5hF2kP8PHBzfplNXywkOhvnnnV2YVOJtcn/jkcm4WR0Mi7GpSC/vwdKBHmhsIyUuksAACAASURBVM0TMYkpRspU1qISUsx+YbJPPl8PFPT3RNl8nohPAuIdJL8UNv7TQgIkQAIkQALZS8DphE0lI0jEYs7eOKw4IuttWtEg/XlptoiGJX3w2E3+Rkwc5Bz/ouzMwhYgInsoPBn/2xWLsKhLvU/FplSoJzpWsaGACFyCSFmUMHprTaSE1gTepVWj/EV8H7vJDzULeztEfCls2fsl5dlJgARIgARIwOmELcjHAyM2RuLURbEQL83hXcrl6b1SYVPpEBEJDfLA4PqBiJPnDs7wwVmFTaOOm08lYvpvsZfl61/GqrwUhoQjX6oTiNIhniYaufaErPX5Z5ydp266j0Te7qroh9ZlfbMsbRQ2/kNCAiRAAiRAAtlLwKmETWXti10x2Hpc8p1G1lJQv6QvKksaVOvY9l5IxpqjEnVTcRNRu7mIN7rfYjNpP0duzihsWqt2XtKa76yNsrORyNkN+b3R+AYfBMrynedjU7Bc2ETECAtTsCbi2zQA3mJsWsPWZ1WU4NQ86aUwpT6XVHOnmjZUL+SdpfQohc2Rnz6eiwRIgARIgAT+S8BphE0jQVqL9bam70TcNHI0oEEAigba66108xXxuCD7DFkn0qKbPO/VONDUbTmykN4ZhU2lbML2GOw7JzCETdMyvnhYImQJIrU6kECFzltk7MMd0an28cGD5f2MtE3cGYNdZ1SEU61CIAeGSOp0kEQqE7KQW6aw8Z8WEiABEiABEsheAk4jbH4SNVpyOB6L90sETbb2VfzQRKJHVw4u8Jf9doh4fLlT0oLiHs1K+6JteV/EXpI6R+ByRmHzE1ntuUJkVvocJDVobzUKRKz4V+rYokqvSm0vjaaJwaqMvSEy5i2vrTqWgHl7JC2qMmxtl6JsA5sEIlgucOUI0/SypLCllxT3IwESIAESIIHMEXAaYdNi+s+lkH7HSbEQSfeNujMYSRL1uTLZqbrhL/u+tjRCUn8eqFRQ0qI1ZACCGwubBsVOyWjQ9zdJZFFSnbdLdK2NSGrMVUbKalr5w+2XomzC6u3mgeJoHvhDRtt+vkMk15oHxPq8SDr58Wr+qC3p5cxG2Shsmfvy8SgSIAESIAESSC8BpxE2Tfl9sC0GB8LEvEQiPro3xEzncbWtoESOnlsUboTthmAv9KobINEmx9WxOVuE7V/CJqM975NU6O03+pgBF1duOjBhlkTSNkhETcV35B3BJuq253wiJm+/trDVEWHL7DQfFLb0ft24HwmQAAmQAAlkjoDTCJuKxow/Y7FJBxxIOm9I8yAz19iVaTqtp9dyqwEr7BG2KoV98Ew1P7eOsGmqU2v33lmvETagdnEfmbrDX9LF/5XUUEmXDt8QjRPhYnMC652mEmGTE2zV0aV/XEXYRIqfru2Pm2QAQ2YnJaawZe7Lx6NIgARIgARIIL0EnEbYNAq08WQCvtkldVbyvLpEfHrICFAVldRakl+E5Is/YrBBxU7eaCXRpjuuEW1KL4Qr93O2CJu2L1hSnS9LDVuKGqz8N0JEzFdCb6nTmFoH+HdkMkZvjDa1bsVlWo+etQPFa3UEaQJ+kLnt/lPDJtHMEbcFyT4emZ4ehcKW2U8ajyMBEiABEiCB9BFwGmHT5tpEQF77RVKdOvWEBIhuLycDCuThYWQixax8sPBQHBbuk4EJEpGDZP3ebRFkonCOS4jCKedh0wjkd/visPqwdFqENkjSwi/XDMANQZ4SGUsx8nbwQhLGbYtGoqZKRcTaS21aA4nG+cl747ZG29PNqUeJSoSuShEvPF3NdtX0avo+QnIrvL1x4MBBcC3R9BLjfiRAAiRAAiSQMQJOJWwaIdp6WlJ3Mn0FJJKm0uYhonJzAW8TAdojhfOJOueazkMm8449XMMmQuKdJdm4Gi5njLDpYAuNQg6SKU2iJepoLa6qKxuECrjT0Uk4FSHJ4ksTCxeT5af63BpgInD6eONX+wjTy/OwXbLcwTLaNFCid1mZFoXClrEvHfcmARIgARIggYwScCph08br4IPlRxIwf/eleitr1XJ901oBXuzi7kr+aCWjJa9Wx5VRCFfu74zCpm3U4Fic9P3dzTGIiroiWmZ1wkyo64WXawUYXhqZ+1oGIayVlKgRXQ1FagRO6gN73WpD0QDPTI8OtS5JYcvqJ47HkwAJkAAJkMD1CTidsGlzda61MImgLTgYjz9ldGPcpdGiPiJzlUK9cb+kSYuIaDhy7rXUmJxV2CxpU3FbfTwB6/5OkMiahM+MgEEWf/dEw2I+aCTz11kjPs/EJGPMJqlpE1+DL5BPIpe1i/jgLpm/zkdkOLNTeaTmRWHjPzMkQAIkQAIkkL0EnFLYLDHxFXHTVQ7s6boUkxbVtOk/r2UPHGcWNu2xSY8KB81q6shOq75PX1NU1soQFh0TmJRJcpWfWRFBRM2Ra7BS2LLnc8izkgAJkAAJkMDlv+V16tTKUL1+ivzhj4uLR/XqVSHHIiFBQzfZs6lomBp5a3J+aanKW4YanImmObuwWdKm031YS4MapRUwVxuAkWptA8POHGckzjEsKWyZ+JDxEBIgARIgARLIAAGnirBp5EdKq0wEKEVm9I+SfN05KbC/7GsiGDqth6b19FUdHakRJgfOmWvQOaOwWZExOx8PREia+Hxc8j+DBYSNjhTVedgCZBBBajap57LTksATUv+mq0iUCvGCroxg7asynJnBBxS2DHzjuCsJkAAJkAAJZIJArgubCoif1F8li6DpbPx7ZOqJAxeTcDQiyUSMzCy5VkjJhIfs0SGVjfL5vFCloBcqSl2bxoo0FegIeXMWYbNSnzoth/LYcz4Ju2Xx96ORSYjW0bLKQx+6o/VTngeLtJUTPhVDvVCtkDcK+nuawQpar2bt9suxeCyRdVttNg/cLIMUKsnEuWVk3rZSsnJEvOyrNXDpXVuUwpaJbx4PIQESIAESIIEMEMg1YdN6Kz+JFKmE/HI03qx1idRrY1oSop2xcqBWqC31e+or4mu1pJBeF4uvlF/lxF6jldktt4VNU5a6tmqETDe38WQ8Vh5LxAUZPGDkVUNkqZlYz1OzsV67JLjFgz3RvKQP6hT1MQMNdLCG1gIekHnbJsiI08vCJ+8Fi9w1KO6Fxjf4mmidrleaVgqawpbZTxqPIwESIAESIIH0EcgVYQvx9TCjHH+QUaBRsZdCaNaUHRLW8ZcRoPlFHIoEeJgUaQF5rm+fl/SoRtHOirzoIy5GVEIFJtXUH4Gy752lfdCipH3Kj7Rk42qYclPYVKTCJd05b38cdsicdGYEqNU/DXlJ0VpBEbCCNk8zZUcBP08jYSqoFyUsFimSpyNDL0ZdCqfpVB66KWbZv6FMpPtABT/74AN57BNp+3iLSJsGKS3R033lvSalfPBQRX/ECUcr0Hk1XhS29H3ZuBcJkAAJkAAJZJZAjgubLrE0YXs09qiMqDGoCUgKrmRBb5luwhs1C3ubiVw1yqQiYrJ+l6xLC+xV3LRuTWutYkQkdp5JxCZZJ/OozuKvYqM7yNOSBbzQs45NFoVPO0J0JbzcEjadGFfTwZ8IH8gi75fnnRPpqiERxIYySXBpSXVatX7K6F/1aZd+Vz4qcHsvJGKDTP2x96z8ogxV3nT6NuHbp65N6gE94S/3YJrMebdJBNrcD0va9ABhV1Qm4O1XN+C6HClsmf368TgSIAESIAESSB+BHBU2TfPNlAXeN+gkrkbWUlBfImF3yVqgGkVTpzB1VukYvahqoQKnUmeibzJv20+H47DlhFiGsTrglhu80bmqv0nrZWTLDWHTJqtv9l0tKxLoJmKVX+ZVayFRrrqSytQ6PzPA4lLgLK3+6LlU7LzkESn1br+KkC2TCYnNShFysRCpXRvaIMgMONBo5Shdf9QIr5Vbled6I4RdLeHYobJE2q6RZqawpXU3+D4JkAAJkAAJZI1AjgmbaoCObuy9VNYKlZSoRtYGNAgwM+1rTVVmRiem7rqm+DSdqBPuDpPlm4y0SWrxLVnYXK+bkdRobgibtl1r+X7YKzlNaXstiaZ1qmITLvY0cEbaf+VHQj1MawYVydhtMTgiaVAdndGxpg3VZVCCv8DrKaIYrzKnYbvUm0qbvD64aZAZfXq1gQgUtqx9CXk0CZAACZAACaRFIMeETQNqh8OT8NEWieRIFOeOsr5oU95Ppu7Iior8t3u6tNVPf8Vj8QERH5HCLjX9ZSSpd4Zm9M8NYQuUCNrHO2KwR0aB6vZusyBjWFkV2dSENBp5QmrbxurKB4K9fgkfPHaznwQ7PfDWhiic1rq3K4VNTyDi+0R1fxnYcXWOFLa0vmZ8nwRIgARIgASyRiDHhE1lYZvUrc34XdYIle2xqn5oKCMRdboJR25aB7bzbCKm7pDryKkfECFpKmJy5ez/17tmbgib1vYNlsjgeVlqykvsdkzTQA1sZSmydmUfNdKm0570WyURSAmV1SxmTxnrCgjD14uw6TJXVxM2OejOcj6ydqvfVZcDo7A58hPMc5EACZAACZDAfwnkmLCpSG2VAQIzfhORkshRcxnJqXOEOWIty9Td0kjefincXyIjUDXCpsLWTIQtI9N85JawDRJhuyDS5CHpy+dr2By2EoHFx4zHEGH77DcZFSqBPHvalcLGfxhIgARIgARIwNkJ5I6w2ee5/efhSEpmNMKlhxTMu5KwmQibzrem7dfRs44NPtopW6Mb5Py1JMJGYXPkh4/nIgESIAESIIHsIZCjwqbTb3wtdVqQ9F+ObJLKa13ZT0Zaauo1/VfMrQhb318jER19aW659Dc3c3tKqK2aTDTcrZo9wjZobSQuRl7j2sLxtgpSc1iOKdHMweZRJEACJEACJJA1AjkmbFoadVKK2reeSoCPWdE9+7cEqdPStGtpWW4pI6VyuSFsmjJeIaNEo0SOVKCye9PpPEoKF533Tq+2Upaq0uk/rnZt5XiTLF+lS4Bdbekv1rBl993i+UmABEiABPI6gRwTNgWt0qZikpOb1shlRNa0bbkhbHpdZXO1mv/s4qVcrBrCtK5t5oC7RoqWwpZdd4jnJQESIAESIAE7gRwVNleBnlvC5ip8rmwnhc1V7xzbTQIkQAIk4CoEKGxXuVMUtox9fClsGePFvUmABEiABEggowQobBS2jH5m/rM/hS3LCHkCEiABEiABErguAQobhS3LXxEKW5YR8gQkQAIkQAIkQGHL6GeAKdGMEaOwZYwX9yYBEiABEiCBjBLIcIQtOTkZCQkJqFatKurUqWWeu9tms9kwefIX8PWVKS9kig1Pz6wNbU2RBdQjIqLQtetT0Ofutqmw7d9/AKtXr4XN5m+YcSMBEiABEiABEnAcgQwLmwqHSlrp0jfi9tubIy4uznGtcYIzqWwkJSVj5syv4ePjY2QtqwKizKKjo9G+fVsEBQVDpdedNuW0bdt27NjxO/z8fLPMy53YsC8kQAIkQAIk4AgCGRY2vWhSUpKJFHXu3AExMfbF3N1l02jRoUOHsWLFKpEPvyxH15SLslKxrV27FmrUqOZ2UUmNqs2ZMw/h4RFQflkVXHf5LLEfJEACJEACJOAoApkSNhWQqKhotGjRHOXKlXUrAdF06OzZ30kKM8JE2BwhHxpR04eXlxcee+zhy8LrqJuYm+fx9vbCqVNnsHDhYkkh26NrWU0h52Z/eG0SIAESIAEScEYCmRI2S0A0ddihw6PyR9rTSIirbypr27fvxIYNm+Dv7+cw+VDB1UdsbCwqV66Mpk0bSWRS1lR18U3FTCV09uy50p/oy9E1R0iui6Nh80mABEiABEjAoQQyJWyWgCQkJIrY+OK++1ohODjYRNpcrT7Ligj5+vpg587fsXbtBiNrVu2ao+RDmSkbTSHfckt11K9/q6mVs9LLDr2r2XwyZaLRR03zLlr0M86dC5PommPq/bK56Tw9CZAACZAACbgkgUwJm/ZU5UMlJDExSaQjEdWrV0XFihURGhoikRYfF4GRYiJdJ0+elsjaDpw+fUbEQ2XNw2HRNQuENTpUBS0+Ph4hISFS01YTJUoUl7VLA0yU0tk3HfyZmJhoatUOHjxkmGm/rMEZ2n5HCa6zs2D7SIAESIAESCAnCWRa2FJLm72oPl5Ex0uEx+uyfDjzDBbWzBMqUHFxCSa15+OjBfN26ciOOiwr+mgX3UTzUNnRQn3dnJmXXcbsAyg0kqrctO3KzZK07GCWk18GXosESIAESIAEnJVAloTNSo3aZUNTflqrZZ+ywtnlwxIQu2x4iqD9Ex3S17IjUpR6DjZL3qxIpSvwSs3MkrPUkpYdzJz1i8N2kQAJkAAJkEBOEsiSsFkNTS1ulrzlZCeycq3UkpFdonZl+67k5UrMrpSynGKWlXvMY0mABEiABEjA1Qk4RNhSi9vVnjsrpCtlLafbmTri5iorIOQ2s5y+R7weCZAACZAACTgDAYcKW+oOuYKAOFMKzxV46f11JmbO8AViG0iABEiABEggJwhkm7DlRON5DRIgARIgARIgARLICwQobHnhLrOPJEACJEACJEACLk2AwubSt4+NJwESIAESIAESyAsEnE7YdFJZaw1Pne9Ln3P7NwFr8l2ZPMVM9KtzoXEjARIgARIgARJwXwJOJWwqa40bN5HlodYY4tWr18Bvv+2ktKX6/KnEhoaG4v772xhRW7RooazQcJrS5r7fUfaMBEiABEiABOBUwnb+fBh+/XUdbr+9uVn66qOPPkGXLp0QGBhgIkn6WmJigtw2D1nv0x+RkZFG5gIDA/PE6EWNrKmkTZs2HX379jbLgp07d1Ye58zryiQ6OtpMYqzLXcXHx8nPQLMUli63pctw2ZfASoGfn795X3/PK/z4fScBEiABEiABVyXgdMK2ePFSWUz+XrMw+ltvDcepU6dQtmxZLF68GDabDQ0aNBDRSMBnn03GlClTsH79eowcOUKEztftpU2F64knnjTLgC1dukQ43Y8FCxZgxIgRZpmrESOGY8yYsWaJrYEDB4jsPo233x5honH79+/Hc889h7CwMOEYgJkzp6NNmwcQERGBcePGms8vp+xw1a8x200CJEACJODuBJxO2JYuXYEmTRqatN+IESOxbNkyVKpUCbNmzcR3382TxxxUq1ZNRORtdO/eXR7Po2jRonlCNlTYHn30MRNV/PTTiejduzcOHz6CDh2eQqtWLfHmm29h4sSJImR+6NHjRQQFhUgkrhceeeRRHDp0SF7rgXvuuRvDhg2XVPNvaNnyHvzyy3KsWrXyX2uCuvuHnv0jARIgARIgAVcj4FTCFh4ejrFjx0lU7TRuvPFGiR59j6ioSBG06qhQoQLCwyMkIhSO3bt3G1Hp1KmjCEkfBAcHuxr3TLVXU8IqbfPmfY/Zs79Bw4YNTeSxU6dOImUPo27dunjssSfM4uyrV69CrVq1cOzYMbRr9xCGDh1iIpbTpv3P/N67d0+JVjZEx46dRQLbm2O4eHumbgsPIgESIAESIIFsJ+BUwqZConVa5ctXMAKxZ8+fJrqmtVlHjhwxslKxYiWBkiLCdtjUaUVFReUp0VA+mrosV66cSYMeP37c1KCp7MbGxkr6uJyJwO3du8dw099Veg8cOIA5c+ZKFG4I/v77b6lzA0qWLGFSpPpQWWNKNNu/b7wACZAACZAACWSKgFMJm/ZApU0fumkhvT5PSUkWofASoYCpbbPe0+L6vBgV+oeR9t/LDDKwhEslLjUfi6XKXN++/Uy9moqZ7q/vKVM7W3nCjQRIgARIgARIwCkJOJ2wOSUlN2mURiM1Kkk5c5Mbym6QAAmQAAnkGQIUtjxzq9lREiABEiABEiABVyVAYXPVO8d2kwAJkAAJkAAJ5BkCFLY8c6vZURIgARIgARIgAVclQGFz1TvHdpMACZAACZAACeQZAhS2PHOr2VESIAESIAESIAFXJUBhc9U7x3aTAAmQAAmQAAnkGQIUtjxzq9lREiABEiABEiABVyVAYXPVO8d2kwAJkAAJkAAJ5BkCFLY8c6vZURIgARIgARIgAVclQGFz1TvHdpMACZAACZAACeQZAhS2PHOr2VESIAESIAESIAFXJUBhc9U7x3aTAAmQAAmQAAnkGQIUtjxzq9lREiABEiABEiABVyVAYXPVO8d2kwAJkAAJkAAJ5BkCFLY8c6vZURIgARIgARIgAVclQGFz1TvHdpMACZAACZAACeQZAhS2PHOr2VESIAESIAESIAFXJUBhc9U7x3aTAAmQAAmQAAnkGQIUtjxzq9lREiABEiABEiABVyVAYXPVO8d2kwAJkAAJkAAJ5BkCFLY8c6vZURIgARIgARIgAVclQGFz1TvHdpMACZAACZAACeQZAhS2PHOr2VESIAESIAESIAFXJUBhc9U7x3aTAAmQAAmQAAnkGQIUtjxzq9lREiABEiABEiABVyVAYXPVO8d2kwAJkAAJkAAJ5BkCFLY8c6vZURIgARIgARIgAVclQGFz1TvHdpMACZAACZAACeQZAhS2PHOr2VESIAESIAESIAFXJUBhc9U7x3aTAAmQAAmQAAnkGQIUtjxzq9lREiABEiABEiABVyWQZWFLTEyEPvz8/ODh4fEvDnFxcYiKikL+/Pn/896VwGJiYhAfH4+QkJCr7hsREQEvLy8EBAQ4lHVCQgL03Olpo0MvzJORAAmQAAmQAAmQQDoJZEnYVNQKFCiAKlWqYtmypUamLGlTWWvWrDkGDnwDt93WFMHBVxcxbafK2hNPPIn7778fjzzyMAIDA/8lbSpUH3zwIY4cOYKxY9//j7SpFKrM+fv7p6vbsbGxSEpKgq+vLypUqIg5c+agWrWqV5XOdJ2QO5EACZAACZAACZBANhLIkrCdOXMGP/zwI6pXr4F77mmJv/8+Dm9vH1y8eBGRkZFo27YtJk6chHLlyiAlJUXe84ZGtPSnbip8Kk0qaL6+frDZ/HDuXJg51tPT87JUqQgGBQUhOTnZvKcPPZ+np4cRu1deeRV//XUI3333rZwryETq9Nw2m82InLW/RgH1vLff3gKVKlXCqFHvoFix4kY6z549a9oWHR1tzq3yp+1SuYuLizXXTk5OMe1IHU3U/XUfPUY3fT86OspwUGnVc+s+eg7dAgICzbkvXLhg2mc9t9pmXV+vFxSk4uppjs+XL5+JBKakJMvzUMNYj9HrqvDqTz2fsrLvl2L6ExwcbNqu59BN99HHldHQbPyM8dQkQAIkQAIkQAJZJJBpYdMIlUrB9u07MXXqFCMGAwb0N0L08ccTUa9ePezduwdVq1YTKSqMP/74E+vXr8W997bGkiWLRWQKmn3mzZuLvn37oEuXrmjatBmGDBmEadO+wpkzZ0UEq0v061vz/qRJk7F79258/fUsfPnlNBQsWNAI0Qsv9MCCBT/g/PkwLFq0SNqz3Zz3rrvuFln8RI7ZhfHjPzSYZs/+Rto61ezn4+ODrVu34Z13RmLKlM9Rv35dkc57MHz4SCNCX375Bd5+eySeeqojWra8B2XKlEGhQoXQq1cvrF69QvbxN6L04IMP4umnnzFiqCLas+drGDx4KFauXIHu3XvIcTfitdd6Sv+6mDYMHjzItGPNmvUSLRwjkjlHpPcn6ddMnDp1Gs8995yRvBtuKCEi+rJIa6L0vz/uvLMFPvtsqmlDmzb3Cbf58pgnwucn+71m7oX2d8KED2W/KUbaHnqoPZ55pptp1+DBQ8zP998fI9dbwGhiFr84PJwESIAESIAEcpJApoVN05Dduj2LBg3qi7B0wZ9/7kPRooXw5JMdRArGoW7dOujYsZMI1Ysic4FSyxZjxE5FaOXK1RgxYji2bduGb7+dI8cVRv/+A9Cq1X3o1KkD1q3bIMd1x/Hjx0VKvhc5yy8p1+XYuHGjkbaxY8eJSD2J06dPY//+/di58w98+OF4/O9/X6JDh6dEHAeKIHXCnj17DEuVKY18LVy4GCVL3mBk58CBA6YN1atXw/Tps0SQiuHEiZPo06c3Nm3aiF9+WYnHHntEInE3Ydiwt0QmG+Pxx5/Ao48+isaNG5nom0YYjxw5Jn1+HKGhoXjvvTG48caSOHbsb+zbt0fk7XWz39y58yXd21rkray0c4IIbBGJRp6WdvYzTHbv3oNPPvlYjjsmPyfijjtulzTybZJOHoQ6dWoLp+0ivpWxYsUqFC5cGDfdVFH6tk8ihbdJNDHORNBuvbWuOXepUiUwf/73KF++gjDqIAyPYcuWbRg9+j0TdezXr7+cs6YIHoxccyMBEiABEiABEnB+ApkWthMnjoto7DWpupMnT4qEFBOhedwIRps2D5iIlUa5vvlmtsiSTdKSMSbaoxGy8PBI3Hdfa6xatdI8V2Hr27efRN9aoWvXzkbYSpQoblKN586dN8K2ePHPImY7MXToYIl8vYN27drJfuskitROpOSkyNdbEin7DK+/3hPt27cX4Wlu0o3PPPMsHnigLXbt+kNStA+iSJFCJo37xx9/iCT2Ezm6Q4RtJho2rCfn2yjvF5ZUYjwOHjwkAvSBSa9269YNjRo1NHV2Q4cOFTmqY0RM05pTp35u0rn6+759eyVC9oxEys6hd++eJpL21FMqkG/g5psrmf6cPRtm+nb48FEjh9rm/fv/kujYxyKMJyRN+54Rspo1a+GnnxaKSBaVSOAOkdUN0rYiRrTCws6JKDcSKa5tpE6lWdtSr159k37WiN3mzZtMtLJRo0ZyD+aYGkMvL29pp00if92N5FHYnP8LyhaSAAmQAAmQgBLIlLCpxGgN2LfffofmzZsaMXr22edESm7Gu+++K5GuaSJkrYzg6EMlQSNsPXp0F3n42kiLipYK25kz50zKtH//gWjd2h5h03Rh+fJlTcpRo14qbMuX/2IicjNmTJdoVn5T+/bVV9ON3KxevUYiYsskeveliNrtRhxbtLhdBCkGR4+eMGnAU6dOStveMwKkKduiRYtJROxd0/YZM2aJDBWUiN05jBs3rxDenAAAIABJREFUFhs2rMfMmV+b1KNKUNeuXUXo6ksk7SmRoCG45ZYal4VNBatEiRuwdu06I1UqRmfOhEkkq69Jd5YvX95E9lRWy5YtY+StePEiUnN3VNK9s+W9n6QfMySK96aJsGnqVyN2OmBD08SVKlWQlOrrpk5PU7QaMZsw4WORzOkmpbp581a8/PJLImrl8Oqrr5kI25IlP0tUbQvefHOoSX3+/vsuDBr0hpG4QoUKy++/GVljHRv/ESABEiABEiAB1yCQKWFTkerUqZMZYdm7dy8jBVrjNXnyFJMKHTfuA1NHpjKikaK2bduIcK0wwrFq1Qp5rDG1Z7/9tlOiR9slYlVb0o+PyTENJHX3LmbNmo27777TpPs2bNiM2rVrimyNkpq4vSYl+s4775po1a+/rsbIkSMkkneXEaEdO3Zg6dIlcmxLE73Suq6XX37FRPo2b94swlQWnTt3NHKjbQwPDzc1ZWPGvC9RuPuNcGr0TgcGfP75VJNibdfuIROFe/XVV0QC75CUaweJUD1vauA0SrVo0WJp058mKqe1bq1bt5Ko10B88cUXErFba/pw//1tJPLW3bRn+PC3pJZvnRn40Lt3H4mWhRkJW758uTmfXl+FSoVyyJDBRrJuvrkyPvroIxHHLmYgwdSpX+Ctt4ZJavkXiSy+LXxqiyguM/s988zT8tpIkyqePn2aGbRQpUoVOddQabOviQIOHNjfRNsobK7xJWUrSYAESIAESCBTwqbYVNq0Jkprw/QPv4qEjsbUFKn+1PdUanRwgr6moxp1BKNGxs6fP28GKWgRvAqLzoGmAwj0HDqCMSIi3ETR9LzW+9bUHVqPps910+P1+nqsjoL08fE2UqLnsdqlbdGIoO6rQqRt0bZFRkYYmdE26ahOHXmpx+m5rVGi2hZ7u+LlfMHmPCqKOlecPm/cuLEZBduoUQNz7vXrN5p6vp9//tlcR0XWYqXH6WYxsNpsRbr0+PbtH5ZI2zCJypUz7LQPykvbq4MIlJkyUdG0j6z1Na/rwAQdlarn0H20D97eXsLSPmedSmNUlH2UqMWMssYvPwmQAAmQAAm4DoFMC5vrdDF7WqpSp9L1xhuDULlyFZNi/PHHHySy9vl/5pFLTwv0XA0aNJQIYGeJ4D1nxJNSlR5y3IcESIAESIAE3J8AhS0L91ilTSN1iYlJIlcwkpV68uCMnlqlzYrgUdYySo/7kwAJkAAJkID7EqCwue+9Zc9IgARIgARIgATchACFzU1uJLtBAiRAAiRAAiTgvgQobO57b9kzEiABEiABEiABNyFAYXOTG8lukAAJkAAJkAAJuC8BCpv73lv2jARIgARIgARIwE0IUNjc5EayGyRAAiRAAiRAAu5LgMLmvveWPSMBEiABEiABEnATAhQ2N7mR7AYJkAAJkAAJkID7EqCwue+9Zc9IgARIgARIgATchACFzU1uJLtBAiRAAiRAAiTgvgQcJmy68LguUq4/ZcUms4C6LtfkrJu2UZd/8vT0gC4or4+cXA5K+SQlJZmHPk9Odm5eeh+VmfLSdVOVl7VwvbPeY7aLBEiABEiABNyFQJaFzVoEPSQkBOXKlUXRokXg6+vr9HxUJrXt4eEROHLkKI4ePWba7O3tne1tt0StRIniKF26NPLlyycC5GmEyJk3ZRYfn4CzZ8/i4MFDCAsLM/daxY0bCZAACZAACZBA9hHIkrBpNC0hIQG1a9dC1aqVjXQkJWmEzcnNIxVPK8J24cJFrFmzDqdPnzESkl3RNuUVHByMJk0aoXDhQiYiqQ9X2jS6pvd4//6D2LBhk4mk6mvcSIAESIAESIAEsodApoVN/2DHxsbijjtuR9myZcxzV940SqTRtUWLloq0nYKPj4/Du6MpY5W1++67RyRH5TbJ4dfIyRP6+fni1KkzWLz4ZxNlY6QtJ+nzWiRAAiRAAnmJQKaFLT4+HhUqlEezZk0QExPjFsysqNqsWbMdLiD21HE8HnqoLQIDA1xe1qwb7ufnh507f8OWLduyNTLpFh8wdoIESIAESIAEMkkgU8JmRdc6dnzi8gCDTF7f6Q7TdOi2bTuwY8dvIiA+DkuNau1XuXKl0bRpE6kDi3e6fmelQRqZ/OabOWbQCVOjWSHJY0mABEiABEjg6gQyJWwJCYkoUqQQWrW6x+VToVdi0Zq2qKgYzJ0736RFHZHmswT33nvvFm5F3Ca69k+UzdfU/+3bd8Awy676P36JSYAESIAESCCvEsiUsGmEqHLlm1G3bh0z6MDdNq3Nmjp1momwOULYdFBBdHQ0OnZ80pzPlQZlpOfeaoRt7979WLt2HTRF6ghm6bku9yEBEiABEiCBvEIgU8KmtVjVq1cxo0PdUdgCAgIwefJUh01ZoYIWFRWFrl07mlG07rapsB04cBCrV6+Bv78/I2zudoPZHxIgARIggVwnkGFhs4rna9So6sbCZhNh+/xySjSrKT4KW65/ztkAEiABEiABEnBpAhkWNk3vaUq0evVqqFMn+yJsUkoGb3noT32kZ5PFApAkj0QJYmVlJriAgH+Ezb4aQtYmhlVhi4iIQrdujLCl5z5yHxIgARIgARIggX8TyLCwWRG26tWrZouweYmc+cn/Tkcn4a/wZByPTMa5mKTrptlUzjxE0QrbvFAunxdKh3gi2NcDsYmZEzcVtkmTPr9cw+aICJsjhC2d3nrdz3hWRPZaJ7ZSoqtWrYHNxpQo/5EhARIgARIgAUcTcCphC5BVoU5EpmDOvlgcuCCTyibq4pUZ1BQJs3n5eaJZCR+0LCPLJsnhGnHLyOaMwmanoOuNZpBH6o7rGq/mLI7dKGyO5cmzkQAJkAAJkMCVBJxG2AJ9PPDLkXjM2xun4TL7pqKlKVEROR8NvV3LNOStOJMLvXScZjDleUCAB16vbUOoCFx8BqTN2YRNcah0vrs52qDJrLNFJaTglVr+KBbgZVLHV7hcpr8dFLZMo+OBJEACJEACJJAuAk4hbCGSvpy1Jxa/HpIpQnTtdZGtQpLW1ChZ+fxeEN+C93UibSoxcRJZi5bDt59OwMrjiUjR6Nwl8RvQIAD5/T2RkE5pc0phkzq4Qauj/pHZjIbJlIUI22sNA1Ai8N/CZqJul6Jv6frUXLEThS0z1HgMCZAACZAACaSfQK4Lm00EbfWxBHy3S9YilSibRtXaVPLD7aV8oIMILg8gSEtQNBIn/faTNcgjRdw++z0Gf52TtKr8ruuSj2wcZM6X1mkUnTMKm0bE3vhVhE164CujMYJEcrU/aW1GZuXgaJE17XywnwyikBBd6kMT5URa+9epin+6pTb1dSlsad0Fvk8CJEACJEACWSOQq8JmMpcS2nljRaRd1iSy1rWmDTULe4t0pcNGrtF3zZ76i6R9sC0GB8JE2uRUtW7wESHxQ7SVNr0ON6cWNpGruhJ5fKqyH2LS0Rdf4bD2RCJmW0J8ZS5UjU4k+UaJZL5cM0BSxxnnTmHL2peQR5MACZAACZBAWgRyVdh0kMH/dsdiqwiFSlXLCr5oXdYvS7JmdVgzqOqAfSUqlWjq21IwtGkQ/OXFtJzE2YXtVpHPDhkUtjnCWaONIZIatrLLKrbnYoSNACkjwvbiLRS2tL4wfJ8ESIAESIAEcoNArgpbsMjTS8vCTRW9pi3HNg92iKxZIDXKtvZEAr79UwYyXBLCu0v7Sorw+qhdQdiezICwrRMhNsImDF5rYLtcw6a1gz2WRyJFhJbClhtfP16TBEiABEiABNJHINeETSfFPRKZhAkbo83UHY2lZq291K6lJ82Xvq7Z6/M1itRnRYSRwtKhXnhVRo2mdQ13FrZXRdhu0EEHkgbNJ/VsPZYLGxFYClt6P1XcjwRIgARIgARynkCuCZuvFLBtlhGds36X6JdsnW/xR9WC3pkqer8etnwSReq1KhIx8SkIEEEZ3igIsVfWcV1xAncXtuKXpvVQNi/8QmHL+a8dr0gCJEACJEACGSOQa8KmozmXHUnAT/vs6crudWwoKxEwa5Jbfd8no5PmXup76gELQZJ2fU/mLzt6UVZLEEkcc1uwrIBw/cJ6ClvGPkQcdJAxXtybBEiABEiABDJKIFeFbcnhBCw+IMIm6bnnRdjKXRI2lbUf/4rHzjOJ9glzM7BFSiRtSIPAy6MddULecVuj8df5JHjKeUdLnRyFzT4PGyNsGfhgcVcSIAESIAESyEUCuSpsP4uwLbqKsOno0c9lGoodMgGujmzM0BaXgvfvCbmc9jTCtkWETZa6orABWsPGlGiGPlHcmQRIgARIgARynYBTCpuO7pwlS1Rt/DsBvhmMsMVLhG1Mi2D7UlWyUdiA1KNEKWy5/p1jA0iABEiABEggwwScUtg0CRovwqXOlbGEqH350QAZgmpVqVHYKGwZ/lbwABIgARIgARJwMgJOKWzKyCxynklYqZcMzWvCpgFJHxlcoeumqvDqSgeMsGXyg8TDSIAESIAESMBJCDitsDmKT14SNhW145HJ2HIqEbWKeKFksJdZ1YDC5qhPE89DAiRAAiRAArlDgMJ2Fe6uOK2HRiN1EfdBa2SBeLPGaAr6Nw5EkQBP/CqDN6yVDljDljtfNF6VBEiABEiABLJCIEeE7WrTqenAgsUySnThfvu0Hj1utaG8TOuhqbz0brJu/OVatWsdk1cibMr4bEwyRq8XYdO8qIyWfa6eDVUKeGMVhS29HynuRwIkQAIkQAJOSSDbhU1XNDgtInFlPZqfSMWq4wlYcSjeWFeH6v4oHeJ5eeLctGjpoIJAGVwQINN2XE/y8oqwKS+dv27K77HYdS4R5fJ54dkaNlPPtjbVWqKMsKX1yeL7JEACJEACJOB8BLJV2GwiEF/L9BzrjyXIeqFXdP5qIwquvwDBf+nJ+qAv1/JHiSD7RLBX2/KSsGn/dZDBhdhk5Pf3lJG2MgCBgw6c71vHFpEACZAACZBABglkq7CFyFqVL8lalSma5lRB05+pU55XSlt6hM0aPqoCKLVaDWXR+Idl0fhYkRMKm52AorEwc5RoBr8R3J0ESIAESIAEnJBAtgtbz5URiNMieBGtRsV9EOrvgRj5PSXN6rP/0vKSiJpN0qB7whKxT1YugPzX5EYfPFTRz5yTwvZfAhQ2J/zWsUkkQAIkQAIkkEECOSNsGv2S6Jmf1Ju1LuuLFqV8TcAtXkY16sCBtDYtqFdROxeTgrmylNWmk5Ji1Y3ClhY6zsOWJiHuQAIkQAIkQALOTyBnhE2jX2pdCWJnImlBgZ5oL2nMmoW9TZ1V4nWkTQvpEyW/t+RwPJbJw0xZoeuLat6PwpbmJ4wRtjQRcQcSIAESIAEScHoCOSNsEhC7QUaANivpi1l7YiW0phG3FJQu5IVHKvmjZJAnYkS+xOUub94iZBKQw+bTifh2XxziZKSpboVl9OMD5f3w2Y4YE7VjSvT6nzEKm9N/B9lAEiABEiABEkiTQI4JW7FgT7zZMBBnRLzm7Y/H5hNicepgIma33uCNtiJhgTJIQSNu/jLlx1/hSZi5Jw6nLtiL03xk1OP95XzRrISPqVfrL7VxWhhHYaOwpfkp5w4kQAIkQAIk4OIEckzYioqw9a8bKKM5U0w92rGIZBGyWByTAQRmRIIv0KacH+oU8cZ3InQ7/hah04ibpD8bl/SR2jc/+Hvb18iME6kbvNoubLeX8cVjN+mgg6vnVXVaj3c3RWN/WBI85Vyjmwcj9no5WDmrK650cK3PISNsLv4NZfNJgARIgARIQI2nTp1a6Sj7/4dViqQy4+LiUb16VcixSEi4NADgKjh1Wg8zSlR2sYQt+pIsibNJQbwHdp5NkLna4hEVpSMTdOXyS7VuYmsVi8gI0Aq+KC7zrEVL/Zs2VEvX4kXajLBJXVwRqYczE+5eoxc6ceyus8mIlIM85TmFzYbiAfZ56/LJ/XlBpl3RWsAy+b3w4i0BZiBIRjdvb28cOHAQq1atgc3mDw8ZzcuNBEiABEiABEjAcQRyTdisLuhKCLotOyrLVB2SZapiU5Bf6tTaV/RFtULeEg0Tn0jlEP8SNi/5TYeZprWclR4kDqHjHihsFDbHfX14JhIgARIgARLIGQK5LmzaTY3H2CTdGSay9vu5JDSWmjb1MI2kXbn9W9g8TDRHByhca3oQDfYkaNRI/nM1YdMlQXXTdutI2f6rZZ1Q6UvdEr7oWMXPRB3T2nSU7RpZmmr2LhnsIbtfa2mqshJhe6WWRNjEjq2zXmv1iCuvyQhbWneB75MACZAACZBA1gg4hbBZXVAxUUm53tqg/xI2Ub2GUt92nwxGuNZKBwGSe524MwaHZaJdV6thOxVtX4PVErYPtsnIWBG2apIqvq+cj31C4jQ2XZpq++kkLDko0UuRvmsJWwmJaj55k7/MvGKfG0/vQyGbZ7qmN6awpXUX+D4JkAAJkAAJZI1AjglbcakzG1I/EFrDlnZc6NqdUnnRkaR9V9gHHTSVlQ50TrdrrXQQJDVxY7ZE46/zriNsKmkaFRy8QiJqSstE2rS+T3/ITw19pTf8pYcqNC0ajE+5urDpDdGHVQgoYucb4InhjQLkpbTr0ShsWfsS8mgSIAESIAESSItAzgibRIKC/GREp8zDdrU0Z1qNTP2+6kOSyMzPh2QyNzedh037mCh9HLRShC1tX0o/PhG2l5oEoGRgqkEHP4v4Wmu9WmeSEJu/RNeGqbAlp90AClv6bwH3JAESIAESIIHMEMh2YXtZRiEmW7Vo11igPcMNV4fQ1Q508XeJsD0sa4leb/H3sRJhOyQRNg+pkxvjKtN6iIxuPJVggmOO2jTVXKuwl9QL2lOdOuBjnUyfcmXEU1Oi/hKRqyGDPtITDaWwOeoO8TwkQAIkQAIkcHUC2SpsOpDg899jsVPX/rQq6B11Jy6ZxLM1bagQ6mWK8q+2BaqkibAdOS87XBK2uDTSic4yD5s1gtZRyPQ8Km2pJexa19B9rldLmLpNFDZH3iGeiwRIgARIgAT+SyBbhU0vpyM4j0cmia85MFQk59UokE6KGyqp1uulWTVCFRabbOretAlFJdWX1iwgziJsrvKBpbC5yp1iO0mABEiABFyVQLYLm4JxdHDNgq1RoPTM86rSZuliemr1KWwZ+zhT2DLGi3uTAAmQAAmQQEYJ5IiwZbRRub1/QEAAJk2aCl9fH1kdwTPLM/fr6hAREVHo1q0jkpLSiu/ldu8zfn0KW8aZ8QgSIAESIAESyAiBDAtbsowg0OWoKle+GfXr34r4+GsvTZWRhjjTvn5+vpg6dRp8fLyNrKm0ZWVTYYuMjEKnTk+ac+nv7rSpsO3duw9r126Av79flgXXndiwLyRAAiRAAiTgCAIZFjaVjcTERBQuXBitW9+D2FiZQd+NNk/Jn0ZHx2DOnHkibI6LsMXExBheyi0pyVHDZZ0DvArur7+uw759+yUq6Uthc47bwlaQAAmQAAm4EYEMC5v2XaNsKiBdujwlz3VmfPeJGKlwbNu2XR47JFrkmIXMlY9GIsuXL4OmTZvIc5lDzo02FdtZs74RkZfBJV5eFDY3urfsCgmQAAmQgHMQyJSwqYDExcWhUqWKaNasiZE3d9g0/amP6dO/tq9R6u0Y+VDBtZg98kh76KAGd4my+fn5YceO37Bp0xZopM0RKWR3+CyxDyRAAiRAAiTgSAKZEjZLQGJiYnHPPXegdOkyLp8a1doyjRT99NNinDx50gw40LGlWa1f05ulsmalkoODg/HAA63NuV1d2lTQTp06gx9/XCxyq6zsgqsPbiRAAiRAAiRAAo4jkClhswRExU0jbfXr10XVqlXkD7ZKiD2a5CqbttnLyxsXL17E6tVr8Pffpy4XzjtSPpSVbsorNDSfRCabSj1bISNt1nuuwkzTnrrt339ABhqsN8914IFujhBcV+HAdpIACZAACZBAThHIlLBp41JLm6ZEQ0NDUbFiBRQrVkRSY36m/c7sbRoEsk+3EYGDBw/h8OEj5ncfH18jno6UNYuX/rSPsk2Un0koWbKk1LWVNQJnHz2aU7c9c9dRZjpC+PTps0bWzpw5I/faX4TX87KoMbqWObY8igRIgARIgASuRyDTwmbJhyUjWnBuFxFZ4POSrDmzgKh82B/2CJtGiFQ8LOHIjkiRJbm6OJQO1tDRtsosJUWjks4tuHpPLWZW+lgjbSq3mt51tODya0sCJEACJEACJPAPgSwJm5X6tP9UCTGqZv6wO7uAWPJhl0qtv7L/tIQtuyJFqZn9I3D/3BBnldwry9IsQctuXvyykgAJkAAJkAAJiKHUqVMry4m4f4ub88uHFS1K/QHISfG4Fi8rMumMH8yrjSPISWbOyIRtIgESIAESIIGcIuAQYbMa60qDDa4EnF0RtevdSFfmZZdejgbNqS8qr0MCJEACJJC3CThU2PI2SvaeBEiABEiABEiABLKHAIUte7jyrCRAAiRAAiRAAiTgMAIUNoeh5IlIgARIgARIgARIIHsIUNiyhyvPSgIkQAIkQAIkQAIOI+BwYQsPvyjF6J5mTjObLSBDhenWklfWTPrp6WVkZCQCAwPTfR2d+8y6jjXBb3quk1v76ELxOjGx1vcHBAReXlEgt9rD65IACZAACZAACeQ8AYcKm8raxx9/apZfOnXqJEaNetfIlC6/pBKmsqSbTryqv+us+brp+/ooUsS+SsLp06fNqgNX7nfl73qdESNGYujQwbL2p58RMX3ofvrTPinuP9fV30uXLi1LQhVB/vyhWLRo0eVVGXIefdpXVFmrVq0aund/wUxQO2TIYLO6gMVQ+2OtR6oT/yYl6SS89mWiLA6ppxDR1/Q96z4oGz3+Sk66D0eApn1/uAcJkAAJkAAJ5BQBhwpbWFgYli9fgerVq6JAgQKyvmhVHDt2DDfcUALHjx8zi8QXKlQI+/btNeJxyy01jUCoqBUsWAB79+4zYrJz507Url1blj/aDz1nmTL24/T3CxcuoGbNmibqtGHDBqxatRqtW7cy4qXLY+m+e/bskWWyKoo0njbXrVKlqlzHC+vXr8NTT3UyxxYrVhwTJ34sUasAI3XOKCixsbG45557pF/58fnnUzFp0md49tluaNCggfTruGGhfdO2b926BTfddDPy5QsxXEqVKoVz584hKCgIKn66sH25cuWwadMmc19sNhu2b99unuvyXHv37kWNGjXM/r///rsRZmdkklNfDF6HBEiABEiABJyJgEOF7ezZsyILm4wUzJ8/TyJCb6JOnVuwZs0GNGpUTyJn5/DCC91FOp7Hu+++jU6dOmPhwp9E8KqLKAQbCVHJaNWqNb799hu89NIrIid1zXEvvfQCevR4AU2bNsbYsePRuHETdO7cEZ98MhHt2z8ElZtt23bINQehZ8/eeO+9UfJ8iEhIdfTr1x933XU3Ro4cgV69ehv5KVq0qLRzo4nGHThwwPx0NkHRPjVr1gyvvPKqCKeP6W/37j2MYNaqVRuzZs0UYauCxYsXISoq2vBUQVWOTZs2lb72xOOPP4Hdu3dLFHIoJk/+TBa3P442bR7Azz8vMSJdoUJFeZSXyOjHwvhlTJkyGStXruRSU870LWVbSIAESIAE8jwBhwqbFWFr1Ki+qWPbtGmLLG5eRiI5v6FFi9vw4YcT0LVrZ/zww0L89tsOrF69WoRtoYjCSyISf5saLY14PfVUR4m+VcO8eQvw8ssvinyNNsf9+ONCzJkzB5UqVZRUYXVJuY4S8XsX7do9aNKwixf/bARv9eo1aN68qUjJMowfPx73338/IiOjJPL2p8hKWxGdGZIWLWxSr5pG1HY4Y5RNha1ly5YSNQuVCGQhiV4ulRTw25g6dapExS5i8+bNeOCBtiZtevDgQSOe33wzy0TilKOyUznWiFn37t3x6KMPo3//gZg5cwa2bNls+KjsHT9+wkQla9WqiXvvbY3Bg98wUbnsWE81z3/jCIAESIAESIAEMkHAocKmNWz/+98MdOnS0dRQDRo0GCEhISZVd+edLUy92cCBA/Dpp5MxYEA/ifhMMaI2efIkvPPOO1i2bJmRjpIlS4mEVJVaqyQTkRs+XI/rb4Rv0aKFeOih9hIhK4bevXua6NmLL74g9XDxIjJf4sknH8eXX/5P2tAZn302xdR9jRkzVtKH57FgwQIRklYifgskDVsU06d/ZVKDmi50tuia3kuVpiZNmqBEiZL46qv/iXxOEIn9zkTNDh8+bFi0a/eQEd1BgwZi9OgxUptXwDyvXr2GObZkyZIm0vj0008L8/6mv8rx0KHDRtz69OmLo0ePYNq0/xlRVjHs378vhS0TXyYeQgIkQAIkQALZRcChwqaNVGkLDg4xAqQjOFNSko14aX1ZdHS0GYSgNVMaAdL3NYqj9Wf6noqTVQifnJwkZ/MwNVWpj9N9NJqmQqjvaT1acHCwuV54eLh5rue3flrX0ff1OipBfn6+pjjf398/u7g67LzaXh0YoG2PiooyNX/6mnLy9fU1LLTeTPsZHR1lnuvoXD3m/+3dCbhN9f7H8a8zTxKZIjmolHlINNxo0oy6DcYrRBrvvyS3bjTQTZO61b/+V6HRlKmIS4pkVhrIUEKEokzHmaf/9/s7tqRzcPZZm73Pfq/Hec6w1/7ttV5reZ7P8/0NyyZ1mJO9ZvuZvb1u7vZ+s8zISNdrEOksrKJn18u6p6mueXYJaQgBBBBAAIESC3ge2Ep8RDSAAAIIIIAAAggg8AcBAhs3BAIIIIAAAgggEOQCQRPYirsAbpC7cngIIIAAAggggIBnAkER2Cys2YQE36B43zg2G29lPx+8GK5vUVx7rWCx2Fw3Lsv2Y9yVZ/cFDSGAAAIIIIBAEAkERWCz5UBmz/7Ezfq0CQO2jpgtbFu9enVd/uMbN9Nx06ZN+reqbp22ChVOcgvt2rIWderU0UV1K7n1x/bs2UNoC6Kbi0NBAAEEEEAAAW8EgiKwWQhbvHipLu3xpFsvrH0Yblj7AAAgAElEQVT7djJ58vu63Md/pHPnrm75DVu53xaRffzxx/RriOzatUtmzZopN910s1umwxZ7tXXVrOrGhgACCCCAAAIIlCaBoAhsVmGbN2+BVstq6pML/uOW57ClKPr27atrhG3RNdnO0kdcbXVPR9i+fYeutdZV1w1701XibF2xXr166wK8H8qcOXOC+tmgpenG4VwQQAABBBBA4NgJBEVgs2dijh491gWw5OSa+lSEi3SB2PfdemFr1qyRWrVqyQsvPK+PaPq7ruI/3D3yyp5FOm7cWH2O6NWu+3TSpAka+uYR2I7dvcMnIYAAAggggMAxEgiKwGbnaqEtMjJCJxHk6aOYyulYtr1uMVybSGCL3NrCsbb4a8Eiu6n7F9yNc4vI2sQDW/jVXmNDAAEEEEAAAQRKm0DQBLbSBsv5IIAAAggggAACXgkQ2LySpB0EEEAAAQQQQCBAAgS2AMHSLAIIIIAAAggg4JUAgc0rSdpBAAEEEEAAAQQCJEBgCxAszSKAAAIIIIAAAl4JENi8kqQdBBBAAAEEEEAgQAIEtgDB0iwCCCCAAAIIIOCVAIHNK0naQQABBBBAAAEEAiRAYAsQLM0igAACCCCAAAJeCRDYvJKkHQQQQAABBBBAIEACBLYAwdIsAggggAACCCDglQCBzStJ2kEAAQQQQAABBAIkQGALECzNIoAAAggggAACXgkQ2LySpB0EEEAAAQQQQCBAAgS2AMHSLAIIIIAAAggg4JUAgc0rSdpBAAEEEEAAAQQCJEBgCxAszSKAAAIIIIAAAl4JENi8kqQdBBBAAAEEEEAgQAIEtgDB0iwCCCCAAAIIIOCVAIHNK0naQQABBBBAAAEEAiRAYAsQLM0igAACCCCAAAJeCRDYvJKkHQQQQAABBBBAIEACBLYAwdIsAggggAACCCDglQCBzStJ2kEAAQQQQAABBAIkQGALECzNIoAAAggggAACXgkQ2LySpB0EEEAAAQQQQCBAAgS2AMHSLAIIIIAAAggg4JUAgc0rSdpBAAEEEEAAAQQCJEBgCxAszSKAAAIIIIAAAl4JENi8kqQdBBBAAAEEEEAgQAIEtgDB0iwCCCCAAAIIIOCVAIHNK0naQQABBBBAAAEEAiQQ0MCWl5cn+fn5EhERIWXKlDnsKRxp39zcXNeGteXlZsdnbUdGRh7xGL383KNpK1DnfDSfzT4IIIAAAgggEDwCJQ5sGRkZYl/lypX7Q+CxABYVFSUJCQmyZ8+ew4Y22zc2NtZ9FbavBZeyZcu6YJWenv6n0Gbvt+1ow5xvf18AtGP/7bffjipYennp7HyKCrP22gknlHPnm5OTfdTn5uXx0RYCCCCAAAIIBIdAiQKbhYlLLrlUunbtql9dXKiyEOQLVh06XCdDhz4ltWsna/g4wYUOC0u+apuv+paZmSndu/eQG274q1xxxeUu5Nk+vtf37dsnI0aMlA0bNsiTT/5L4uLi3Gu+dqw6Zm1nZWUdCDb5+fY5BZU9O56DA539LTo6Wvbu3Sv16zeQ996bIA0a1JOYmBh3fL59fcdrn2Vfth1aifO17TseXwCzvxf2N/tsXzXRvFJSUlybth382RYgf/xxszz++GMyduwYZ8KGAAIIIIAAAuEp4HdgszDyyy+/yNq130liYpL06dNHFi6c78KHr7LWtGkzefHFl6RmzRqSnJzsAtJJJ50kO3fudPtYYNm1a9eBAHNwVc4CT2JiotvXF2TsM/PyCipPFmAsoNkxvPvuaFm+fLmMHDnC7ZuTk+Pazs7OFguDFhYtKFlb9p677rpHTj/9NBk0aKCkpu7TYFVQnbP3VaxY0R3b9u3b3d8sHPqOxdeGvW6v+f5uFUY7poyMdHeOtl9cXKz7m32+fa6FQTsOqyCawbZt22T16rUaUNvuN8jXY05yx7Jz52/uPT/8sEEeffQRmTJlMoEtPP9/ctYIIIAAAgg4Ab8DW3Z2lpxySg358MMZ0q/ffVoh6y7t2l3rAs/nny933aQpKXs1dJWVSpUqaDBK1wCyToNbLUlLS9Pf06Rq1SqyY8cOadSogYanR6V9+w7SseMNMm/eAvn1119dWxac6tc/U8PgYlm6dKmMHz9O3n9/qmzZskXKly+v+98sH3wwVQPQVpk1a6b8/PMv0rfv7a6L9tlnn5GNGze60Gjb5s2bpFOnTjJ37lztasxwIW/48P+TMWPGycknV5GXXnpZq3w3utC3efNmad36L3LHHXfKAw8MOHA8I0eOlKefHurC5K5dO7WteVKlSlV3TnY8N998o2zdulU++2yBWGUwKSlJ7r+/n7z55ig9152yfv16qVUrWV5//TXp3fs2Wbfuexk2bJieY339vY8LdgsXLlCLdvLTT9vksccIbPxfRQABBBBAINwF/A5sVil6+ulnddxZjDz44D/k669XaBg7VcNSX7n33vu0WpQot9zSQwPR6xpu4l1gs2D3yisva1jKkhtvtGD2qVbIdmjgqSQDBvxDrrzyKunRo7ssXrxUuyjP0rC2Q79+1YpUeZk58yP54ovPZcGCBfLWW2/LI48MkrfffsuFIqtEDRky2IWg++/vr8fzkIaimq7b074KKl5xLkhWrFhBK1bvy5o1azSI9dfPvFIrdGPkzDPP0L99J2ef3Uyrhms0bKa547X3DRo0yL2vV6/e2sU7VJo0aXwgsM2YMUu+/HK5dOvWVcaNe0+rbjmum7Nevfpy8cVtXHgcNux59/5ff90pzz33rDzxxBA566z67lySk2uoYZyr6lkFsVWrc7VSOMoFyA0bNmmX6KNU2ML9fynnjwACCCAQ9gJ+BTYLFtu3/6JVqK2ukmahxraBAwe6rsBu3bq5MWHXXNNORo8ecyCw9enTWyZOnKAD/HdJhw7ttQo1z/18cGDr2fMWWbRoiQauU13b27ZtPxDYVq5c4ULW2We3kIcfHijnnXeeVK5cUatom2Xw4MfktdeGu2qYjZ278srLXQCaNm26q7bNnv2RVgFvcZ81deo0WblypWvr8svbamAbK40bN3Sh04KeVc62bdsh//rXEHdePXr0kDZtWmt1rrN+7sPSosXZBwKbBck5c+bIfffdq2FsmKsKWoUuOjpGA2s3rdjdpEFyhKsyWoWtS5fOWtn7wlUnP/potjtP85s3b6Ga/qwhbaO0bdtWTj31FHdeBLaw/z8KAAIIIIAAAv51idpkg+uvv15D0hPa5RfvAsedd96l3XeD5cIL/6Lh4zOtNo2Thg0buEqT7bNvX7rcffdd2v042lWarMI2d+4cDTG/addoJQ1Cj2iXajvp3LmjzJ+/UE47zbpO07V78WcNQeVdF+PSpcvcezp27KRdiz/I7bffIXXq1NYQOFH3qSSTJ09ysyqte/aCC87X8WMZsmnTFu22nebGp1mXa40a1aR//wGu+3Hy5Mka3j7QYxqrgeok+eSTuW7s26pV38pVV12tIa6RBqwu0rNnT2nevJn87W/d9ZwHa3XsTDemzILdlCkfyBln1JVJkybqsXfRSmF/DYPf6mdO1+7b8drOVRoap2rX6u06Lm233HprL60gLnJhdN269Vo5nKmVtvkazAbrxIrXNcDV0srcJa7Ctm3bL24Mm3UDM+mA/60IIIAAAgiEr4BfFTYbuN+8eXPXjbd48WLX7Whjr66//q/y6qv/q5WvC7TbsIkLInXrnqlhZoJWp7po5WyhGxvWpUtXHW82S8Padq1e9ZQ33hilIaieVKt2smvPKmTjxo11g/otJI0aNVIuuugiNxDfxqhdccUVbtD/smVLtRtztVbQyms17xo3AcHGydWuXduNU7PttNNOk5YtW+kA/1VaqauoVa1Z7nivvbadq4R98snHbqarBa68vHy57rrr3Liz//53hmuvbt26Ommipnz88WyteiVr5bC+C1l27hbYZsyYqRWzL13I27Nnt3vNumBtTFqLFue4sW82acB8bHzc/PmfuUkGFiDr1avn9rEQalXAxo2byJIli/XzkrXd6Rpg27tK4JYtP7nPY0MAAQQQQACB8BTwK7AZlYU263K0IOJbqsKqRvHx8e41C1sWMnxrrNlrtq/NIrUqmI19i4iIdIP17T0WYAq6EqPdzEqr2lm7vtd9S3ZYULPXbbP2bX97n/3NXrP27Xffcdn7rG37ux2vrfVm331t2H62j2+pEPu777ysfXuvnYvtZ9/td2ujYMbobxpKF8n06dO1uviomwXqe833uXZMvr/ZefsMfIbWnu8cDjWzY7FjIKyF539OzhoBBBBAAAGfgN+BDUJxoc8qf1b1s4kKFrzYEEAAAQQQQAABrwUIbCUU9VX2CGslhOTtCCCAAAIIIFCkAIGNmwMBBBBAAAEEEAhyAQJbkF8gDg8BBBBAAAEEECCwcQ8ggAACCCCAAAJBLkBgC/ILxOEhgAACCCCAAAIENu4BBBBAAAEEEEAgyAUIbEF+gTg8BBBAAAEEEECAwMY9gAACCCCAAAIIBLkAgS3ILxCHhwACCCCAAAIIENi4BxBAAAEEEEAAgSAXILAF+QXi8BBAAAEEEEAAAc8Cmz0w3R5ebg9et5/1X9Bv9gD3iAj7inBf9jsbAggggAACCCAQbAIlDmwWznJyctx5Va9eXapUqSyxsTHBdp6FHo8de0pKivz442b3PSoqygU3NgQQQAABBBBAIJgEShTYLPDYw8+Tk2vKuee2lISEhAPhTSQESmxSxlXVoqIiNbRtkvnzF0tWVpb7nWpbMN2mHAsCCCCAAALhLVCiwJaeni7NmjWVFi2aSVpauusKDdXNqmt2/JMnT5X09DRXbWNDAAEEEEAAAQSCQcDvwJadna3dn1XkmmuulNTU1GA4lxIfQ2RkhGRkZMn48RMkJiaG7tESi9IAAggggAACCHgh4Fdgs0pUWlqadO3aUSIjCypTpWWLjY2VRYuWyNq137nQxoYAAggggAACCBxvAb8Cm00yOPHEE6VDh2u0+zDjeJ+Dp59vkw727NkrU6d+KNHR0VTZPNWlMQQQQAABBBDwR8CvwGYD8+vWPUNatWqhg/Sz/fncoH6PBbU33nhHK2wEtqC+UBwcAggggAACYSLgV2DLzMyShg3ruQkHNpattG022/W110Yyjq20XVjOBwEEEEAAgRAV8DOwZWpgq1+KA1u8BrZRrks0MjIyRC8th40AAggggAACpUWg2IHNnmRgXaINGzaQ5s1La4Xt98BW8DQEFtMtLTc854EAAggggEAoChQ7sBUslmuBrX6pDmzDh486MIaNRXRD8dbmmBFAAAEEECg9AgS2Qq5lQkK8ENhKz03OmSCAAAIIIBDqAqU6sEXqs9xz/VgijsAW6rc1x48AAggggEDpEiiVgc1GnMXoXIFNKblySlKkZOUV76IR2Irnxd4IIIAAAgggEFiBUhfYovfPD/jPN+mybluO9P9LolSMjyhWpY3AFtibjtYRQAABBBBAoHgCpSqwxevz2rek5Mm/v0qT7Kz9EFppe+7CspKZd/R9owS24t1E7I0AAggggAACgRUImcAWoePRbExadhHdmwka1uZuzpIpazJFonRH3S86uoz8vVmCVIovQ4UtsPcRrSOAAAIIIIBAAAVCIrDFaZVsX3a+zPoxS9rXif1TaLPX31mdIcs361MXYi3VidSqGCl3NIoXOUzIK8qVClsA7ziaRgABBBBAAIFiCwR1YLPxaDZ5YNbGbPnwu0wpl1hGHjsvSdJy/ti9aZW33Zn58uSCVAXIl6vqxsqVNWMkVYNbMecbOEACW7HvI96AAAIIIIAAAgEUCMrAZt2f8RrU1u3Ok5Gr0iU1VWOXprLKSRHy0DmJfwps5mNVtqU/50iFuDJSt0KUhrWjH7N2qC+BLYB3HE0jgAACCCCAQLEFgi6wWfDKyBV5e1WGrP5ZS2Q6Ds26NbVwJpUTiw5sduZWkdMHMcghBbhioxDYik3GGxBAAAEEEEAggALHJLBZxcy33EZR52KZLEoD10zr/lynEwdssyU6rFC2/7svsGVoItNHfBZrIkFxDAlsxdFiXwQQQAABBBAItEDAA1uMhi0bX/bF9mxXKCtqi9QE9ulP2bI3VctrNsvTvsWUkXuaxsnIlRmyOz3fdYkOapUo87dmS3l9rdaJkZLjzyC1I6gS2AJ929E+AggggAACCBRHIKCBzXLXT/ty5cXFaQVrchxp0+5QV1HTEHZZnRi5qlaMJNrSHHNSJF3XVbPA9ui5iTJPg93Yb9Pl+UvKuu5T/0erFX5ABLYjXSheRwABBBBAAIFjKRDQwJakYeuRRamyK00TmHVrarg67Ka71akUKbfUi5OyWkFLzxH3vf+8Pwa2hVphe+erdGmtS3y012Bnoc3LjcDmpSZtIYAAAggggEBJBQIa2E7QsHXv3BTJ1uBVPqGM3HxGnGQW8TR2myyQoPuftX+Gp+/BBNZGoYFtRYYLgS9cXPZPs0ZtvJyNmzt0s884mueKEthKelvxfgQQQAABBBDwUiDgga3fpymSqZM9q5aNkIEtC1+Sw3dChc3wLDKw6bg2m3Xwj/OT5ERdysMX8CysLdfxcjZu7uDQZm3b73+pHnPEyQoENi9vMdpCAAEEEEAAgZIKHLPAVkUD24MtDh/YCjuZwwY27ULt1Sxe6pb/ffKBjXkbujRVtu3SftJDy2wa2IbZuLcjrPtBYCvpbcX7EUAAAQQQQMBLgRAPbPnSW58VevofApvIU8vSZOuhgW3/8iDDLrKJCoefpkBg8/IWoy0EEEAAAQQQKKlAwAPbfdolmnW0XaJ6Nocu03HYCptWygZemCSJOs7N1yVqk1E37s2VNH3Sga3Vduh2po6R8+1bFB6BraS3Fe9HAAEEEEAAAS8FAh7YDp50cNMZ8UVOOrCTiiiTLw0rRrmHu/uCW9GTDtKljHZ/vtCm7J8eQ2WhrdBJB4UEwsIwCWxe3mK0hQACCCCAAAIlFQhoYDswnixFE5hVu3S26IHNV/06uHdSZwacoGPdejeMl1N1zbV0HYZmS4MUOkv0y3Rpp8t/tK4RrSGwpAx/fD+BzVtPWkMAAQQQQACBkgkENLBZpSslK1+G6FpsthjuHx51YIvk2rZ/oVz3s4U4+9L31KsWJZ3PjJOT9fmhd9nCufq0Kt/CuXM3Z8l732fJi22SJKUED3kvio7AVrKbincjgAACCCCAgLcCAQ1sdqj2tAPb1uzKkVxbP1d/t4z1zv511E4tFylXJMe4p7bP+jFbNv6mZTh7kwU83a9LwziZtj5T9hz0aKpl+lD4qhrkKsRFHHGJDn+4CGz+qPEeBBBAAAEEEAiUQMADm69wFqnro1l2s8CWpV2YD2rVzB5X1aBylNzeON5NErDuz2U/58ibqzMkV6tsEqVvsG5U+66/+h7+nqWzPC3PHWnygL9oBDZ/5XgfAggggAACCARC4JgEtoMP3J5QZU8bGKSzRy2w1asUpWPW4txjqGyzh8XH6N8nfZ8hczfq9FJ7g30dFNjSilhHzd5rQa6kD4QnsAXiVqNNBBBAAAEEEPBXIOgCm+9EEqNFdmXky4hvM2SzdZNqiHMVtiKellBWq3PDV6RLy5OjdaZppM4c9ZdEH5GVEC/Dh4+SmJhoiYiI0OVBjuLB9f5/HO9EAAEEEEAAAQQOKxC0gc2O2rpPy+kaa9ZNOvLbdPcg+MHnJf3p2aFWWVugD4SfvEofV6WVuHNrxbgJC9bNeoQ1cgvFIbDxvwYBBBBAAAEEgkkgqAObD8oCWaSmN5sdel71aDd54eAtTmecjl6dKZ9vyRLRSpuNeztRHzbfTx+FlaDj34q77AeBLZhuUY4FAQQQQAABBI5LYMvUwPXIx3tdN+dpVaLlzsa/j2E73CWxB7vborqFbbbA7he/ZMuob7TKdtAabz10fNxZuhhvcca1Edj4j4EAAggggAACwSRwzAObnbzN7pyv1bAIHRtWMV5nihYzUBUFaJW2VO0GfeaLNNmbqh+iwS1ag9zQ85MksxhTSglswXSLciwIIIAAAgggcFwCm7HH7l8418aYFaf6daRLZov12hMW3l2TIYs2ZslgXVw3Wv9YjLzGpIMjIfM6AggggAACCBxTgeMW2AJ9ljZ2bU9mvsTrIrxFrAJS5CFQYQv01aF9BBBAAAEEECiOQKkNbIZgQ9kOflTp0cIQ2I5Wiv0QQAABBBBA4FgIlOrA5i8ggc1fOd6HAAIIIIAAAoEQILAVokpgC8StRpsIIIAAAggg4K8AgY3A5u+9w/sQQAABBBBA4BgJENgIbMfoVuNjEEAAAQQQQMBfAQIbgc3fe4f3IYAAAggggMAxEih2YMvLy5Ps7GypX7+enH12M/dzadvi4uJkxIg3JTo6yj343R4Az4YAAggggAACCBwvgWIHtvz8fBfSqlevJpdddolkZmYer2MPyOdaQMvKypbx4ydoYIt2Yc3+xoYAAggggAACCBwvgWIHNjtQq7JZULv11lskI6N0BTYLaWvWrJVFi5aIVdoIa8fr1uRzEUAAAQQQQMAn4FdgsypbenqG6xJt0qRRqaqyxcXFyttvj5Xc3ByJiiroEmVDAAEEEEAAAQSOp4Bfgc0qbL7Q1rHjDZKUlFQqxrIlJibInDnzZO3a77W6FqPXhfFrx/Pm5LMRQAABBBBAoEDAr8BmYc2+cnNtAkKWXH31FVKtWjUX2nxhLlSAbYxaZGSkq6R99tl8Wb16rcTHJ+jYtTLub1TYQuVKcpwIIIAAAgiUXgG/AptxWDCzJ3Xm5uZLauo+qVnzVGnQoL5UqVJZYmNjQ0LMQmdKSoqsX79RvvlmhU42yNJjj9Ow5rIss0ND4ipykAgggAACCJR+Ab8Dm9EUVNqse1S0upbjZlfm5eW43wteD15A39A0q6RFRkbpjNAYHbNmM0I1qpVhZmjwXjmODAEEEEAAgfATKHFg+z24WXhzvwV9WPNd5t/nE1jXpwW137tA6QoNv/8MnDECCCCAAALBKlCiwOY7Kau0+YKb77sFnmCvsNlx+4LZod+D9YJxXAgggAACCCAQfgKeBLZDg9vBoS1YSQ8Oa3aMVNSC9UpxXAgggAACCCDgaWCDEwEEEEAAAQQQQMB7AQKb96a0iAACCCCAAAIIeCpAYPOUk8YQQAABBBBAAAHvBTwPbL4JCIwJ8/5i0SICCCCAAAIIhKeAp4HNwlpaWpp7BmdMTEzQDuQ/dMJBeF56zhoBBBBAAAEEQkXA08C2c+dOGT9+gsyc+V959913nEFubq57YkBCQoI+ESHVLbZrYc6+Cn7P02eRlpWMjAx9fmece7yVPSoqMzPTvdd+jo+P14fNp7vf7Wfb17bExET3c05OjtvPXo+OjnZPWijYP+dA27aPHYe9bq/ZPra/PbHBPtf+zoYAAggggAACCASjgGeBzcKPhbI+fW5zD4O/55673c8tW7aUDRvWy9ChQ2XQoEekRo0aMmHCezJt2jQZNux5fZRVVenSpZPcddfd8vbbb8lFF12sz/NcJW3btpWmTZvJ119/LS+//JL069dfmjRpLAMGPCC33trbfZb93KtXL2nV6jz55JPZcskll8qMGTNk0qSJcscdd0qjRo2kb98+0qOH7XOuPoLqB93vYxk16k355z8fkuTkZGnYsJG88cZIWbVqFaEtGO9QjgkBBBBAAAEE/Hv4e2FuaWmp0q1bd7n22nb6TNEGUrfu6Rq2VkiFCifKnDlz5brrOsiSJcvk9NNry4oVq2Ty5ImydetW+fzzzzWs3SO1a9eWG2+8QQYOHKhh7gMNb2OkatWKsnTpF/Lvf78g55zTUh54oJ/07z/AfYZVxqZP/1Buu+02OeWUavLrr7ulcuUKGva+kwcfHCBPPvmUrFy5Uvbs2S2tW7eR+vXPlIkTp0jPnt3l4YcHyX33/Y+sWfO9dOp0s/z002Y54YRyQduFy32KAAIIIIAAAuEt4FmFbffu3TJ79idaBWsk7dt30OpYU7nqqqu1YtZaq2tPaXVtoFbKXtHAdIt88MGH8vHHs2Tv3r3y1Vdfa4WtizRu3EQuv/wyGTt2nFbenpNnnhkmbdpcIKNHj3OVtwsvbC0PPTRA7r23n3vfq6++4ro4lyxZKuee21IWLlwq55/fSubO/UyGDHlMOnbsJN27/811uS5dulwuvbSNBrmH5dlnn5YRI0a54LZjxw55//2pGhqX6d9GuO5WNgQQQAABBBBAINgEPAtsNubMKlmffjpXx5Wlu27LlJR9rvuzdevWMn/+Zxqa2mqX5XStpN2k3ZIjNVg9oV2iVbTrtLc0b97cdaFu2LBRxowZLZddZuFtjIa/9vLee+9J7963SbNmzbQ69pD+3Md1rVpoa9KkqY6bGyudO3fVcPeufu/i2u7V61bX5vjx46V69eoyZcpk1y26aNFCrcr1lR9++EED3gUa+sq47tGyZctSYQu2u5PjQQABBBBAAAEn4Flgs8YstNlgfttsYL9tvokENqg/KyvLvW4TBey7zSi1rk0b82aTAuzvVjUreI/tG+feYxMULATm5BSMk7P97H1WEbP3WVuZmdZm3IHvvskI9prta99tX5vBasdmkxRsgoNNgrDPZxkS/kcggAACCCCAQLAKeBrYgvUkOS4EEEAAAQQQQCCUBQhsoXz1OHYEEEAAAQQQCAsBAltYXGZOEgEEEEAAAQRCWYDAFspXj2NHAAEEEEAAgbAQILCFxWXmJBFAAAEEEEAglAUIbKF89Th2BBBAAAEEEAgLAQJbWFxmThIBBBBAAAEEQlmAwBbKV49jRwABBBBAAIGwECCwhcVl5iQRQAABBBBAIJQFCGyhfPU4dgQQQAABBBAICwECW1hcZk4SAQQQQAABBEJZgMAWylePY0cAAQQQQACBsBAgsIXFZeYkEUAAAQQQQCCUBQhsoXz1OHYEEEAAAQQQCAsBAltYXGZOEgEEEEAAAQRCWYDAFspXj2NHAAEEEEAAgZCcLxgAAAA7SURBVLAQILCFxWXmJBFAAAEEEEAglAUIbKF89Th2BBBAAAEEEAgLAQJbWFxmThIBBBBAAAEEQlng/wG1D8w3kOQF2QAAAABJRU5ErkJggg==;" vertex="1" parent="1">
          <mxGeometry x="940" y="160" width="351.23" height="230" as="geometry" />
        </mxCell>
        <mxCell id="QaJkn2_FKrZJyJ2E_iRm-5" value="" style="endArrow=classic;html=1;rounded=0;entryX=0;entryY=0.5;entryDx=0;entryDy=0;exitX=1;exitY=0.5;exitDx=0;exitDy=0;" edge="1" parent="1" source="QaJkn2_FKrZJyJ2E_iRm-2" target="QaJkn2_FKrZJyJ2E_iRm-3">
          <mxGeometry width="50" height="50" relative="1" as="geometry">
            <mxPoint x="180" y="640" as="sourcePoint" />
            <mxPoint x="230" y="590" as="targetPoint" />
          </mxGeometry>
        </mxCell>
        <mxCell id="QaJkn2_FKrZJyJ2E_iRm-6" value="Login" style="edgeLabel;html=1;align=center;verticalAlign=middle;resizable=0;points=[];" vertex="1" connectable="0" parent="QaJkn2_FKrZJyJ2E_iRm-5">
          <mxGeometry x="0.0142" y="-5" relative="1" as="geometry">
            <mxPoint x="-2" y="-20" as="offset" />
          </mxGeometry>
        </mxCell>
        <mxCell id="QaJkn2_FKrZJyJ2E_iRm-7" value="" style="endArrow=classic;html=1;rounded=0;entryX=0;entryY=0.5;entryDx=0;entryDy=0;exitX=1;exitY=0.5;exitDx=0;exitDy=0;" edge="1" parent="1" source="QaJkn2_FKrZJyJ2E_iRm-3" target="QaJkn2_FKrZJyJ2E_iRm-4">
          <mxGeometry width="50" height="50" relative="1" as="geometry">
            <mxPoint x="630" y="530" as="sourcePoint" />
            <mxPoint x="680" y="480" as="targetPoint" />
          </mxGeometry>
        </mxCell>
        <mxCell id="QaJkn2_FKrZJyJ2E_iRm-8" value="Login" style="edgeLabel;html=1;align=center;verticalAlign=middle;resizable=0;points=[];" vertex="1" connectable="0" parent="QaJkn2_FKrZJyJ2E_iRm-7">
          <mxGeometry x="0.0116" y="-4" relative="1" as="geometry">
            <mxPoint y="-19" as="offset" />
          </mxGeometry>
        </mxCell>
        <mxCell id="QaJkn2_FKrZJyJ2E_iRm-9" value="Main page" style="text;html=1;strokeColor=none;fillColor=none;align=center;verticalAlign=middle;whiteSpace=wrap;rounded=0;fontSize=17;fontStyle=1" vertex="1" parent="1">
          <mxGeometry x="60" y="110" width="150" height="30" as="geometry" />
        </mxCell>
        <mxCell id="QaJkn2_FKrZJyJ2E_iRm-10" value="Login page" style="text;html=1;strokeColor=none;fillColor=none;align=center;verticalAlign=middle;whiteSpace=wrap;rounded=0;fontSize=17;fontStyle=1" vertex="1" parent="1">
          <mxGeometry x="550" y="110" width="150" height="30" as="geometry" />
        </mxCell>
        <mxCell id="QaJkn2_FKrZJyJ2E_iRm-11" value="Home page" style="text;html=1;strokeColor=none;fillColor=none;align=center;verticalAlign=middle;whiteSpace=wrap;rounded=0;fontSize=17;fontStyle=1" vertex="1" parent="1">
          <mxGeometry x="1030" y="110" width="150" height="30" as="geometry" />
        </mxCell>
      </root>
    </mxGraphModel>
  </diagram>
</mxfile>
